M48
;Layer_Color=9474304
;FILE_FORMAT=2:4
INCH,LZ
;TYPE=PLATED
T1F00S00C0.0118
T2F00S00C0.0240
T3F00S00C0.0300
T4F00S00C0.0315
T5F00S00C0.0330
T6F00S00C0.0360
T7F00S00C0.0394
T8F00S00C0.0433
T9F00S00C0.0512
T10F00S00C0.0551
T11F00S00C0.1181
%
T01
X01113Y0085
X01159Y0088
X01084Y00908
X01024Y01088
X0088Y01116
X0102Y01298
X01159Y01252
X01191Y0125
X01322Y01244
X01347Y01299
X01321Y01398
X01347Y01445
X01198
X01191Y01391
X01156Y01393
X01467Y01396
Y01253
X01461Y01549
X01286Y00826
X016615Y010495
X01719Y0103
X017293Y010777
X01792Y0105
X01856Y01027
X01907Y01003
X019337Y01076
X01988Y01077
X02016Y0105
X0214Y0102
X02177Y01046
X02242Y01071
X0229Y01348
X02294Y0148
X02464Y01495
X02415Y01395
X02392Y01296
X02504Y01221
X02551Y01241
X02631Y01338
X026291Y01381
X02589Y01402
X02675Y01498
X02749Y015192
X02832Y01477
X02817Y01374
Y01299
X02749Y0126
X0272Y01334
X02768Y01095
X02832Y01064
X02664
X02615Y01036
X02576Y00982
X02494Y0098
X02712Y00878
X02883Y00854
X02972Y01095
X03024Y01135
X02956Y01192
X02984Y01403
X02981Y01521
X03082Y01468
X03112Y01015
X01857Y01106
X01612Y01157
X01606Y012673
X01605Y01385
X017497Y01506
X01723Y01552
X01851Y01553
X01906Y01403
X02045Y01357
X031262Y014
X03349Y01498
X03341Y01534
X03417Y0153
X03439Y01484
X03444Y0135
X03405Y01358
X03492Y01381
X03546Y01349
X03576Y01257
X03626Y01256
X03676Y01253
X03726Y01262
X03791Y0135
X03895Y01391
X03886Y01423
X03917Y01497
X0377Y01484
X037648Y015388
X03646Y01509
X03606Y01441
X03632Y0141
X03464Y01271
X034685Y010205
X03515Y01024
X03585Y010777
X0367Y0104
X03693Y0097
X0376Y01009
X03943Y00935
X03996Y00941
Y00853
X03896Y00855
X03923Y01104
X03888Y01228
X038535Y012325
X03982Y012315
X03951Y01277
X04088Y01353
X04085Y01479
X04118Y01534
X04324
X04281Y0143
X04397Y0135
X04452Y01349
X04646
X04556Y01255
X04379Y00983
X04262Y00984
X04053Y00986
X04118Y01075
X04378Y00825
X03587Y00828
X033133Y009083
X03363Y01072
X03419Y0159
X03426Y01692
X0335Y01698
X03232Y017146
X03212Y0179
X03224Y018245
X0321Y01863
X03186Y01915
X031619Y01968
X03164Y020205
X031942Y02006
X03196Y02086
X03194Y02113
X03238Y02132
X03274Y02135
X03211Y02162
X03262Y022148
X03154Y022452
X03161Y02345
X031262Y023462
X03134Y02405
X03188Y02375
X03212Y02318
X032428Y02437
X03279Y02467
X03311Y02404
X0336Y02333
X03411Y02297
X03475Y02196
X03532Y02218
X03437Y02136
X033858Y02007
X0339Y01953
X03388Y01921
X03356Y01877
X03335Y01852
X0329
X03293Y01815
X03292Y01917
X03315Y01951
X03298Y01985
X03326Y02008
X03492Y01951
X035902Y019495
X03556Y01899
X03629Y01894
X037Y01913
X037615Y019495
X03784Y01809
X03841Y01788
X03828Y01726
X037698Y017192
X0374Y01602
X0362Y01568
X0353Y01587
X03536Y01725
X03441Y01767
X03442Y01857
X03399Y01831
X03135Y01883
X031262Y01759
X031325Y025125
X03189Y02572
X032428Y025372
X03299Y02678
X0334Y02763
Y02839
X033Y02855
X0327Y02854
X03402Y02837
X035302Y02984
X03706Y02964
X03756Y02965
X03706Y03042
X03731Y03117
X03809
X03838Y03043
X03974Y03046
X0408Y03045
X04166Y03054
X04194Y03019
X04233Y03018
X04232Y03017
X04277Y03019
X04311Y03025
X04348Y02991
X04351Y02949
X04314Y02928
X04276Y02923
X04226Y02925
X04194Y02923
X04142Y02926
X04156Y0288
X0408
X04014
X04012Y02912
X03974Y02884
X03987Y0265
X0399Y02562
X04032Y025651
X03856Y02595
X03768Y02602
X03806Y02679
X03779Y0271
X038349Y027449
X036655Y02654
X03619Y02625
X0372Y02489
X03761Y02463
X03805Y02437
X03812Y02368
X03858Y02343
X04004Y02362
X040403Y023436
X03971Y02265
X04156Y0226
X042215Y022648
X04271Y02231
X04347Y0224
X04361Y02273
Y02332
X04327Y023674
X044044Y023676
X044249Y02451
X043848Y025651
X04364Y02593
X04365Y0265
X04326Y02725
X0436Y02762
X04265Y02765
X04192Y02726
X04183Y02648
X04156Y02673
X04115Y02745
X04289Y02872
X04475Y02885
X04516Y02881
X04519Y02916
X04496Y02947
X04478Y02984
X04548Y02988
X04525Y03015
X044739Y030553
X043753Y030525
X043515Y030925
X04594Y02966
X04668Y02889
X04636Y02796
X04594Y0275
X0451Y02701
X04492Y02627
X04579Y02584
X046039Y02451
X04622Y02282
X04473Y02305
X04183Y02317
X042246Y0253
X043184Y02527
X04333Y025651
X04476Y02776
X04347Y02077
X04324Y01889
X044282Y018892
X04621Y01972
X04179Y01854
X04137Y01635
X04042Y01683
X03957Y01966
X03922Y02018
X03895Y02066
X03931Y02107
X03761Y021665
X0438Y01593
X03122Y01564
X03035Y01651
X03041Y01732
X03005Y01733
X0294Y01766
X02889Y017695
Y01834
X02913Y01863
X02853Y0186
X02862Y0191
X02814Y01893
X02716Y018777
X027012Y018348
X0266Y0177
X026185Y017695
X0259Y01793
X02621Y01897
X02594Y0193
X025922Y01962
X02611Y01993
X02633Y01945
X02547Y01985
X02551Y01894
X02412Y01877
X02369Y01871
X02387Y01793
X02307Y01766
X02215Y01776
X02129Y01753
X02034
X01979
X020038Y018248
X02089Y018778
X02139Y01926
X021823Y018983
X022107Y018979
X022401Y018972
X023124Y019351
X02405Y01979
X02376Y0203
X02384Y02085
X02416Y02081
X02443Y02057
X02479Y02033
X02415Y02145
X02322Y02067
X022335Y021525
X0225Y0241
X02307Y02389
X02345Y02442
X02295Y02479
X02319Y025515
X02408Y0256
X02517Y02587
X024938Y02681
X02647Y02763
X02728Y02604
X02809Y02615
X02908Y02537
X0291Y02443
X03025Y0241
X03077Y0237
X03057Y0229
X03087Y0221
X03065Y02103
X03046Y02077
X03082Y02074
X03106Y02053
X03069Y0198
X03028Y01924
X02993Y01916
X029594Y01914
X02966Y01882
X02997Y01954
X02976Y02077
X02925Y02162
X02903Y02188
X0281Y02292
X0275Y02293
X02735Y02227
X02632Y02228
X02613Y021012
X027201Y019981
X027105Y02348
X02824Y0234
X0265Y0243
X02544Y02415
X02447Y02387
X02184Y02389
X02153Y02438
X02157Y02484
X02101Y02533
X02094Y02596
X02015Y02614
X0198Y02659
X02019Y02737
X01975Y02808
X01966Y02852
X02018Y02855
X02071Y02839
X021003Y029148
X02197Y02913
X02203Y02881
X02194Y02801
Y02717
X02204Y02645
X02235Y02621
X02258Y02665
X02286Y02716
X02314Y027565
X023Y02964
X02292Y02996
X02198Y02997
X02161Y02979
X020734Y030344
X01977Y03037
Y02983
X018699Y02764
X01793Y02814
X01832Y026
X01869Y02607
X01914
X01913Y0249
X01933Y02453
X01924Y02416
X01844Y02408
X01785Y02423
Y02305
X01756Y02285
X01854Y02302
X0188Y02265
X01935Y023
X01956Y02227
X02008Y02233
X01995Y02384
X02054Y02441
X02105Y0242
X01986Y02513
X01904Y02085
X018739Y020276
X01815Y02083
X01768Y02129
X01709Y0205
X01686Y01783
X01657Y01745
X01596Y0175
X01578Y016239
X016615Y016225
X01752Y01744
X0191Y018796
X019104Y019051
X019094Y01929
X02034Y0197
X02089Y01978
X01999Y01643
X01979Y01589
X02438Y01585
X02662Y01628
X02843Y01616
X02876Y01612
X02917Y01685
X02916Y01717
X0307Y01778
X03102Y01879
X03122Y01931
X03088Y02556
X03047Y02705
X02918Y02763
X028726Y029024
X02793Y03021
X02821Y030598
X0275Y03063
X02753Y03123
X02846Y0312
X0291Y03123
X02939Y030992
X03034Y029811
X02576Y030191
X02519Y03066
X02472Y03058
X02475Y0312
X02551Y031225
X02604Y03099
X024709Y029811
X024938Y029382
X02463Y02904
X02322Y03096
X02257
X01584Y02623
X01386Y02587
X01431Y02506
X01299Y02507
X01227Y02504
X013252Y023607
X013533Y023616
X013842Y023616
X014115Y022513
X014317Y020962
X01459Y020963
X01486Y02097
X015244Y020627
X01458Y0198
X014595Y01954
X014597Y019289
X014612Y017422
Y01628
X01403Y01611
X01132Y01606
X01086Y01631
X01105Y02101
X012021Y02248
X0103Y02319
X01Y02321
X00966Y0232
X00967Y02352
X00998Y02354
X01028
X00865Y0274
X012935Y027442
X01181Y02876
X01377Y02919
X01363Y03082
X013375Y020645
X01291Y03178
X01337Y03347
X01339Y03382
X01435Y03428
X01522Y03349
Y03515
X01577Y03382
X01598Y03294
X01633Y03192
X01809Y03194
X01781Y03247
X0175Y03293
X01835Y03274
X01867Y03344
X01899Y03378
X01867Y03445
X01835Y03469
X01811Y035
X01781Y03387
X01995Y03332
X0201Y03283
X02043Y03224
X02075Y03221
X02098Y03249
X02105Y03365
X021873Y033755
X02187Y03444
X02271Y03467
X02366Y03453
X024005Y033995
X02434Y03372
X02445Y03432
X02518Y03501
X02609Y03407
X02584Y03373
X02561Y03216
X02608Y0317
X027027Y031463
X027135Y032165
X02989Y03217
X02991Y03129
X02297Y03178
X02262Y03249
X02204Y03271
X02151Y0317
X02024Y03189
X01977Y03143
X01932Y0318
X01873Y03131
X03154Y034358
X0314Y03473
X03271Y03465
X03359Y03423
X03447Y03406
X03545Y0339
X03641
X03692Y03295
X03585Y03256
X038378Y032158
X03859Y03307
X03874Y03338
X03886Y03287
X03938Y03271
X03974Y03245
X04076Y03213
X04133Y031549
X04173Y03294
X04109Y033351
X04076Y033609
X04135Y03413
X04128Y03503
X04204Y0351
X04273Y03432
X04274Y0337
X04244Y03382
X042951Y033366
X04337Y0332
X04428Y03341
X04423Y03286
X04396Y03252
X04478Y03213
X04479Y03181
X04465Y03125
X045188Y03126
X04511Y03285
X04532Y0332
X04602Y03319
X04513Y03421
X0398Y03437
X03931Y03502
X03895Y03503
X03842Y0341
X03788Y03381
X038102Y033358
T02
X046505Y03014
X046775
Y032896
X046505
T03
X03162Y02642
X03262
X03062
X02962
X02862
X02762
X02662
X02562
X02462
X02362
T04
X021095Y012673
X022095
X023095
X024995
X025995
X026995
Y015673
X025995
X024995
X023095
X022095
X021095
T05
X045577Y030533
Y032502
T06
X00932Y01299
Y01397
Y01498
X01093Y01497
Y01396
Y01298
X01252
Y01396
Y01497
X01402Y01498
Y01397
Y01299
X01547
Y01397
Y01498
X01692Y01499
Y01398
Y013
X01827Y01301
Y01399
Y015
X0196Y01507
Y01406
Y01308
X02903Y01286
Y01384
Y01485
X03193Y0147
Y0137
X03293
Y0147
X03741Y01175
X03842
X03962Y01172
X04063
X04177Y01169
X04277
X04377
X04477
X04577
X04677
X04262Y00854
X04156
X04054
X03949
X03849
X03739
X03293Y0157
Y0167
X03193
Y0157
X03189Y02462
X03429Y02368
X0353
X03628
X03656Y02238
Y0214
Y02039
X0382Y02067
Y02165
Y02266
Y01966
X039857Y02022
X040841
X041826
X04281
X043794
X044778
X03767Y02537
X03666
X03088Y02462
X0299
X02798Y02469
X02698
X02598
X02498
X02398
X02402Y02322
X025
X02601
X0224Y02312
X02139
X02041
X01695Y0231
X01594
X01459Y02308
X01358
X01651Y03441
X01752
X03495Y03442
X03596
X03694
X03795
X03533Y03275
X03435
X03334
T07
X03619Y02727
Y030262
T08
X01607Y01683
X01707
X01807
X01907
X02083Y01688
X02183
X02283
X02383
X02483
X02583
X02683
X02783
Y02188
X02683
X02583
X02483
X02383
X02283
X02183
X02083
X01907Y02183
X01807
X01707
X01607
X01507
X01407
X01307
X01207
Y01683
X01307
X01407
X01507
T09
X00927Y01776
Y019728
Y021697
T10
X011Y01158
X0125
X014
X0155
X017837Y011575
X019337
X020837
X022337
X024492
X025992
X027492
X028992
X031222
X032722
X034222
X035722
X01114Y02449
Y02599
X011169Y02856
Y03006
T11
X00891Y00897
X04612Y00894
X00906Y03427
X0461Y03436
M30
