G04*
G04 #@! TF.GenerationSoftware,Altium Limited,Altium Designer,18.1.6 (161)*
G04*
G04 Layer_Color=2752767*
%FSTAX24Y24*%
%MOIN*%
G70*
G01*
G75*
%ADD126C,0.0020*%
%ADD127C,0.0027*%
%ADD128C,0.0013*%
D126*
X01106Y02441D02*
Y02457D01*
X01122D01*
Y02441D01*
X01106D01*
Y02591D02*
Y02607D01*
X01122D01*
Y02591D01*
X01106D01*
X046775Y032816D02*
X046695Y032976D01*
X046855D01*
X046775Y032816D01*
X046505D02*
X046425Y032976D01*
X046585D01*
X046505Y032816D01*
X046775Y03006D02*
X046695Y03022D01*
X046855D01*
X046775Y03006D01*
X046505D02*
X046425Y03022D01*
X046585D01*
X046505Y03006D01*
X031142Y011495D02*
Y011655D01*
X031302D01*
Y011495D01*
X031142D01*
X032642D02*
Y011655D01*
X032802D01*
Y011495D01*
X032642D01*
X034142D02*
Y011655D01*
X034302D01*
Y011495D01*
X034142D01*
X035642D02*
Y011655D01*
X035802D01*
Y011495D01*
X035642D01*
X02903Y01278D02*
X02907Y01282D01*
X02911D01*
X02907Y01286D01*
X02911Y0129D01*
X02907D01*
X02903Y01294D01*
X02899Y0129D01*
X02895D01*
X02899Y01286D01*
X02895Y01282D01*
X02899D01*
X02903Y01278D01*
Y01376D02*
X02907Y0138D01*
X02911D01*
X02907Y01384D01*
X02911Y01388D01*
X02907D01*
X02903Y01392D01*
X02899Y01388D01*
X02895D01*
X02899Y01384D01*
X02895Y0138D01*
X02899D01*
X02903Y01376D01*
Y01477D02*
X02907Y01481D01*
X02911D01*
X02907Y01485D01*
X02911Y01489D01*
X02907D01*
X02903Y01493D01*
X02899Y01489D01*
X02895D01*
X02899Y01485D01*
X02895Y01481D01*
X02899D01*
X02903Y01477D01*
X01695Y02302D02*
X01699Y02306D01*
X01703D01*
X01699Y0231D01*
X01703Y02314D01*
X01699D01*
X01695Y02318D01*
X01691Y02314D01*
X01687D01*
X01691Y0231D01*
X01687Y02306D01*
X01691D01*
X01695Y02302D01*
X01594D02*
X01598Y02306D01*
X01602D01*
X01598Y0231D01*
X01602Y02314D01*
X01598D01*
X01594Y02318D01*
X0159Y02314D01*
X01586D01*
X0159Y0231D01*
X01586Y02306D01*
X0159D01*
X01594Y02302D01*
X01651Y03433D02*
X01655Y03437D01*
X01659D01*
X01655Y03441D01*
X01659Y03445D01*
X01655D01*
X01651Y03449D01*
X01647Y03445D01*
X01643D01*
X01647Y03441D01*
X01643Y03437D01*
X01647D01*
X01651Y03433D01*
X01752D02*
X01756Y03437D01*
X0176D01*
X01756Y03441D01*
X0176Y03445D01*
X01756D01*
X01752Y03449D01*
X01748Y03445D01*
X01744D01*
X01748Y03441D01*
X01744Y03437D01*
X01748D01*
X01752Y03433D01*
X00898Y03419D02*
X00902Y03427D01*
X00898Y03435D01*
X00906Y03431D01*
X00914Y03435D01*
X0091Y03427D01*
X00914Y03419D01*
X00906Y03423D01*
X00898Y03419D01*
X04602Y03428D02*
X04606Y03436D01*
X04602Y03444D01*
X0461Y0344D01*
X04618Y03444D01*
X04614Y03436D01*
X04618Y03428D01*
X0461Y03432D01*
X04602Y03428D01*
X04604Y00886D02*
X04608Y00894D01*
X04604Y00902D01*
X04612Y00898D01*
X0462Y00902D01*
X04616Y00894D01*
X0462Y00886D01*
X04612Y0089D01*
X04604Y00886D01*
X02779Y02184D02*
Y0218D01*
X02787D01*
Y02184D01*
X02791D01*
Y02192D01*
X02787D01*
Y02196D01*
X02779D01*
Y02192D01*
X02775D01*
Y02184D01*
X02779D01*
X02679D02*
Y0218D01*
X02687D01*
Y02184D01*
X02691D01*
Y02192D01*
X02687D01*
Y02196D01*
X02679D01*
Y02192D01*
X02675D01*
Y02184D01*
X02679D01*
X02579D02*
Y0218D01*
X02587D01*
Y02184D01*
X02591D01*
Y02192D01*
X02587D01*
Y02196D01*
X02579D01*
Y02192D01*
X02575D01*
Y02184D01*
X02579D01*
X02479D02*
Y0218D01*
X02487D01*
Y02184D01*
X02491D01*
Y02192D01*
X02487D01*
Y02196D01*
X02479D01*
Y02192D01*
X02475D01*
Y02184D01*
X02479D01*
X02079D02*
Y0218D01*
X02087D01*
Y02184D01*
X02091D01*
Y02192D01*
X02087D01*
Y02196D01*
X02079D01*
Y02192D01*
X02075D01*
Y02184D01*
X02079D01*
X02179D02*
Y0218D01*
X02187D01*
Y02184D01*
X02191D01*
Y02192D01*
X02187D01*
Y02196D01*
X02179D01*
Y02192D01*
X02175D01*
Y02184D01*
X02179D01*
X02279D02*
Y0218D01*
X02287D01*
Y02184D01*
X02291D01*
Y02192D01*
X02287D01*
Y02196D01*
X02279D01*
Y02192D01*
X02275D01*
Y02184D01*
X02279D01*
X02079Y01684D02*
Y0168D01*
X02087D01*
Y01684D01*
X02091D01*
Y01692D01*
X02087D01*
Y01696D01*
X02079D01*
Y01692D01*
X02075D01*
Y01684D01*
X02079D01*
X02179D02*
Y0168D01*
X02187D01*
Y01684D01*
X02191D01*
Y01692D01*
X02187D01*
Y01696D01*
X02179D01*
Y01692D01*
X02175D01*
Y01684D01*
X02179D01*
X02279D02*
Y0168D01*
X02287D01*
Y01684D01*
X02291D01*
Y01692D01*
X02287D01*
Y01696D01*
X02279D01*
Y01692D01*
X02275D01*
Y01684D01*
X02279D01*
X02779D02*
Y0168D01*
X02787D01*
Y01684D01*
X02791D01*
Y01692D01*
X02787D01*
Y01696D01*
X02779D01*
Y01692D01*
X02775D01*
Y01684D01*
X02779D01*
X02679D02*
Y0168D01*
X02687D01*
Y01684D01*
X02691D01*
Y01692D01*
X02687D01*
Y01696D01*
X02679D01*
Y01692D01*
X02675D01*
Y01684D01*
X02679D01*
X02579D02*
Y0168D01*
X02587D01*
Y01684D01*
X02591D01*
Y01692D01*
X02587D01*
Y01696D01*
X02579D01*
Y01692D01*
X02575D01*
Y01684D01*
X02579D01*
X02479D02*
Y0168D01*
X02487D01*
Y01684D01*
X02491D01*
Y01692D01*
X02487D01*
Y01696D01*
X02479D01*
Y01692D01*
X02475D01*
Y01684D01*
X02479D01*
X02379Y02184D02*
Y0218D01*
X02387D01*
Y02184D01*
X02391D01*
Y02192D01*
X02387D01*
Y02196D01*
X02379D01*
Y02192D01*
X02375D01*
Y02184D01*
X02379D01*
Y01684D02*
Y0168D01*
X02387D01*
Y01684D01*
X02391D01*
Y01692D01*
X02387D01*
Y01696D01*
X02379D01*
Y01692D01*
X02375D01*
Y01684D01*
X02379D01*
X01203Y01679D02*
Y01675D01*
X01211D01*
Y01679D01*
X01215D01*
Y01687D01*
X01211D01*
Y01691D01*
X01203D01*
Y01687D01*
X01199D01*
Y01679D01*
X01203D01*
X01303D02*
Y01675D01*
X01311D01*
Y01679D01*
X01315D01*
Y01687D01*
X01311D01*
Y01691D01*
X01303D01*
Y01687D01*
X01299D01*
Y01679D01*
X01303D01*
X01403D02*
Y01675D01*
X01411D01*
Y01679D01*
X01415D01*
Y01687D01*
X01411D01*
Y01691D01*
X01403D01*
Y01687D01*
X01399D01*
Y01679D01*
X01403D01*
X01503D02*
Y01675D01*
X01511D01*
Y01679D01*
X01515D01*
Y01687D01*
X01511D01*
Y01691D01*
X01503D01*
Y01687D01*
X01499D01*
Y01679D01*
X01503D01*
X01903D02*
Y01675D01*
X01911D01*
Y01679D01*
X01915D01*
Y01687D01*
X01911D01*
Y01691D01*
X01903D01*
Y01687D01*
X01899D01*
Y01679D01*
X01903D01*
X01803D02*
Y01675D01*
X01811D01*
Y01679D01*
X01815D01*
Y01687D01*
X01811D01*
Y01691D01*
X01803D01*
Y01687D01*
X01799D01*
Y01679D01*
X01803D01*
X01703D02*
Y01675D01*
X01711D01*
Y01679D01*
X01715D01*
Y01687D01*
X01711D01*
Y01691D01*
X01703D01*
Y01687D01*
X01699D01*
Y01679D01*
X01703D01*
X01903Y02179D02*
Y02175D01*
X01911D01*
Y02179D01*
X01915D01*
Y02187D01*
X01911D01*
Y02191D01*
X01903D01*
Y02187D01*
X01899D01*
Y02179D01*
X01903D01*
X01803D02*
Y02175D01*
X01811D01*
Y02179D01*
X01815D01*
Y02187D01*
X01811D01*
Y02191D01*
X01803D01*
Y02187D01*
X01799D01*
Y02179D01*
X01803D01*
X01703D02*
Y02175D01*
X01711D01*
Y02179D01*
X01715D01*
Y02187D01*
X01711D01*
Y02191D01*
X01703D01*
Y02187D01*
X01699D01*
Y02179D01*
X01703D01*
X01203D02*
Y02175D01*
X01211D01*
Y02179D01*
X01215D01*
Y02187D01*
X01211D01*
Y02191D01*
X01203D01*
Y02187D01*
X01199D01*
Y02179D01*
X01203D01*
X01303D02*
Y02175D01*
X01311D01*
Y02179D01*
X01315D01*
Y02187D01*
X01311D01*
Y02191D01*
X01303D01*
Y02187D01*
X01299D01*
Y02179D01*
X01303D01*
X01403D02*
Y02175D01*
X01411D01*
Y02179D01*
X01415D01*
Y02187D01*
X01411D01*
Y02191D01*
X01403D01*
Y02187D01*
X01399D01*
Y02179D01*
X01403D01*
X01503D02*
Y02175D01*
X01511D01*
Y02179D01*
X01515D01*
Y02187D01*
X01511D01*
Y02191D01*
X01503D01*
Y02187D01*
X01499D01*
Y02179D01*
X01503D01*
X01603Y01679D02*
Y01675D01*
X01611D01*
Y01679D01*
X01615D01*
Y01687D01*
X01611D01*
Y01691D01*
X01603D01*
Y01687D01*
X01599D01*
Y01679D01*
X01603D01*
Y02179D02*
Y02175D01*
X01611D01*
Y02179D01*
X01615D01*
Y02187D01*
X01611D01*
Y02191D01*
X01603D01*
Y02187D01*
X01599D01*
Y02179D01*
X01603D01*
X02354Y02634D02*
X02358D01*
X02362Y02638D01*
X02366Y02634D01*
X0237D01*
Y02638D01*
X02366Y02642D01*
X0237Y02646D01*
Y0265D01*
X02366D01*
X02362Y02646D01*
X02358Y0265D01*
X02354D01*
Y02646D01*
X02358Y02642D01*
X02354Y02638D01*
Y02634D01*
X02454D02*
X02458D01*
X02462Y02638D01*
X02466Y02634D01*
X0247D01*
Y02638D01*
X02466Y02642D01*
X0247Y02646D01*
Y0265D01*
X02466D01*
X02462Y02646D01*
X02458Y0265D01*
X02454D01*
Y02646D01*
X02458Y02642D01*
X02454Y02638D01*
Y02634D01*
X02554D02*
X02558D01*
X02562Y02638D01*
X02566Y02634D01*
X0257D01*
Y02638D01*
X02566Y02642D01*
X0257Y02646D01*
Y0265D01*
X02566D01*
X02562Y02646D01*
X02558Y0265D01*
X02554D01*
Y02646D01*
X02558Y02642D01*
X02554Y02638D01*
Y02634D01*
X02654D02*
X02658D01*
X02662Y02638D01*
X02666Y02634D01*
X0267D01*
Y02638D01*
X02666Y02642D01*
X0267Y02646D01*
Y0265D01*
X02666D01*
X02662Y02646D01*
X02658Y0265D01*
X02654D01*
Y02646D01*
X02658Y02642D01*
X02654Y02638D01*
Y02634D01*
X02754D02*
X02758D01*
X02762Y02638D01*
X02766Y02634D01*
X0277D01*
Y02638D01*
X02766Y02642D01*
X0277Y02646D01*
Y0265D01*
X02766D01*
X02762Y02646D01*
X02758Y0265D01*
X02754D01*
Y02646D01*
X02758Y02642D01*
X02754Y02638D01*
Y02634D01*
X02854D02*
X02858D01*
X02862Y02638D01*
X02866Y02634D01*
X0287D01*
Y02638D01*
X02866Y02642D01*
X0287Y02646D01*
Y0265D01*
X02866D01*
X02862Y02646D01*
X02858Y0265D01*
X02854D01*
Y02646D01*
X02858Y02642D01*
X02854Y02638D01*
Y02634D01*
X02954D02*
X02958D01*
X02962Y02638D01*
X02966Y02634D01*
X0297D01*
Y02638D01*
X02966Y02642D01*
X0297Y02646D01*
Y0265D01*
X02966D01*
X02962Y02646D01*
X02958Y0265D01*
X02954D01*
Y02646D01*
X02958Y02642D01*
X02954Y02638D01*
Y02634D01*
X03054D02*
X03058D01*
X03062Y02638D01*
X03066Y02634D01*
X0307D01*
Y02638D01*
X03066Y02642D01*
X0307Y02646D01*
Y0265D01*
X03066D01*
X03062Y02646D01*
X03058Y0265D01*
X03054D01*
Y02646D01*
X03058Y02642D01*
X03054Y02638D01*
Y02634D01*
X03154D02*
X03158D01*
X03162Y02638D01*
X03166Y02634D01*
X0317D01*
Y02638D01*
X03166Y02642D01*
X0317Y02646D01*
Y0265D01*
X03166D01*
X03162Y02646D01*
X03158Y0265D01*
X03154D01*
Y02646D01*
X03158Y02642D01*
X03154Y02638D01*
Y02634D01*
X03254D02*
X03258D01*
X03262Y02638D01*
X03266Y02634D01*
X0327D01*
Y02638D01*
X03266Y02642D01*
X0327Y02646D01*
Y0265D01*
X03266D01*
X03262Y02646D01*
X03258Y0265D01*
X03254D01*
Y02646D01*
X03258Y02642D01*
X03254Y02638D01*
Y02634D01*
X03193Y01462D02*
X03197Y01466D01*
X03201D01*
X03197Y0147D01*
X03201Y01474D01*
X03197D01*
X03193Y01478D01*
X03189Y01474D01*
X03185D01*
X03189Y0147D01*
X03185Y01466D01*
X03189D01*
X03193Y01462D01*
Y01362D02*
X03197Y01366D01*
X03201D01*
X03197Y0137D01*
X03201Y01374D01*
X03197D01*
X03193Y01378D01*
X03189Y01374D01*
X03185D01*
X03189Y0137D01*
X03185Y01366D01*
X03189D01*
X03193Y01362D01*
X03293Y01662D02*
X03297Y01666D01*
X03301D01*
X03297Y0167D01*
X03301Y01674D01*
X03297D01*
X03293Y01678D01*
X03289Y01674D01*
X03285D01*
X03289Y0167D01*
X03285Y01666D01*
X03289D01*
X03293Y01662D01*
Y01562D02*
X03297Y01566D01*
X03301D01*
X03297Y0157D01*
X03301Y01574D01*
X03297D01*
X03293Y01578D01*
X03289Y01574D01*
X03285D01*
X03289Y0157D01*
X03285Y01566D01*
X03289D01*
X03293Y01562D01*
Y01462D02*
X03297Y01466D01*
X03301D01*
X03297Y0147D01*
X03301Y01474D01*
X03297D01*
X03293Y01478D01*
X03289Y01474D01*
X03285D01*
X03289Y0147D01*
X03285Y01466D01*
X03289D01*
X03293Y01462D01*
Y01362D02*
X03297Y01366D01*
X03301D01*
X03297Y0137D01*
X03301Y01374D01*
X03297D01*
X03293Y01378D01*
X03289Y01374D01*
X03285D01*
X03289Y0137D01*
X03285Y01366D01*
X03289D01*
X03293Y01362D01*
X03193Y01562D02*
X03197Y01566D01*
X03201D01*
X03197Y0157D01*
X03201Y01574D01*
X03197D01*
X03193Y01578D01*
X03189Y01574D01*
X03185D01*
X03189Y0157D01*
X03185Y01566D01*
X03189D01*
X03193Y01562D01*
Y01662D02*
X03197Y01666D01*
X03201D01*
X03197Y0167D01*
X03201Y01674D01*
X03197D01*
X03193Y01678D01*
X03189Y01674D01*
X03185D01*
X03189Y0167D01*
X03185Y01666D01*
X03189D01*
X03193Y01662D01*
X00883Y00889D02*
X00887Y00897D01*
X00883Y00905D01*
X00891Y00901D01*
X00899Y00905D01*
X00895Y00897D01*
X00899Y00889D01*
X00891Y00893D01*
X00883Y00889D01*
X01542Y0115D02*
Y01166D01*
X01558D01*
Y0115D01*
X01542D01*
X01392D02*
Y01166D01*
X01408D01*
Y0115D01*
X01392D01*
X01242D02*
Y01166D01*
X01258D01*
Y0115D01*
X01242D01*
X01092D02*
Y01166D01*
X01108D01*
Y0115D01*
X01092D01*
X022257Y011495D02*
Y011655D01*
X022417D01*
Y011495D01*
X022257D01*
X020757D02*
Y011655D01*
X020917D01*
Y011495D01*
X020757D01*
X019257D02*
Y011655D01*
X019417D01*
Y011495D01*
X019257D01*
X017757D02*
Y011655D01*
X017917D01*
Y011495D01*
X017757D01*
X024915Y012673D02*
X024995Y012753D01*
X025075Y012673D01*
X024995Y012593D01*
X024915Y012673D01*
X025915D02*
X025995Y012753D01*
X026075Y012673D01*
X025995Y012593D01*
X025915Y012673D01*
X026915D02*
X026995Y012753D01*
X027075Y012673D01*
X026995Y012593D01*
X026915Y012673D01*
Y015673D02*
X026995Y015753D01*
X027075Y015673D01*
X026995Y015593D01*
X026915Y015673D01*
X025915D02*
X025995Y015753D01*
X026075Y015673D01*
X025995Y015593D01*
X025915Y015673D01*
X024915D02*
X024995Y015753D01*
X025075Y015673D01*
X024995Y015593D01*
X024915Y015673D01*
X021015Y012673D02*
X021095Y012753D01*
X021175Y012673D01*
X021095Y012593D01*
X021015Y012673D01*
X022015D02*
X022095Y012753D01*
X022175Y012673D01*
X022095Y012593D01*
X022015Y012673D01*
X023015D02*
X023095Y012753D01*
X023175Y012673D01*
X023095Y012593D01*
X023015Y012673D01*
Y015673D02*
X023095Y015753D01*
X023175Y015673D01*
X023095Y015593D01*
X023015Y015673D01*
X022015D02*
X022095Y015753D01*
X022175Y015673D01*
X022095Y015593D01*
X022015Y015673D01*
X021015D02*
X021095Y015753D01*
X021175Y015673D01*
X021095Y015593D01*
X021015Y015673D01*
X03611Y030182D02*
Y030342D01*
X03627D01*
Y030182D01*
X03611D01*
X03615Y030222D02*
Y030302D01*
X03623D01*
Y030222D01*
X03615D01*
X03611Y02719D02*
Y02735D01*
X03627D01*
Y02719D01*
X03611D01*
X03615Y02723D02*
Y02731D01*
X03623D01*
Y02723D01*
X03615D01*
X03795Y03434D02*
X03799Y03438D01*
X03803D01*
X03799Y03442D01*
X03803Y03446D01*
X03799D01*
X03795Y0345D01*
X03791Y03446D01*
X03787D01*
X03791Y03442D01*
X03787Y03438D01*
X03791D01*
X03795Y03434D01*
X03694D02*
X03698Y03438D01*
X03702D01*
X03698Y03442D01*
X03702Y03446D01*
X03698D01*
X03694Y0345D01*
X0369Y03446D01*
X03686D01*
X0369Y03442D01*
X03686Y03438D01*
X0369D01*
X03694Y03434D01*
X03596D02*
X036Y03438D01*
X03604D01*
X036Y03442D01*
X03604Y03446D01*
X036D01*
X03596Y0345D01*
X03592Y03446D01*
X03588D01*
X03592Y03442D01*
X03588Y03438D01*
X03592D01*
X03596Y03434D01*
X03495D02*
X03499Y03438D01*
X03503D01*
X03499Y03442D01*
X03503Y03446D01*
X03499D01*
X03495Y0345D01*
X03491Y03446D01*
X03487D01*
X03491Y03442D01*
X03487Y03438D01*
X03491D01*
X03495Y03434D01*
X02398Y02461D02*
X02402Y02465D01*
X02406D01*
X02402Y02469D01*
X02406Y02473D01*
X02402D01*
X02398Y02477D01*
X02394Y02473D01*
X0239D01*
X02394Y02469D01*
X0239Y02465D01*
X02394D01*
X02398Y02461D01*
X02798D02*
X02802Y02465D01*
X02806D01*
X02802Y02469D01*
X02806Y02473D01*
X02802D01*
X02798Y02477D01*
X02794Y02473D01*
X0279D01*
X02794Y02469D01*
X0279Y02465D01*
X02794D01*
X02798Y02461D01*
X02698D02*
X02702Y02465D01*
X02706D01*
X02702Y02469D01*
X02706Y02473D01*
X02702D01*
X02698Y02477D01*
X02694Y02473D01*
X0269D01*
X02694Y02469D01*
X0269Y02465D01*
X02694D01*
X02698Y02461D01*
X02598D02*
X02602Y02465D01*
X02606D01*
X02602Y02469D01*
X02606Y02473D01*
X02602D01*
X02598Y02477D01*
X02594Y02473D01*
X0259D01*
X02594Y02469D01*
X0259Y02465D01*
X02594D01*
X02598Y02461D01*
X02498D02*
X02502Y02465D01*
X02506D01*
X02502Y02469D01*
X02506Y02473D01*
X02502D01*
X02498Y02477D01*
X02494Y02473D01*
X0249D01*
X02494Y02469D01*
X0249Y02465D01*
X02494D01*
X02498Y02461D01*
X03666Y02529D02*
X0367Y02533D01*
X03674D01*
X0367Y02537D01*
X03674Y02541D01*
X0367D01*
X03666Y02545D01*
X03662Y02541D01*
X03658D01*
X03662Y02537D01*
X03658Y02533D01*
X03662D01*
X03666Y02529D01*
X03767D02*
X03771Y02533D01*
X03775D01*
X03771Y02537D01*
X03775Y02541D01*
X03771D01*
X03767Y02545D01*
X03763Y02541D01*
X03759D01*
X03763Y02537D01*
X03759Y02533D01*
X03763D01*
X03767Y02529D01*
X0382Y01958D02*
X03824Y01962D01*
X03828D01*
X03824Y01966D01*
X03828Y0197D01*
X03824D01*
X0382Y01974D01*
X03816Y0197D01*
X03812D01*
X03816Y01966D01*
X03812Y01962D01*
X03816D01*
X0382Y01958D01*
Y02059D02*
X03824Y02063D01*
X03828D01*
X03824Y02067D01*
X03828Y02071D01*
X03824D01*
X0382Y02075D01*
X03816Y02071D01*
X03812D01*
X03816Y02067D01*
X03812Y02063D01*
X03816D01*
X0382Y02059D01*
Y02157D02*
X03824Y02161D01*
X03828D01*
X03824Y02165D01*
X03828Y02169D01*
X03824D01*
X0382Y02173D01*
X03816Y02169D01*
X03812D01*
X03816Y02165D01*
X03812Y02161D01*
X03816D01*
X0382Y02157D01*
Y02258D02*
X03824Y02262D01*
X03828D01*
X03824Y02266D01*
X03828Y0227D01*
X03824D01*
X0382Y02274D01*
X03816Y0227D01*
X03812D01*
X03816Y02266D01*
X03812Y02262D01*
X03816D01*
X0382Y02258D01*
X04577Y01161D02*
X04581Y01165D01*
X04585D01*
X04581Y01169D01*
X04585Y01173D01*
X04581D01*
X04577Y01177D01*
X04573Y01173D01*
X04569D01*
X04573Y01169D01*
X04569Y01165D01*
X04573D01*
X04577Y01161D01*
X04177D02*
X04181Y01165D01*
X04185D01*
X04181Y01169D01*
X04185Y01173D01*
X04181D01*
X04177Y01177D01*
X04173Y01173D01*
X04169D01*
X04173Y01169D01*
X04169Y01165D01*
X04173D01*
X04177Y01161D01*
X04277D02*
X04281Y01165D01*
X04285D01*
X04281Y01169D01*
X04285Y01173D01*
X04281D01*
X04277Y01177D01*
X04273Y01173D01*
X04269D01*
X04273Y01169D01*
X04269Y01165D01*
X04273D01*
X04277Y01161D01*
X04377D02*
X04381Y01165D01*
X04385D01*
X04381Y01169D01*
X04385Y01173D01*
X04381D01*
X04377Y01177D01*
X04373Y01173D01*
X04369D01*
X04373Y01169D01*
X04369Y01165D01*
X04373D01*
X04377Y01161D01*
X04477D02*
X04481Y01165D01*
X04485D01*
X04481Y01169D01*
X04485Y01173D01*
X04481D01*
X04477Y01177D01*
X04473Y01173D01*
X04469D01*
X04473Y01169D01*
X04469Y01165D01*
X04473D01*
X04477Y01161D01*
X04677D02*
X04681Y01165D01*
X04685D01*
X04681Y01169D01*
X04685Y01173D01*
X04681D01*
X04677Y01177D01*
X04673Y01173D01*
X04669D01*
X04673Y01169D01*
X04669Y01165D01*
X04673D01*
X04677Y01161D01*
X03842Y01167D02*
X03846Y01171D01*
X0385D01*
X03846Y01175D01*
X0385Y01179D01*
X03846D01*
X03842Y01183D01*
X03838Y01179D01*
X03834D01*
X03838Y01175D01*
X03834Y01171D01*
X03838D01*
X03842Y01167D01*
X03741D02*
X03745Y01171D01*
X03749D01*
X03745Y01175D01*
X03749Y01179D01*
X03745D01*
X03741Y01183D01*
X03737Y01179D01*
X03733D01*
X03737Y01175D01*
X03733Y01171D01*
X03737D01*
X03741Y01167D01*
X039857Y02014D02*
X039897Y02018D01*
X039937D01*
X039897Y02022D01*
X039937Y02026D01*
X039897D01*
X039857Y0203D01*
X039817Y02026D01*
X039777D01*
X039817Y02022D01*
X039777Y02018D01*
X039817D01*
X039857Y02014D01*
X040841D02*
X040882Y02018D01*
X040922D01*
X040882Y02022D01*
X040922Y02026D01*
X040882D01*
X040841Y0203D01*
X040802Y02026D01*
X040761D01*
X040802Y02022D01*
X040761Y02018D01*
X040802D01*
X040841Y02014D01*
X041826D02*
X041866Y02018D01*
X041906D01*
X041866Y02022D01*
X041906Y02026D01*
X041866D01*
X041826Y0203D01*
X041786Y02026D01*
X041746D01*
X041786Y02022D01*
X041746Y02018D01*
X041786D01*
X041826Y02014D01*
X04281D02*
X04285Y02018D01*
X04289D01*
X04285Y02022D01*
X04289Y02026D01*
X04285D01*
X04281Y0203D01*
X04277Y02026D01*
X04273D01*
X04277Y02022D01*
X04273Y02018D01*
X04277D01*
X04281Y02014D01*
X043794D02*
X043834Y02018D01*
X043874D01*
X043834Y02022D01*
X043874Y02026D01*
X043834D01*
X043794Y0203D01*
X043754Y02026D01*
X043714D01*
X043754Y02022D01*
X043714Y02018D01*
X043754D01*
X043794Y02014D01*
X044778D02*
X044819Y02018D01*
X044858D01*
X044819Y02022D01*
X044858Y02026D01*
X044819D01*
X044778Y0203D01*
X044738Y02026D01*
X044699D01*
X044738Y02022D01*
X044699Y02018D01*
X044738D01*
X044778Y02014D01*
X04063Y01164D02*
X04067Y01168D01*
X04071D01*
X04067Y01172D01*
X04071Y01176D01*
X04067D01*
X04063Y0118D01*
X04059Y01176D01*
X04055D01*
X04059Y01172D01*
X04055Y01168D01*
X04059D01*
X04063Y01164D01*
X03962D02*
X03966Y01168D01*
X0397D01*
X03966Y01172D01*
X0397Y01176D01*
X03966D01*
X03962Y0118D01*
X03958Y01176D01*
X03954D01*
X03958Y01172D01*
X03954Y01168D01*
X03958D01*
X03962Y01164D01*
X03334Y03267D02*
X03338Y03271D01*
X03342D01*
X03338Y03275D01*
X03342Y03279D01*
X03338D01*
X03334Y03283D01*
X0333Y03279D01*
X03326D01*
X0333Y03275D01*
X03326Y03271D01*
X0333D01*
X03334Y03267D01*
X03435D02*
X03439Y03271D01*
X03443D01*
X03439Y03275D01*
X03443Y03279D01*
X03439D01*
X03435Y03283D01*
X03431Y03279D01*
X03427D01*
X03431Y03275D01*
X03427Y03271D01*
X03431D01*
X03435Y03267D01*
X03533D02*
X03537Y03271D01*
X03541D01*
X03537Y03275D01*
X03541Y03279D01*
X03537D01*
X03533Y03283D01*
X03529Y03279D01*
X03525D01*
X03529Y03275D01*
X03525Y03271D01*
X03529D01*
X03533Y03267D01*
X03429Y0236D02*
X03433Y02364D01*
X03437D01*
X03433Y02368D01*
X03437Y02372D01*
X03433D01*
X03429Y02376D01*
X03425Y02372D01*
X03421D01*
X03425Y02368D01*
X03421Y02364D01*
X03425D01*
X03429Y0236D01*
X0353D02*
X03534Y02364D01*
X03538D01*
X03534Y02368D01*
X03538Y02372D01*
X03534D01*
X0353Y02376D01*
X03526Y02372D01*
X03522D01*
X03526Y02368D01*
X03522Y02364D01*
X03526D01*
X0353Y0236D01*
X03628D02*
X03632Y02364D01*
X03636D01*
X03632Y02368D01*
X03636Y02372D01*
X03632D01*
X03628Y02376D01*
X03624Y02372D01*
X0362D01*
X03624Y02368D01*
X0362Y02364D01*
X03624D01*
X03628Y0236D01*
X01358Y023D02*
X01362Y02304D01*
X01366D01*
X01362Y02308D01*
X01366Y02312D01*
X01362D01*
X01358Y02316D01*
X01354Y02312D01*
X0135D01*
X01354Y02308D01*
X0135Y02304D01*
X01354D01*
X01358Y023D01*
X01459D02*
X01463Y02304D01*
X01467D01*
X01463Y02308D01*
X01467Y02312D01*
X01463D01*
X01459Y02316D01*
X01455Y02312D01*
X01451D01*
X01455Y02308D01*
X01451Y02304D01*
X01455D01*
X01459Y023D01*
X01692Y01491D02*
X01696Y01495D01*
X017D01*
X01696Y01499D01*
X017Y01503D01*
X01696D01*
X01692Y01507D01*
X01688Y01503D01*
X01684D01*
X01688Y01499D01*
X01684Y01495D01*
X01688D01*
X01692Y01491D01*
Y0139D02*
X01696Y01394D01*
X017D01*
X01696Y01398D01*
X017Y01402D01*
X01696D01*
X01692Y01406D01*
X01688Y01402D01*
X01684D01*
X01688Y01398D01*
X01684Y01394D01*
X01688D01*
X01692Y0139D01*
Y01292D02*
X01696Y01296D01*
X017D01*
X01696Y013D01*
X017Y01304D01*
X01696D01*
X01692Y01308D01*
X01688Y01304D01*
X01684D01*
X01688Y013D01*
X01684Y01296D01*
X01688D01*
X01692Y01292D01*
X01547Y0149D02*
X01551Y01494D01*
X01555D01*
X01551Y01498D01*
X01555Y01502D01*
X01551D01*
X01547Y01506D01*
X01543Y01502D01*
X01539D01*
X01543Y01498D01*
X01539Y01494D01*
X01543D01*
X01547Y0149D01*
Y01389D02*
X01551Y01393D01*
X01555D01*
X01551Y01397D01*
X01555Y01401D01*
X01551D01*
X01547Y01405D01*
X01543Y01401D01*
X01539D01*
X01543Y01397D01*
X01539Y01393D01*
X01543D01*
X01547Y01389D01*
Y01291D02*
X01551Y01295D01*
X01555D01*
X01551Y01299D01*
X01555Y01303D01*
X01551D01*
X01547Y01307D01*
X01543Y01303D01*
X01539D01*
X01543Y01299D01*
X01539Y01295D01*
X01543D01*
X01547Y01291D01*
X0196Y01499D02*
X01964Y01503D01*
X01968D01*
X01964Y01507D01*
X01968Y01511D01*
X01964D01*
X0196Y01515D01*
X01956Y01511D01*
X01952D01*
X01956Y01507D01*
X01952Y01503D01*
X01956D01*
X0196Y01499D01*
Y01398D02*
X01964Y01402D01*
X01968D01*
X01964Y01406D01*
X01968Y0141D01*
X01964D01*
X0196Y01414D01*
X01956Y0141D01*
X01952D01*
X01956Y01406D01*
X01952Y01402D01*
X01956D01*
X0196Y01398D01*
Y013D02*
X01964Y01304D01*
X01968D01*
X01964Y01308D01*
X01968Y01312D01*
X01964D01*
X0196Y01316D01*
X01956Y01312D01*
X01952D01*
X01956Y01308D01*
X01952Y01304D01*
X01956D01*
X0196Y013D01*
X01827Y01492D02*
X01831Y01496D01*
X01835D01*
X01831Y015D01*
X01835Y01504D01*
X01831D01*
X01827Y01508D01*
X01823Y01504D01*
X01819D01*
X01823Y015D01*
X01819Y01496D01*
X01823D01*
X01827Y01492D01*
Y01391D02*
X01831Y01395D01*
X01835D01*
X01831Y01399D01*
X01835Y01403D01*
X01831D01*
X01827Y01407D01*
X01823Y01403D01*
X01819D01*
X01823Y01399D01*
X01819Y01395D01*
X01823D01*
X01827Y01391D01*
Y01293D02*
X01831Y01297D01*
X01835D01*
X01831Y01301D01*
X01835Y01305D01*
X01831D01*
X01827Y01309D01*
X01823Y01305D01*
X01819D01*
X01823Y01301D01*
X01819Y01297D01*
X01823D01*
X01827Y01293D01*
X01093Y01489D02*
X01097Y01493D01*
X01101D01*
X01097Y01497D01*
X01101Y01501D01*
X01097D01*
X01093Y01505D01*
X01089Y01501D01*
X01085D01*
X01089Y01497D01*
X01085Y01493D01*
X01089D01*
X01093Y01489D01*
Y01388D02*
X01097Y01392D01*
X01101D01*
X01097Y01396D01*
X01101Y014D01*
X01097D01*
X01093Y01404D01*
X01089Y014D01*
X01085D01*
X01089Y01396D01*
X01085Y01392D01*
X01089D01*
X01093Y01388D01*
Y0129D02*
X01097Y01294D01*
X01101D01*
X01097Y01298D01*
X01101Y01302D01*
X01097D01*
X01093Y01306D01*
X01089Y01302D01*
X01085D01*
X01089Y01298D01*
X01085Y01294D01*
X01089D01*
X01093Y0129D01*
X00932Y0149D02*
X00936Y01494D01*
X0094D01*
X00936Y01498D01*
X0094Y01502D01*
X00936D01*
X00932Y01506D01*
X00928Y01502D01*
X00924D01*
X00928Y01498D01*
X00924Y01494D01*
X00928D01*
X00932Y0149D01*
Y01389D02*
X00936Y01393D01*
X0094D01*
X00936Y01397D01*
X0094Y01401D01*
X00936D01*
X00932Y01405D01*
X00928Y01401D01*
X00924D01*
X00928Y01397D01*
X00924Y01393D01*
X00928D01*
X00932Y01389D01*
Y01291D02*
X00936Y01295D01*
X0094D01*
X00936Y01299D01*
X0094Y01303D01*
X00936D01*
X00932Y01307D01*
X00928Y01303D01*
X00924D01*
X00928Y01299D01*
X00924Y01295D01*
X00928D01*
X00932Y01291D01*
X01402Y0149D02*
X01406Y01494D01*
X0141D01*
X01406Y01498D01*
X0141Y01502D01*
X01406D01*
X01402Y01506D01*
X01398Y01502D01*
X01394D01*
X01398Y01498D01*
X01394Y01494D01*
X01398D01*
X01402Y0149D01*
Y01389D02*
X01406Y01393D01*
X0141D01*
X01406Y01397D01*
X0141Y01401D01*
X01406D01*
X01402Y01405D01*
X01398Y01401D01*
X01394D01*
X01398Y01397D01*
X01394Y01393D01*
X01398D01*
X01402Y01389D01*
Y01291D02*
X01406Y01295D01*
X0141D01*
X01406Y01299D01*
X0141Y01303D01*
X01406D01*
X01402Y01307D01*
X01398Y01303D01*
X01394D01*
X01398Y01299D01*
X01394Y01295D01*
X01398D01*
X01402Y01291D01*
X01252Y01489D02*
X01256Y01493D01*
X0126D01*
X01256Y01497D01*
X0126Y01501D01*
X01256D01*
X01252Y01505D01*
X01248Y01501D01*
X01244D01*
X01248Y01497D01*
X01244Y01493D01*
X01248D01*
X01252Y01489D01*
Y01388D02*
X01256Y01392D01*
X0126D01*
X01256Y01396D01*
X0126Y014D01*
X01256D01*
X01252Y01404D01*
X01248Y014D01*
X01244D01*
X01248Y01396D01*
X01244Y01392D01*
X01248D01*
X01252Y01388D01*
Y0129D02*
X01256Y01294D01*
X0126D01*
X01256Y01298D01*
X0126Y01302D01*
X01256D01*
X01252Y01306D01*
X01248Y01302D01*
X01244D01*
X01248Y01298D01*
X01244Y01294D01*
X01248D01*
X01252Y0129D01*
X028912Y011495D02*
Y011655D01*
X029072D01*
Y011495D01*
X028912D01*
X027412D02*
Y011655D01*
X027572D01*
Y011495D01*
X027412D01*
X025912D02*
Y011655D01*
X026072D01*
Y011495D01*
X025912D01*
X024412D02*
Y011655D01*
X024572D01*
Y011495D01*
X024412D01*
X011089Y02998D02*
Y03014D01*
X011249D01*
Y02998D01*
X011089D01*
Y02848D02*
Y02864D01*
X011249D01*
Y02848D01*
X011089D01*
X0224Y02304D02*
X02244Y02308D01*
X02248D01*
X02244Y02312D01*
X02248Y02316D01*
X02244D01*
X0224Y0232D01*
X02236Y02316D01*
X02232D01*
X02236Y02312D01*
X02232Y02308D01*
X02236D01*
X0224Y02304D01*
X02139D02*
X02143Y02308D01*
X02147D01*
X02143Y02312D01*
X02147Y02316D01*
X02143D01*
X02139Y0232D01*
X02135Y02316D01*
X02131D01*
X02135Y02312D01*
X02131Y02308D01*
X02135D01*
X02139Y02304D01*
X02041D02*
X02045Y02308D01*
X02049D01*
X02045Y02312D01*
X02049Y02316D01*
X02045D01*
X02041Y0232D01*
X02037Y02316D01*
X02033D01*
X02037Y02312D01*
X02033Y02308D01*
X02037D01*
X02041Y02304D01*
X03656Y02031D02*
X0366Y02035D01*
X03664D01*
X0366Y02039D01*
X03664Y02043D01*
X0366D01*
X03656Y02047D01*
X03652Y02043D01*
X03648D01*
X03652Y02039D01*
X03648Y02035D01*
X03652D01*
X03656Y02031D01*
Y02132D02*
X0366Y02136D01*
X03664D01*
X0366Y0214D01*
X03664Y02144D01*
X0366D01*
X03656Y02148D01*
X03652Y02144D01*
X03648D01*
X03652Y0214D01*
X03648Y02136D01*
X03652D01*
X03656Y02132D01*
Y0223D02*
X0366Y02234D01*
X03664D01*
X0366Y02238D01*
X03664Y02242D01*
X0366D01*
X03656Y02246D01*
X03652Y02242D01*
X03648D01*
X03652Y02238D01*
X03648Y02234D01*
X03652D01*
X03656Y0223D01*
X02601Y02314D02*
X02605Y02318D01*
X02609D01*
X02605Y02322D01*
X02609Y02326D01*
X02605D01*
X02601Y0233D01*
X02597Y02326D01*
X02593D01*
X02597Y02322D01*
X02593Y02318D01*
X02597D01*
X02601Y02314D01*
X025D02*
X02504Y02318D01*
X02508D01*
X02504Y02322D01*
X02508Y02326D01*
X02504D01*
X025Y0233D01*
X02496Y02326D01*
X02492D01*
X02496Y02322D01*
X02492Y02318D01*
X02496D01*
X025Y02314D01*
X02402D02*
X02406Y02318D01*
X0241D01*
X02406Y02322D01*
X0241Y02326D01*
X02406D01*
X02402Y0233D01*
X02398Y02326D01*
X02394D01*
X02398Y02322D01*
X02394Y02318D01*
X02398D01*
X02402Y02314D01*
X03739Y00846D02*
X03743Y0085D01*
X03747D01*
X03743Y00854D01*
X03747Y00858D01*
X03743D01*
X03739Y00862D01*
X03735Y00858D01*
X03731D01*
X03735Y00854D01*
X03731Y0085D01*
X03735D01*
X03739Y00846D01*
X03849D02*
X03853Y0085D01*
X03857D01*
X03853Y00854D01*
X03857Y00858D01*
X03853D01*
X03849Y00862D01*
X03845Y00858D01*
X03841D01*
X03845Y00854D01*
X03841Y0085D01*
X03845D01*
X03849Y00846D01*
X03949D02*
X03953Y0085D01*
X03957D01*
X03953Y00854D01*
X03957Y00858D01*
X03953D01*
X03949Y00862D01*
X03945Y00858D01*
X03941D01*
X03945Y00854D01*
X03941Y0085D01*
X03945D01*
X03949Y00846D01*
X04054D02*
X04058Y0085D01*
X04062D01*
X04058Y00854D01*
X04062Y00858D01*
X04058D01*
X04054Y00862D01*
X0405Y00858D01*
X04046D01*
X0405Y00854D01*
X04046Y0085D01*
X0405D01*
X04054Y00846D01*
X04156D02*
X0416Y0085D01*
X04164D01*
X0416Y00854D01*
X04164Y00858D01*
X0416D01*
X04156Y00862D01*
X04152Y00858D01*
X04148D01*
X04152Y00854D01*
X04148Y0085D01*
X04152D01*
X04156Y00846D01*
X04262D02*
X04266Y0085D01*
X0427D01*
X04266Y00854D01*
X0427Y00858D01*
X04266D01*
X04262Y00862D01*
X04258Y00858D01*
X04254D01*
X04258Y00854D01*
X04254Y0085D01*
X04258D01*
X04262Y00846D01*
X0299Y02454D02*
X02994Y02458D01*
X02998D01*
X02994Y02462D01*
X02998Y02466D01*
X02994D01*
X0299Y0247D01*
X02986Y02466D01*
X02982D01*
X02986Y02462D01*
X02982Y02458D01*
X02986D01*
X0299Y02454D01*
X03088D02*
X03092Y02458D01*
X03096D01*
X03092Y02462D01*
X03096Y02466D01*
X03092D01*
X03088Y0247D01*
X03084Y02466D01*
X0308D01*
X03084Y02462D01*
X0308Y02458D01*
X03084D01*
X03088Y02454D01*
X03189D02*
X03193Y02458D01*
X03197D01*
X03193Y02462D01*
X03197Y02466D01*
X03193D01*
X03189Y0247D01*
X03185Y02466D01*
X03181D01*
X03185Y02462D01*
X03181Y02458D01*
X03185D01*
X03189Y02454D01*
X013455Y03339D02*
X013375Y03355D01*
X013535D01*
X013455Y03339D01*
Y03343D02*
X013415Y03351D01*
X013495D01*
X013455Y03343D01*
X012125Y03375D02*
X012045Y03391D01*
X012205D01*
X012125Y03375D01*
Y03379D02*
X012085Y03387D01*
X012165D01*
X012125Y03379D01*
X01159Y032825D02*
X01151Y032985D01*
X01167D01*
X01159Y032825D01*
Y032865D02*
X01155Y032945D01*
X01163D01*
X01159Y032865D01*
X03292Y01909D02*
X03284Y01925D01*
X033D01*
X03292Y01909D01*
Y01913D02*
X03288Y01921D01*
X03296D01*
X03292Y01913D01*
X01436Y034485D02*
X01428Y034645D01*
X01444D01*
X01436Y034485D01*
Y034525D02*
X01432Y034605D01*
X0144D01*
X01436Y034525D01*
X01435Y0342D02*
X01427Y03436D01*
X01443D01*
X01435Y0342D01*
Y03424D02*
X01431Y03432D01*
X01439D01*
X01435Y03424D01*
X014317Y020882D02*
X014237Y021042D01*
X014397D01*
X014317Y020882D01*
Y020922D02*
X014277Y021002D01*
X014357D01*
X014317Y020922D01*
X01486Y02089D02*
X01478Y02105D01*
X01494D01*
X01486Y02089D01*
Y02093D02*
X01482Y02101D01*
X0149D01*
X01486Y02093D01*
X014597Y019209D02*
X014517Y019369D01*
X014677D01*
X014597Y019209D01*
Y019249D02*
X014557Y019329D01*
X014637D01*
X014597Y019249D01*
X014595Y01946D02*
X014515Y01962D01*
X014675D01*
X014595Y01946D01*
Y0195D02*
X014555Y01958D01*
X014635D01*
X014595Y0195D01*
X01458Y01972D02*
X0145Y01988D01*
X01466D01*
X01458Y01972D01*
Y01976D02*
X01454Y01984D01*
X01462D01*
X01458Y01976D01*
X015244Y020547D02*
X015164Y020707D01*
X015324D01*
X015244Y020547D01*
Y020587D02*
X015204Y020667D01*
X015284D01*
X015244Y020587D01*
X013375Y020565D02*
X013295Y020725D01*
X013455D01*
X013375Y020565D01*
Y020605D02*
X013335Y020685D01*
X013415D01*
X013375Y020605D01*
X017497Y01498D02*
X017417Y01514D01*
X017577D01*
X017497Y01498D01*
Y01502D02*
X017457Y0151D01*
X017537D01*
X017497Y01502D01*
X0191Y018716D02*
X01902Y018876D01*
X01918D01*
X0191Y018716D01*
Y018756D02*
X01906Y018836D01*
X01914D01*
X0191Y018756D01*
X019094Y01921D02*
X019014Y01937D01*
X019174D01*
X019094Y01921D01*
Y01925D02*
X019054Y01933D01*
X019134D01*
X019094Y01925D01*
X019104Y018971D02*
X019024Y019131D01*
X019184D01*
X019104Y018971D01*
Y019011D02*
X019064Y019091D01*
X019144D01*
X019104Y019011D01*
X021823Y018903D02*
X021743Y019063D01*
X021903D01*
X021823Y018903D01*
Y018943D02*
X021783Y019023D01*
X021863D01*
X021823Y018943D01*
X023124Y019271D02*
X023044Y019431D01*
X023204D01*
X023124Y019271D01*
Y019311D02*
X023084Y019391D01*
X023164D01*
X023124Y019311D01*
X02089Y018698D02*
X02081Y018858D01*
X02097D01*
X02089Y018698D01*
Y018738D02*
X02085Y018818D01*
X02093D01*
X02089Y018738D01*
X013252Y023527D02*
X013172Y023687D01*
X013332D01*
X013252Y023527D01*
Y023567D02*
X013212Y023647D01*
X013292D01*
X013252Y023567D01*
X013842Y023536D02*
X013762Y023696D01*
X013922D01*
X013842Y023536D01*
Y023576D02*
X013802Y023656D01*
X013882D01*
X013842Y023576D01*
X013533Y023536D02*
X013453Y023696D01*
X013613D01*
X013533Y023536D01*
Y023576D02*
X013493Y023656D01*
X013573D01*
X013533Y023576D01*
X014115Y022433D02*
X014035Y022593D01*
X014195D01*
X014115Y022433D01*
Y022473D02*
X014075Y022553D01*
X014155D01*
X014115Y022473D01*
X022401Y018892D02*
X022321Y019052D01*
X022481D01*
X022401Y018892D01*
Y018932D02*
X022361Y019012D01*
X022441D01*
X022401Y018932D01*
X022107Y018899D02*
X022027Y019059D01*
X022187D01*
X022107Y018899D01*
Y018939D02*
X022067Y019019D01*
X022147D01*
X022107Y018939D01*
X0188Y02257D02*
X01872Y02273D01*
X01888D01*
X0188Y02257D01*
Y02261D02*
X01876Y02269D01*
X01884D01*
X0188Y02261D01*
X0314Y03465D02*
X03132Y03481D01*
X03148D01*
X0314Y03465D01*
Y03469D02*
X03136Y03477D01*
X03144D01*
X0314Y03469D01*
X02518Y03493D02*
X0251Y03509D01*
X02526D01*
X02518Y03493D01*
Y03497D02*
X02514Y03505D01*
X02522D01*
X02518Y03497D01*
X01522Y03507D02*
X01514Y03523D01*
X0153D01*
X01522Y03507D01*
Y03511D02*
X01518Y03519D01*
X01526D01*
X01522Y03511D01*
X02271Y03459D02*
X02263Y03475D01*
X02279D01*
X02271Y03459D01*
Y03463D02*
X02267Y03471D01*
X02275D01*
X02271Y03463D01*
X02445Y03424D02*
X02437Y0344D01*
X02453D01*
X02445Y03424D01*
Y03428D02*
X02441Y03436D01*
X02449D01*
X02445Y03428D01*
X04128Y03495D02*
X0412Y03511D01*
X04136D01*
X04128Y03495D01*
Y03499D02*
X04124Y03507D01*
X04132D01*
X04128Y03499D01*
X03931Y03494D02*
X03923Y0351D01*
X03939D01*
X03931Y03494D01*
Y03498D02*
X03927Y03506D01*
X03935D01*
X03931Y03498D01*
X012021Y0224D02*
X011941Y02256D01*
X012102D01*
X012021Y0224D01*
Y02244D02*
X011982Y02252D01*
X012062D01*
X012021Y02244D01*
X00966Y02312D02*
X00958Y02328D01*
X00974D01*
X00966Y02312D01*
Y02316D02*
X00962Y02324D01*
X0097D01*
X00966Y02316D01*
X01Y02313D02*
X00992Y02329D01*
X01008D01*
X01Y02313D01*
Y02317D02*
X00996Y02325D01*
X01004D01*
X01Y02317D01*
X01028Y02346D02*
X0102Y02362D01*
X01036D01*
X01028Y02346D01*
Y0235D02*
X01024Y02358D01*
X01032D01*
X01028Y0235D01*
X00967Y02344D02*
X00959Y0236D01*
X00975D01*
X00967Y02344D01*
Y02348D02*
X00963Y02356D01*
X00971D01*
X00967Y02348D01*
X00998Y02346D02*
X0099Y02362D01*
X01006D01*
X00998Y02346D01*
Y0235D02*
X00994Y02358D01*
X01002D01*
X00998Y0235D01*
X0103Y02311D02*
X01022Y02327D01*
X01038D01*
X0103Y02311D01*
Y02315D02*
X01026Y02323D01*
X01034D01*
X0103Y02315D01*
X00865Y02732D02*
X00857Y02748D01*
X00873D01*
X00865Y02732D01*
Y02736D02*
X00861Y02744D01*
X00869D01*
X00865Y02736D01*
X04525Y03007D02*
X04517Y03023D01*
X04533D01*
X04525Y03007D01*
Y03011D02*
X04521Y03019D01*
X04529D01*
X04525Y03011D01*
X04478Y02976D02*
X0447Y02992D01*
X04486D01*
X04478Y02976D01*
Y0298D02*
X04474Y02988D01*
X04482D01*
X04478Y0298D01*
X045188Y03118D02*
X045108Y03134D01*
X045268D01*
X045188Y03118D01*
Y03122D02*
X045148Y0313D01*
X045228D01*
X045188Y03122D01*
X04479Y03173D02*
X04471Y03189D01*
X04487D01*
X04479Y03173D01*
Y03177D02*
X04475Y03185D01*
X04483D01*
X04479Y03177D01*
X04478Y03205D02*
X0447Y03221D01*
X04486D01*
X04478Y03205D01*
Y03209D02*
X04474Y03217D01*
X04482D01*
X04478Y03209D01*
X04465Y03117D02*
X04457Y03133D01*
X04473D01*
X04465Y03117D01*
Y03121D02*
X04461Y03129D01*
X04469D01*
X04465Y03121D01*
X02203Y02873D02*
X02195Y02889D01*
X02211D01*
X02203Y02873D01*
Y02877D02*
X02199Y02885D01*
X02207D01*
X02203Y02877D01*
X01793Y02806D02*
X01785Y02822D01*
X01801D01*
X01793Y02806D01*
Y0281D02*
X01789Y02818D01*
X01797D01*
X01793Y0281D01*
X04204Y03502D02*
X04196Y03518D01*
X04212D01*
X04204Y03502D01*
Y03506D02*
X042Y03514D01*
X04208D01*
X04204Y03506D01*
X03212Y01782D02*
X03204Y01798D01*
X0322D01*
X03212Y01782D01*
Y01786D02*
X03208Y01794D01*
X03216D01*
X03212Y01786D01*
X0307Y0177D02*
X03062Y01786D01*
X03078D01*
X0307Y0177D01*
Y01774D02*
X03066Y01782D01*
X03074D01*
X0307Y01774D01*
X03041Y01724D02*
X03033Y0174D01*
X03049D01*
X03041Y01724D01*
Y01728D02*
X03037Y01736D01*
X03045D01*
X03041Y01728D01*
X03005Y01725D02*
X02997Y01741D01*
X03013D01*
X03005Y01725D01*
Y01729D02*
X03001Y01737D01*
X03009D01*
X03005Y01729D01*
X02916Y01709D02*
X02908Y01725D01*
X02924D01*
X02916Y01709D01*
Y01713D02*
X02912Y01721D01*
X0292D01*
X02916Y01713D01*
X02917Y01677D02*
X02909Y01693D01*
X02925D01*
X02917Y01677D01*
Y01681D02*
X02913Y01689D01*
X02921D01*
X02917Y01681D01*
X03035Y01643D02*
X03027Y01659D01*
X03043D01*
X03035Y01643D01*
Y01647D02*
X03031Y01655D01*
X03039D01*
X03035Y01647D01*
X031262Y01751D02*
X031182Y01767D01*
X031342D01*
X031262Y01751D01*
Y01755D02*
X031222Y01763D01*
X031302D01*
X031262Y01755D01*
X0294Y01758D02*
X02932Y01774D01*
X02948D01*
X0294Y01758D01*
Y01762D02*
X02936Y0177D01*
X02944D01*
X0294Y01762D01*
X02889Y017615D02*
X02881Y017775D01*
X02897D01*
X02889Y017615D01*
Y017655D02*
X02885Y017735D01*
X02893D01*
X02889Y017655D01*
X031942Y01998D02*
X031862Y02014D01*
X032022D01*
X031942Y01998D01*
Y02002D02*
X031902Y0201D01*
X031982D01*
X031942Y02002D01*
X027201Y019901D02*
X027121Y020061D01*
X027281D01*
X027201Y019901D01*
Y019941D02*
X027161Y020021D01*
X027241D01*
X027201Y019941D01*
X02716Y018697D02*
X02708Y018857D01*
X02724D01*
X02716Y018697D01*
Y018737D02*
X02712Y018817D01*
X0272D01*
X02716Y018737D01*
X02862Y01902D02*
X02854Y01918D01*
X0287D01*
X02862Y01902D01*
Y01906D02*
X02858Y01914D01*
X02866D01*
X02862Y01906D01*
X02853Y01852D02*
X02845Y01868D01*
X02861D01*
X02853Y01852D01*
Y01856D02*
X02849Y01864D01*
X02857D01*
X02853Y01856D01*
X02913Y01855D02*
X02905Y01871D01*
X02921D01*
X02913Y01855D01*
Y01859D02*
X02909Y01867D01*
X02917D01*
X02913Y01859D01*
X02889Y01826D02*
X02881Y01842D01*
X02897D01*
X02889Y01826D01*
Y0183D02*
X02885Y01838D01*
X02893D01*
X02889Y0183D01*
X02814Y01885D02*
X02806Y01901D01*
X02822D01*
X02814Y01885D01*
Y01889D02*
X0281Y01897D01*
X02818D01*
X02814Y01889D01*
X02966Y01874D02*
X02958Y0189D01*
X02974D01*
X02966Y01874D01*
Y01878D02*
X02962Y01886D01*
X0297D01*
X02966Y01878D01*
X029594Y01906D02*
X029514Y01922D01*
X029674D01*
X029594Y01906D01*
Y0191D02*
X029554Y01918D01*
X029634D01*
X029594Y0191D01*
X02993Y01908D02*
X02985Y01924D01*
X03001D01*
X02993Y01908D01*
Y01912D02*
X02989Y0192D01*
X02997D01*
X02993Y01912D01*
X04579Y02576D02*
X04571Y02592D01*
X04587D01*
X04579Y02576D01*
Y0258D02*
X04575Y02588D01*
X04583D01*
X04579Y0258D01*
X03046Y02069D02*
X03038Y02085D01*
X03054D01*
X03046Y02069D01*
Y02073D02*
X03042Y02081D01*
X0305D01*
X03046Y02073D01*
X02976Y02069D02*
X02968Y02085D01*
X02984D01*
X02976Y02069D01*
Y02073D02*
X02972Y02081D01*
X0298D01*
X02976Y02073D01*
X03106Y02045D02*
X03098Y02061D01*
X03114D01*
X03106Y02045D01*
Y02049D02*
X03102Y02057D01*
X0311D01*
X03106Y02049D01*
X03186Y01907D02*
X03178Y01923D01*
X03194D01*
X03186Y01907D01*
Y01911D02*
X03182Y01919D01*
X0319D01*
X03186Y01911D01*
X03164Y020125D02*
X03156Y020285D01*
X03172D01*
X03164Y020125D01*
Y020165D02*
X0316Y020245D01*
X03168D01*
X03164Y020165D01*
X031619Y0196D02*
X031539Y01976D01*
X031699D01*
X031619Y0196D01*
Y01964D02*
X031579Y01972D01*
X031659D01*
X031619Y01964D01*
X0321Y01855D02*
X03202Y01871D01*
X03218D01*
X0321Y01855D01*
Y01859D02*
X03206Y01867D01*
X03214D01*
X0321Y01859D01*
X04378Y00817D02*
X0437Y00833D01*
X04386D01*
X04378Y00817D01*
Y00821D02*
X04374Y00829D01*
X04382D01*
X04378Y00821D01*
X04379Y00975D02*
X04371Y00991D01*
X04387D01*
X04379Y00975D01*
Y00979D02*
X04375Y00987D01*
X04383D01*
X04379Y00979D01*
X04262Y00976D02*
X04254Y00992D01*
X0427D01*
X04262Y00976D01*
Y0098D02*
X04258Y00988D01*
X04266D01*
X04262Y0098D01*
X04053Y00978D02*
X04045Y00994D01*
X04061D01*
X04053Y00978D01*
Y00982D02*
X04049Y0099D01*
X04057D01*
X04053Y00982D01*
X03706Y02956D02*
X03698Y02972D01*
X03714D01*
X03706Y02956D01*
Y0296D02*
X03702Y02968D01*
X0371D01*
X03706Y0296D01*
X02016Y01042D02*
X02008Y01058D01*
X02024D01*
X02016Y01042D01*
Y01046D02*
X02012Y01054D01*
X0202D01*
X02016Y01046D01*
X01988Y01069D02*
X0198Y01085D01*
X01996D01*
X01988Y01069D01*
Y01073D02*
X01984Y01081D01*
X01992D01*
X01988Y01073D01*
X019337Y01068D02*
X019257Y01084D01*
X019417D01*
X019337Y01068D01*
Y01072D02*
X019297Y0108D01*
X019377D01*
X019337Y01072D01*
X02438Y01577D02*
X0243Y01593D01*
X02446D01*
X02438Y01577D01*
Y01581D02*
X02434Y01589D01*
X02442D01*
X02438Y01581D01*
X02464Y01487D02*
X02456Y01503D01*
X02472D01*
X02464Y01487D01*
Y01491D02*
X0246Y01499D01*
X02468D01*
X02464Y01491D01*
X02662Y0162D02*
X02654Y01636D01*
X0267D01*
X02662Y0162D01*
Y01624D02*
X02658Y01632D01*
X02666D01*
X02662Y01624D01*
X044282Y018812D02*
X044202Y018972D01*
X044362D01*
X044282Y018812D01*
Y018852D02*
X044242Y018932D01*
X044322D01*
X044282Y018852D01*
X037Y01905D02*
X03692Y01921D01*
X03708D01*
X037Y01905D01*
Y01909D02*
X03696Y01917D01*
X03704D01*
X037Y01909D01*
X03232Y017066D02*
X03224Y017226D01*
X0324D01*
X03232Y017066D01*
Y017106D02*
X03228Y017186D01*
X03236D01*
X03232Y017106D01*
X027012Y018268D02*
X026932Y018428D01*
X027092D01*
X027012Y018268D01*
Y018308D02*
X026972Y018388D01*
X027052D01*
X027012Y018308D01*
X03065Y02095D02*
X03057Y02111D01*
X03073D01*
X03065Y02095D01*
Y02099D02*
X03061Y02107D01*
X03069D01*
X03065Y02099D01*
X03082Y02066D02*
X03074Y02082D01*
X0309D01*
X03082Y02066D01*
Y0207D02*
X03078Y02078D01*
X03086D01*
X03082Y0207D01*
X03587Y0082D02*
X03579Y00836D01*
X03595D01*
X03587Y0082D01*
Y00824D02*
X03583Y00832D01*
X03591D01*
X03587Y00824D01*
X034685Y010125D02*
X034605Y010285D01*
X034765D01*
X034685Y010125D01*
Y010165D02*
X034645Y010245D01*
X034725D01*
X034685Y010165D01*
X03112Y01007D02*
X03104Y01023D01*
X0312D01*
X03112Y01007D01*
Y01011D02*
X03108Y01019D01*
X03116D01*
X03112Y01011D01*
X03363Y01064D02*
X03355Y0108D01*
X03371D01*
X03363Y01064D01*
Y01068D02*
X03359Y01076D01*
X03367D01*
X03363Y01068D01*
X02876Y01604D02*
X02868Y0162D01*
X02884D01*
X02876Y01604D01*
Y01608D02*
X02872Y01616D01*
X0288D01*
X02876Y01608D01*
X02843D02*
X02835Y01624D01*
X02851D01*
X02843Y01608D01*
Y01612D02*
X02839Y0162D01*
X02847D01*
X02843Y01612D01*
X03606Y01433D02*
X03598Y01449D01*
X03614D01*
X03606Y01433D01*
Y01437D02*
X03602Y01445D01*
X0361D01*
X03606Y01437D01*
X04361Y02324D02*
X04353Y0234D01*
X04369D01*
X04361Y02324D01*
Y02328D02*
X04357Y02336D01*
X04365D01*
X04361Y02328D01*
X03311Y02396D02*
X03303Y02412D01*
X03319D01*
X03311Y02396D01*
Y024D02*
X03307Y02408D01*
X03315D01*
X03311Y024D01*
X02824Y02332D02*
X02816Y02348D01*
X02832D01*
X02824Y02332D01*
Y02336D02*
X0282Y02344D01*
X02828D01*
X02824Y02336D01*
X03025Y02402D02*
X03017Y02418D01*
X03033D01*
X03025Y02402D01*
Y02406D02*
X03021Y02414D01*
X03029D01*
X03025Y02406D01*
X03077Y02362D02*
X03069Y02378D01*
X03085D01*
X03077Y02362D01*
Y02366D02*
X03073Y02374D01*
X03081D01*
X03077Y02366D01*
X027027Y031383D02*
X026947Y031543D01*
X027107D01*
X027027Y031383D01*
Y031423D02*
X026987Y031503D01*
X027067D01*
X027027Y031423D01*
X024938Y02673D02*
X024858Y02689D01*
X025018D01*
X024938Y02673D01*
Y02677D02*
X024898Y02685D01*
X024978D01*
X024938Y02677D01*
X02463Y02896D02*
X02455Y02912D01*
X02471D01*
X02463Y02896D01*
Y029D02*
X02459Y02908D01*
X02467D01*
X02463Y029D01*
X01286Y00818D02*
X01278Y00834D01*
X01294D01*
X01286Y00818D01*
Y00822D02*
X01282Y0083D01*
X0129D01*
X01286Y00822D01*
X03626Y01248D02*
X03618Y01264D01*
X03634D01*
X03626Y01248D01*
Y01252D02*
X03622Y0126D01*
X0363D01*
X03626Y01252D01*
X01024Y0108D02*
X01016Y01096D01*
X01032D01*
X01024Y0108D01*
Y01084D02*
X0102Y01092D01*
X01028D01*
X01024Y01084D01*
X0102Y0129D02*
X01012Y01306D01*
X01028D01*
X0102Y0129D01*
Y01294D02*
X01016Y01302D01*
X01024D01*
X0102Y01294D01*
X01113Y00842D02*
X01105Y00858D01*
X01121D01*
X01113Y00842D01*
Y00846D02*
X01109Y00854D01*
X01117D01*
X01113Y00846D01*
X02712Y0087D02*
X02704Y00886D01*
X0272D01*
X02712Y0087D01*
Y00874D02*
X02708Y00882D01*
X02716D01*
X02712Y00874D01*
X01159Y00872D02*
X01151Y00888D01*
X01167D01*
X01159Y00872D01*
Y00876D02*
X01155Y00884D01*
X01163D01*
X01159Y00876D01*
X0088Y01108D02*
X00872Y01124D01*
X00888D01*
X0088Y01108D01*
Y01112D02*
X00876Y0112D01*
X00884D01*
X0088Y01112D01*
X01084Y009D02*
X01076Y00916D01*
X01092D01*
X01084Y009D01*
Y00904D02*
X0108Y00912D01*
X01088D01*
X01084Y00904D01*
X03069Y01972D02*
X03061Y01988D01*
X03077D01*
X03069Y01972D01*
Y01976D02*
X03065Y01984D01*
X03073D01*
X03069Y01976D01*
X02997Y01946D02*
X02989Y01962D01*
X03005D01*
X02997Y01946D01*
Y0195D02*
X02993Y01958D01*
X03001D01*
X02997Y0195D01*
X03402Y02829D02*
X03394Y02845D01*
X0341D01*
X03402Y02829D01*
Y02833D02*
X03398Y02841D01*
X03406D01*
X03402Y02833D01*
X0291Y03115D02*
X02902Y03131D01*
X02918D01*
X0291Y03115D01*
Y03119D02*
X02906Y03127D01*
X02914D01*
X0291Y03119D01*
X04511Y03277D02*
X04503Y03293D01*
X04519D01*
X04511Y03277D01*
Y03281D02*
X04507Y03289D01*
X04515D01*
X04511Y03281D01*
X04423Y03278D02*
X04415Y03294D01*
X04431D01*
X04423Y03278D01*
Y03282D02*
X04419Y0329D01*
X04427D01*
X04423Y03282D01*
X04428Y03333D02*
X0442Y03349D01*
X04436D01*
X04428Y03333D01*
Y03337D02*
X04424Y03345D01*
X04432D01*
X04428Y03337D01*
X04076Y03205D02*
X04068Y03221D01*
X04084D01*
X04076Y03205D01*
Y03209D02*
X04072Y03217D01*
X0408D01*
X04076Y03209D01*
X04109Y033271D02*
X04101Y033431D01*
X04117D01*
X04109Y033271D01*
Y033311D02*
X04105Y033391D01*
X04113D01*
X04109Y033311D01*
X04076Y033529D02*
X04068Y033689D01*
X04084D01*
X04076Y033529D01*
Y033569D02*
X04072Y033649D01*
X0408D01*
X04076Y033569D01*
X04173Y03286D02*
X04165Y03302D01*
X04181D01*
X04173Y03286D01*
Y0329D02*
X04169Y03298D01*
X04177D01*
X04173Y0329D01*
X043515Y030845D02*
X043435Y031005D01*
X043595D01*
X043515Y030845D01*
Y030885D02*
X043475Y030965D01*
X043555D01*
X043515Y030885D01*
X043753Y030445D02*
X043673Y030605D01*
X043833D01*
X043753Y030445D01*
Y030485D02*
X043713Y030565D01*
X043793D01*
X043753Y030485D01*
X04274Y03362D02*
X04266Y03378D01*
X04282D01*
X04274Y03362D01*
Y03366D02*
X0427Y03374D01*
X04278D01*
X04274Y03366D01*
X04244Y03374D02*
X04236Y0339D01*
X04252D01*
X04244Y03374D01*
Y03378D02*
X0424Y03386D01*
X04248D01*
X04244Y03378D01*
X042951Y033286D02*
X042871Y033446D01*
X043031D01*
X042951Y033286D01*
Y033326D02*
X042911Y033406D01*
X042991D01*
X042951Y033326D01*
X044739Y030473D02*
X044659Y030633D01*
X044819D01*
X044739Y030473D01*
Y030513D02*
X044699Y030593D01*
X044779D01*
X044739Y030513D01*
X04475Y02877D02*
X04467Y02893D01*
X04483D01*
X04475Y02877D01*
Y02881D02*
X04471Y02889D01*
X04479D01*
X04475Y02881D01*
X04396Y03244D02*
X04388Y0326D01*
X04404D01*
X04396Y03244D01*
Y03248D02*
X04392Y03256D01*
X044D01*
X04396Y03248D01*
X03938Y03263D02*
X0393Y03279D01*
X03946D01*
X03938Y03263D01*
Y03267D02*
X03934Y03275D01*
X03942D01*
X03938Y03267D01*
X03886Y03279D02*
X03878Y03295D01*
X03894D01*
X03886Y03279D01*
Y03283D02*
X03882Y03291D01*
X0389D01*
X03886Y03283D01*
X03874Y0333D02*
X03866Y03346D01*
X03882D01*
X03874Y0333D01*
Y03334D02*
X0387Y03342D01*
X03878D01*
X03874Y03334D01*
X03859Y03299D02*
X03851Y03315D01*
X03867D01*
X03859Y03299D01*
Y03303D02*
X03855Y03311D01*
X03863D01*
X03859Y03303D01*
X03641Y03382D02*
X03633Y03398D01*
X03649D01*
X03641Y03382D01*
Y03386D02*
X03637Y03394D01*
X03645D01*
X03641Y03386D01*
X03545Y03382D02*
X03537Y03398D01*
X03553D01*
X03545Y03382D01*
Y03386D02*
X03541Y03394D01*
X03549D01*
X03545Y03386D01*
X038102Y033278D02*
X038022Y033438D01*
X038182D01*
X038102Y033278D01*
Y033318D02*
X038062Y033398D01*
X038142D01*
X038102Y033318D01*
X03788Y03373D02*
X0378Y03389D01*
X03796D01*
X03788Y03373D01*
Y03377D02*
X03784Y03385D01*
X03792D01*
X03788Y03377D01*
X038378Y032078D02*
X038298Y032238D01*
X038458D01*
X038378Y032078D01*
Y032118D02*
X038338Y032198D01*
X038418D01*
X038378Y032118D01*
X03842Y03402D02*
X03834Y03418D01*
X0385D01*
X03842Y03402D01*
Y03406D02*
X03838Y03414D01*
X03846D01*
X03842Y03406D01*
X03895Y03495D02*
X03887Y03511D01*
X03903D01*
X03895Y03495D01*
Y03499D02*
X03891Y03507D01*
X03899D01*
X03895Y03499D01*
X03154Y034278D02*
X03146Y034438D01*
X03162D01*
X03154Y034278D01*
Y034318D02*
X0315Y034398D01*
X03158D01*
X03154Y034318D01*
X02609Y03399D02*
X02601Y03415D01*
X02617D01*
X02609Y03399D01*
Y03403D02*
X02605Y03411D01*
X02613D01*
X02609Y03403D01*
X02366Y03445D02*
X02358Y03461D01*
X02374D01*
X02366Y03445D01*
Y03449D02*
X02362Y03457D01*
X0237D01*
X02366Y03449D01*
X03135Y01875D02*
X03127Y01891D01*
X03143D01*
X03135Y01875D01*
Y01879D02*
X03131Y01887D01*
X03139D01*
X03135Y01879D01*
X03102Y01871D02*
X03094Y01887D01*
X0311D01*
X03102Y01871D01*
Y01875D02*
X03098Y01883D01*
X03106D01*
X03102Y01875D01*
X03122Y01923D02*
X03114Y01939D01*
X0313D01*
X03122Y01923D01*
Y01927D02*
X03118Y01935D01*
X03126D01*
X03122Y01927D01*
X03761Y02455D02*
X03753Y02471D01*
X03769D01*
X03761Y02455D01*
Y02459D02*
X03757Y02467D01*
X03765D01*
X03761Y02459D01*
X0372Y02481D02*
X03712Y02497D01*
X03728D01*
X0372Y02481D01*
Y02485D02*
X03716Y02493D01*
X03724D01*
X0372Y02485D01*
X03779Y02702D02*
X03771Y02718D01*
X03787D01*
X03779Y02702D01*
Y02706D02*
X03775Y02714D01*
X03783D01*
X03779Y02706D01*
X03731Y03109D02*
X03723Y03125D01*
X03739D01*
X03731Y03109D01*
Y03113D02*
X03727Y03121D01*
X03735D01*
X03731Y03113D01*
X03809Y03109D02*
X03801Y03125D01*
X03817D01*
X03809Y03109D01*
Y03113D02*
X03805Y03121D01*
X03813D01*
X03809Y03113D01*
X03756Y02957D02*
X03748Y02973D01*
X03764D01*
X03756Y02957D01*
Y02961D02*
X03752Y02969D01*
X0376D01*
X03756Y02961D01*
X035302Y02976D02*
X035222Y02992D01*
X035382D01*
X035302Y02976D01*
Y0298D02*
X035262Y02988D01*
X035342D01*
X035302Y0298D01*
X03974Y03237D02*
X03966Y03253D01*
X03982D01*
X03974Y03237D01*
Y03241D02*
X0397Y03249D01*
X03978D01*
X03974Y03241D01*
X04337Y03312D02*
X04329Y03328D01*
X04345D01*
X04337Y03312D01*
Y03316D02*
X04333Y03324D01*
X04341D01*
X04337Y03316D01*
X04532Y03312D02*
X04524Y03328D01*
X0454D01*
X04532Y03312D01*
Y03316D02*
X04528Y03324D01*
X04536D01*
X04532Y03316D01*
X04594Y02958D02*
X04586Y02974D01*
X04602D01*
X04594Y02958D01*
Y02962D02*
X0459Y0297D01*
X04598D01*
X04594Y02962D01*
X04548Y0298D02*
X0454Y02996D01*
X04556D01*
X04548Y0298D01*
Y02984D02*
X04544Y02992D01*
X04552D01*
X04548Y02984D01*
X046039Y02443D02*
X045959Y02459D01*
X046119D01*
X046039Y02443D01*
Y02447D02*
X045999Y02455D01*
X046079D01*
X046039Y02447D01*
X044044Y023596D02*
X043964Y023756D01*
X044124D01*
X044044Y023596D01*
Y023636D02*
X044004Y023716D01*
X044084D01*
X044044Y023636D01*
X04327Y023594D02*
X04319Y023754D01*
X04335D01*
X04327Y023594D01*
Y023634D02*
X04323Y023714D01*
X04331D01*
X04327Y023634D01*
X044249Y02443D02*
X044169Y02459D01*
X044329D01*
X044249Y02443D01*
Y02447D02*
X044209Y02455D01*
X044289D01*
X044249Y02447D01*
X02903Y0218D02*
X02895Y02196D01*
X02911D01*
X02903Y0218D01*
Y02184D02*
X02899Y02192D01*
X02907D01*
X02903Y02184D01*
X03211Y02154D02*
X03203Y0217D01*
X03219D01*
X03211Y02154D01*
Y02158D02*
X03207Y02166D01*
X03215D01*
X03211Y02158D01*
X03194Y02105D02*
X03186Y02121D01*
X03202D01*
X03194Y02105D01*
Y02109D02*
X0319Y02117D01*
X03198D01*
X03194Y02109D01*
X03196Y02078D02*
X03188Y02094D01*
X03204D01*
X03196Y02078D01*
Y02082D02*
X03192Y0209D01*
X032D01*
X03196Y02082D01*
X03931Y02099D02*
X03923Y02115D01*
X03939D01*
X03931Y02099D01*
Y02103D02*
X03927Y02111D01*
X03935D01*
X03931Y02103D01*
X03532Y0221D02*
X03524Y02226D01*
X0354D01*
X03532Y0221D01*
Y02214D02*
X03528Y02222D01*
X03536D01*
X03532Y02214D01*
X03262Y022068D02*
X03254Y022228D01*
X0327D01*
X03262Y022068D01*
Y022108D02*
X03258Y022188D01*
X03266D01*
X03262Y022108D01*
X03238Y02124D02*
X0323Y0214D01*
X03246D01*
X03238Y02124D01*
Y02128D02*
X03234Y02136D01*
X03242D01*
X03238Y02128D01*
X02728Y02596D02*
X0272Y02612D01*
X02736D01*
X02728Y02596D01*
Y026D02*
X02724Y02608D01*
X02732D01*
X02728Y026D01*
X03274Y02127D02*
X03266Y02143D01*
X03282D01*
X03274Y02127D01*
Y02131D02*
X0327Y02139D01*
X03278D01*
X03274Y02131D01*
X03536Y01717D02*
X03528Y01733D01*
X03544D01*
X03536Y01717D01*
Y01721D02*
X03532Y01729D01*
X0354D01*
X03536Y01721D01*
X03646Y01501D02*
X03638Y01517D01*
X03654D01*
X03646Y01501D01*
Y01505D02*
X03642Y01513D01*
X0365D01*
X03646Y01505D01*
X03439Y01476D02*
X03431Y01492D01*
X03447D01*
X03439Y01476D01*
Y0148D02*
X03435Y01488D01*
X03443D01*
X03439Y0148D01*
X03417Y01522D02*
X03409Y01538D01*
X03425D01*
X03417Y01522D01*
Y01526D02*
X03413Y01534D01*
X03421D01*
X03417Y01526D01*
X03349Y0149D02*
X03341Y01506D01*
X03357D01*
X03349Y0149D01*
Y01494D02*
X03345Y01502D01*
X03353D01*
X03349Y01494D01*
X03122Y01556D02*
X03114Y01572D01*
X0313D01*
X03122Y01556D01*
Y0156D02*
X03118Y01568D01*
X03126D01*
X03122Y0156D01*
X03632Y01402D02*
X03624Y01418D01*
X0364D01*
X03632Y01402D01*
Y01406D02*
X03628Y01414D01*
X03636D01*
X03632Y01406D01*
X03886Y01415D02*
X03878Y01431D01*
X03894D01*
X03886Y01415D01*
Y01419D02*
X03882Y01427D01*
X0389D01*
X03886Y01419D01*
X03895Y01383D02*
X03887Y01399D01*
X03903D01*
X03895Y01383D01*
Y01387D02*
X03891Y01395D01*
X03899D01*
X03895Y01387D01*
X03951Y01269D02*
X03943Y01285D01*
X03959D01*
X03951Y01269D01*
Y01273D02*
X03947Y01281D01*
X03955D01*
X03951Y01273D01*
X03895Y02058D02*
X03887Y02074D01*
X03903D01*
X03895Y02058D01*
Y02062D02*
X03891Y0207D01*
X03899D01*
X03895Y02062D01*
X03971Y02257D02*
X03963Y02273D01*
X03979D01*
X03971Y02257D01*
Y02261D02*
X03967Y02269D01*
X03975D01*
X03971Y02261D01*
X0399Y02554D02*
X03982Y0257D01*
X03998D01*
X0399Y02554D01*
Y02558D02*
X03986Y02566D01*
X03994D01*
X0399Y02558D01*
X031262Y01392D02*
X031182Y01408D01*
X031342D01*
X031262Y01392D01*
Y01396D02*
X031222Y01404D01*
X031302D01*
X031262Y01396D01*
X03917Y01489D02*
X03909Y01505D01*
X03925D01*
X03917Y01489D01*
Y01493D02*
X03913Y01501D01*
X03921D01*
X03917Y01493D01*
X0377Y01476D02*
X03762Y01492D01*
X03778D01*
X0377Y01476D01*
Y0148D02*
X03766Y01488D01*
X03774D01*
X0377Y0148D01*
X04085Y01471D02*
X04077Y01487D01*
X04093D01*
X04085Y01471D01*
Y01475D02*
X04081Y01483D01*
X04089D01*
X04085Y01475D01*
X04088Y01345D02*
X0408Y01361D01*
X04096D01*
X04088Y01345D01*
Y01349D02*
X04084Y01357D01*
X04092D01*
X04088Y01349D01*
X04397Y01342D02*
X04389Y01358D01*
X04405D01*
X04397Y01342D01*
Y01346D02*
X04393Y01354D01*
X04401D01*
X04397Y01346D01*
X04452Y01341D02*
X04444Y01357D01*
X0446D01*
X04452Y01341D01*
Y01345D02*
X04448Y01353D01*
X04456D01*
X04452Y01345D01*
X04646Y01341D02*
X04638Y01357D01*
X04654D01*
X04646Y01341D01*
Y01345D02*
X04642Y01353D01*
X0465D01*
X04646Y01345D01*
X03447Y03398D02*
X03439Y03414D01*
X03455D01*
X03447Y03398D01*
Y03402D02*
X03443Y0341D01*
X03451D01*
X03447Y03402D01*
X03359Y03415D02*
X03351Y03431D01*
X03367D01*
X03359Y03415D01*
Y03419D02*
X03355Y03427D01*
X03363D01*
X03359Y03419D01*
X04135Y03405D02*
X04127Y03421D01*
X04143D01*
X04135Y03405D01*
Y03409D02*
X04131Y03417D01*
X04139D01*
X04135Y03409D01*
X0398Y03429D02*
X03972Y03445D01*
X03988D01*
X0398Y03429D01*
Y03433D02*
X03976Y03441D01*
X03984D01*
X0398Y03433D01*
X03974Y03038D02*
X03966Y03054D01*
X03982D01*
X03974Y03038D01*
Y03042D02*
X0397Y0305D01*
X03978D01*
X03974Y03042D01*
X04014Y02872D02*
X04006Y02888D01*
X04022D01*
X04014Y02872D01*
Y02876D02*
X0401Y02884D01*
X04018D01*
X04014Y02876D01*
X03974D02*
X03966Y02892D01*
X03982D01*
X03974Y02876D01*
Y0288D02*
X0397Y02888D01*
X03978D01*
X03974Y0288D01*
X03987Y02642D02*
X03979Y02658D01*
X03995D01*
X03987Y02642D01*
Y02646D02*
X03983Y02654D01*
X03991D01*
X03987Y02646D01*
X04032Y025571D02*
X04024Y025731D01*
X0404D01*
X04032Y025571D01*
Y025611D02*
X04028Y025691D01*
X04036D01*
X04032Y025611D01*
X0201Y03275D02*
X02002Y03291D01*
X02018D01*
X0201Y03275D01*
Y03279D02*
X02006Y03287D01*
X02014D01*
X0201Y03279D01*
X01995Y03324D02*
X01987Y0334D01*
X02003D01*
X01995Y03324D01*
Y03328D02*
X01991Y03336D01*
X01999D01*
X01995Y03328D01*
X02024Y03181D02*
X02016Y03197D01*
X02032D01*
X02024Y03181D01*
Y03185D02*
X0202Y03193D01*
X02028D01*
X02024Y03185D01*
X01977Y02975D02*
X01969Y02991D01*
X01985D01*
X01977Y02975D01*
Y02979D02*
X01973Y02987D01*
X01981D01*
X01977Y02979D01*
X01966Y02844D02*
X01958Y0286D01*
X01974D01*
X01966Y02844D01*
Y02848D02*
X01962Y02856D01*
X0197D01*
X01966Y02848D01*
X02018Y02847D02*
X0201Y02863D01*
X02026D01*
X02018Y02847D01*
Y02851D02*
X02014Y02859D01*
X02022D01*
X02018Y02851D01*
X01975Y028D02*
X01967Y02816D01*
X01983D01*
X01975Y028D01*
Y02804D02*
X01971Y02812D01*
X01979D01*
X01975Y02804D01*
X0198Y02651D02*
X01972Y02667D01*
X01988D01*
X0198Y02651D01*
Y02655D02*
X01976Y02663D01*
X01984D01*
X0198Y02655D01*
X01832Y02592D02*
X01824Y02608D01*
X0184D01*
X01832Y02592D01*
Y02596D02*
X01828Y02604D01*
X01836D01*
X01832Y02596D01*
X04333Y025571D02*
X04325Y025731D01*
X04341D01*
X04333Y025571D01*
Y025611D02*
X04329Y025691D01*
X04337D01*
X04333Y025611D01*
X042246Y02522D02*
X042166Y02538D01*
X042326D01*
X042246Y02522D01*
Y02526D02*
X042206Y02534D01*
X042286D01*
X042246Y02526D01*
X043848Y025571D02*
X043768Y025731D01*
X043928D01*
X043848Y025571D01*
Y025611D02*
X043808Y025691D01*
X043888D01*
X043848Y025611D01*
X02479Y02025D02*
X02471Y02041D01*
X02487D01*
X02479Y02025D01*
Y02029D02*
X02475Y02037D01*
X02483D01*
X02479Y02029D01*
X02443Y02049D02*
X02435Y02065D01*
X02451D01*
X02443Y02049D01*
Y02053D02*
X02439Y02061D01*
X02447D01*
X02443Y02053D01*
X02416Y02073D02*
X02408Y02089D01*
X02424D01*
X02416Y02073D01*
Y02077D02*
X02412Y02085D01*
X0242D01*
X02416Y02077D01*
X02322Y02059D02*
X02314Y02075D01*
X0233D01*
X02322Y02059D01*
Y02063D02*
X02318Y02071D01*
X02326D01*
X02322Y02063D01*
X02613Y020932D02*
X02605Y021092D01*
X02621D01*
X02613Y020932D01*
Y020972D02*
X02609Y021052D01*
X02617D01*
X02613Y020972D01*
X02611Y01985D02*
X02603Y02001D01*
X02619D01*
X02611Y01985D01*
Y01989D02*
X02607Y01997D01*
X02615D01*
X02611Y01989D01*
X02415Y02137D02*
X02407Y02153D01*
X02423D01*
X02415Y02137D01*
Y02141D02*
X02411Y02149D01*
X02419D01*
X02415Y02141D01*
X022335Y021445D02*
X022255Y021605D01*
X022415D01*
X022335Y021445D01*
Y021485D02*
X022295Y021565D01*
X022375D01*
X022335Y021485D01*
X02632Y0222D02*
X02624Y02236D01*
X0264D01*
X02632Y0222D01*
Y02224D02*
X02628Y02232D01*
X02636D01*
X02632Y02224D01*
X0281Y02284D02*
X02802Y023D01*
X02818D01*
X0281Y02284D01*
Y02288D02*
X02806Y02296D01*
X02814D01*
X0281Y02288D01*
X03057Y02282D02*
X03049Y02298D01*
X03065D01*
X03057Y02282D01*
Y02286D02*
X03053Y02294D01*
X03061D01*
X03057Y02286D01*
X0336Y02325D02*
X03352Y02341D01*
X03368D01*
X0336Y02325D01*
Y02329D02*
X03356Y02337D01*
X03364D01*
X0336Y02329D01*
X03411Y02289D02*
X03403Y02305D01*
X03419D01*
X03411Y02289D01*
Y02293D02*
X03407Y02301D01*
X03415D01*
X03411Y02293D01*
X0329Y01844D02*
X03282Y0186D01*
X03298D01*
X0329Y01844D01*
Y01848D02*
X03286Y01856D01*
X03294D01*
X0329Y01848D01*
X03335Y01844D02*
X03327Y0186D01*
X03343D01*
X03335Y01844D01*
Y01848D02*
X03331Y01856D01*
X03339D01*
X03335Y01848D01*
X0339Y01945D02*
X03382Y01961D01*
X03398D01*
X0339Y01945D01*
Y01949D02*
X03386Y01957D01*
X03394D01*
X0339Y01949D01*
X03388Y01913D02*
X0338Y01929D01*
X03396D01*
X03388Y01913D01*
Y01917D02*
X03384Y01925D01*
X03392D01*
X03388Y01917D01*
X03356Y01869D02*
X03348Y01885D01*
X03364D01*
X03356Y01869D01*
Y01873D02*
X03352Y01881D01*
X0336D01*
X03356Y01873D01*
X03399Y01823D02*
X03391Y01839D01*
X03407D01*
X03399Y01823D01*
Y01827D02*
X03395Y01835D01*
X03403D01*
X03399Y01827D01*
X03442Y01849D02*
X03434Y01865D01*
X0345D01*
X03442Y01849D01*
Y01853D02*
X03438Y01861D01*
X03446D01*
X03442Y01853D01*
X02621Y01889D02*
X02613Y01905D01*
X02629D01*
X02621Y01889D01*
Y01893D02*
X02617Y01901D01*
X02625D01*
X02621Y01893D01*
X03028Y01916D02*
X0302Y01932D01*
X03036D01*
X03028Y01916D01*
Y0192D02*
X03024Y01928D01*
X03032D01*
X03028Y0192D01*
X02594Y01922D02*
X02586Y01938D01*
X02602D01*
X02594Y01922D01*
Y01926D02*
X0259Y01934D01*
X02598D01*
X02594Y01926D01*
X02633Y01937D02*
X02625Y01953D01*
X02641D01*
X02633Y01937D01*
Y01941D02*
X02629Y01949D01*
X02637D01*
X02633Y01941D01*
X025922Y01954D02*
X025842Y0197D01*
X026002D01*
X025922Y01954D01*
Y01958D02*
X025882Y01966D01*
X025962D01*
X025922Y01958D01*
X03082Y0146D02*
X03074Y01476D01*
X0309D01*
X03082Y0146D01*
Y01464D02*
X03078Y01472D01*
X03086D01*
X03082Y01464D01*
X03087Y02202D02*
X03079Y02218D01*
X03095D01*
X03087Y02202D01*
Y02206D02*
X03083Y02214D01*
X03091D01*
X03087Y02206D01*
X02384Y02077D02*
X02376Y02093D01*
X02392D01*
X02384Y02077D01*
Y02081D02*
X0238Y02089D01*
X02388D01*
X02384Y02081D01*
X02307Y02381D02*
X02299Y02397D01*
X02315D01*
X02307Y02381D01*
Y02385D02*
X02303Y02393D01*
X02311D01*
X02307Y02385D01*
X02345Y02434D02*
X02337Y0245D01*
X02353D01*
X02345Y02434D01*
Y02438D02*
X02341Y02446D01*
X02349D01*
X02345Y02438D01*
X0225Y02402D02*
X02242Y02418D01*
X02258D01*
X0225Y02402D01*
Y02406D02*
X02246Y02414D01*
X02254D01*
X0225Y02406D01*
X02447Y02379D02*
X02439Y02395D01*
X02455D01*
X02447Y02379D01*
Y02383D02*
X02443Y02391D01*
X02451D01*
X02447Y02383D01*
X02314Y027485D02*
X02306Y027645D01*
X02322D01*
X02314Y027485D01*
Y027525D02*
X0231Y027605D01*
X02318D01*
X02314Y027525D01*
X02322Y03088D02*
X02314Y03104D01*
X0233D01*
X02322Y03088D01*
Y03092D02*
X02318Y031D01*
X02326D01*
X02322Y03092D01*
X02475Y03112D02*
X02467Y03128D01*
X02483D01*
X02475Y03112D01*
Y03116D02*
X02471Y03124D01*
X02479D01*
X02475Y03116D01*
X02551Y031145D02*
X02543Y031305D01*
X02559D01*
X02551Y031145D01*
Y031185D02*
X02547Y031265D01*
X02555D01*
X02551Y031185D01*
X02647Y02755D02*
X02639Y02771D01*
X02655D01*
X02647Y02755D01*
Y02759D02*
X02643Y02767D01*
X02651D01*
X02647Y02759D01*
X02257Y03088D02*
X02249Y03104D01*
X02265D01*
X02257Y03088D01*
Y03092D02*
X02253Y031D01*
X02261D01*
X02257Y03092D01*
X02918Y02755D02*
X0291Y02771D01*
X02926D01*
X02918Y02755D01*
Y02759D02*
X02914Y02767D01*
X02922D01*
X02918Y02759D01*
X02809Y02607D02*
X02801Y02623D01*
X02817D01*
X02809Y02607D01*
Y02611D02*
X02805Y02619D01*
X02813D01*
X02809Y02611D01*
X0275Y02285D02*
X02742Y02301D01*
X02758D01*
X0275Y02285D01*
Y02289D02*
X02746Y02297D01*
X02754D01*
X0275Y02289D01*
X027105Y0234D02*
X027025Y02356D01*
X027185D01*
X027105Y0234D01*
Y02344D02*
X027065Y02352D01*
X027145D01*
X027105Y02344D01*
X0265Y02422D02*
X02642Y02438D01*
X02658D01*
X0265Y02422D01*
Y02426D02*
X02646Y02434D01*
X02654D01*
X0265Y02426D01*
X026185Y017615D02*
X026105Y017775D01*
X026265D01*
X026185Y017615D01*
Y017655D02*
X026145Y017735D01*
X026225D01*
X026185Y017655D01*
X03426Y01684D02*
X03418Y017D01*
X03434D01*
X03426Y01684D01*
Y01688D02*
X03422Y01696D01*
X0343D01*
X03426Y01688D01*
X0335Y0169D02*
X03342Y01706D01*
X03358D01*
X0335Y0169D01*
Y01694D02*
X03346Y01702D01*
X03354D01*
X0335Y01694D01*
X03154Y022372D02*
X03146Y022532D01*
X03162D01*
X03154Y022372D01*
Y022412D02*
X0315Y022492D01*
X03158D01*
X03154Y022412D01*
X02286Y02708D02*
X02278Y02724D01*
X02294D01*
X02286Y02708D01*
Y02712D02*
X02282Y0272D01*
X0229D01*
X02286Y02712D01*
X02295Y02471D02*
X02287Y02487D01*
X02303D01*
X02295Y02471D01*
Y02475D02*
X02291Y02483D01*
X02299D01*
X02295Y02475D01*
X02319Y025435D02*
X02311Y025595D01*
X02327D01*
X02319Y025435D01*
Y025475D02*
X02315Y025555D01*
X02323D01*
X02319Y025475D01*
X02547Y01977D02*
X02539Y01993D01*
X02555D01*
X02547Y01977D01*
Y01981D02*
X02543Y01989D01*
X02551D01*
X02547Y01981D01*
X02551Y01886D02*
X02543Y01902D01*
X02559D01*
X02551Y01886D01*
Y0189D02*
X02547Y01898D01*
X02555D01*
X02551Y0189D01*
X02307Y01758D02*
X02299Y01774D01*
X02315D01*
X02307Y01758D01*
Y01762D02*
X02303Y0177D01*
X02311D01*
X02307Y01762D01*
X02387Y01785D02*
X02379Y01801D01*
X02395D01*
X02387Y01785D01*
Y01789D02*
X02383Y01797D01*
X02391D01*
X02387Y01789D01*
X02204Y02637D02*
X02196Y02653D01*
X02212D01*
X02204Y02637D01*
Y02641D02*
X022Y02649D01*
X02208D01*
X02204Y02641D01*
X02258Y02657D02*
X0225Y02673D01*
X02266D01*
X02258Y02657D01*
Y02661D02*
X02254Y02669D01*
X02262D01*
X02258Y02661D01*
X02292Y02988D02*
X02284Y03004D01*
X023D01*
X02292Y02988D01*
Y02992D02*
X02288Y03D01*
X02296D01*
X02292Y02992D01*
X023Y02956D02*
X02292Y02972D01*
X02308D01*
X023Y02956D01*
Y0296D02*
X02296Y02968D01*
X02304D01*
X023Y0296D01*
X02235Y02613D02*
X02227Y02629D01*
X02243D01*
X02235Y02613D01*
Y02617D02*
X02231Y02625D01*
X02239D01*
X02235Y02617D01*
X02194Y02709D02*
X02186Y02725D01*
X02202D01*
X02194Y02709D01*
Y02713D02*
X0219Y02721D01*
X02198D01*
X02194Y02713D01*
X02376Y02022D02*
X02368Y02038D01*
X02384D01*
X02376Y02022D01*
Y02026D02*
X02372Y02034D01*
X0238D01*
X02376Y02026D01*
X02153Y0243D02*
X02145Y02446D01*
X02161D01*
X02153Y0243D01*
Y02434D02*
X02149Y02442D01*
X02157D01*
X02153Y02434D01*
X02157Y02476D02*
X02149Y02492D01*
X02165D01*
X02157Y02476D01*
Y0248D02*
X02153Y02488D01*
X02161D01*
X02157Y0248D01*
X02094Y02588D02*
X02086Y02604D01*
X02102D01*
X02094Y02588D01*
Y02592D02*
X0209Y026D01*
X02098D01*
X02094Y02592D01*
X02101Y02525D02*
X02093Y02541D01*
X02109D01*
X02101Y02525D01*
Y02529D02*
X02097Y02537D01*
X02105D01*
X02101Y02529D01*
X03419Y01582D02*
X03411Y01598D01*
X03427D01*
X03419Y01582D01*
Y01586D02*
X03415Y01594D01*
X03423D01*
X03419Y01586D01*
X03341Y01526D02*
X03333Y01542D01*
X03349D01*
X03341Y01526D01*
Y0153D02*
X03337Y01538D01*
X03345D01*
X03341Y0153D01*
X0353Y01579D02*
X03522Y01595D01*
X03538D01*
X0353Y01579D01*
Y01583D02*
X03526Y01591D01*
X03534D01*
X0353Y01583D01*
X03161Y02337D02*
X03153Y02353D01*
X03169D01*
X03161Y02337D01*
Y02341D02*
X03157Y02349D01*
X03165D01*
X03161Y02341D01*
X026291Y01373D02*
X026211Y01389D01*
X026371D01*
X026291Y01373D01*
Y01377D02*
X026251Y01385D01*
X026331D01*
X026291Y01377D01*
X02664Y01056D02*
X02656Y01072D01*
X02672D01*
X02664Y01056D01*
Y0106D02*
X0266Y01068D01*
X02668D01*
X02664Y0106D01*
X033133Y009003D02*
X033053Y009163D01*
X033213D01*
X033133Y009003D01*
Y009043D02*
X033093Y009123D01*
X033173D01*
X033133Y009043D01*
X02883Y00846D02*
X02875Y00862D01*
X02891D01*
X02883Y00846D01*
Y0085D02*
X02879Y00858D01*
X02887D01*
X02883Y0085D01*
X02981Y01513D02*
X02973Y01529D01*
X02989D01*
X02981Y01513D01*
Y01517D02*
X02977Y01525D01*
X02985D01*
X02981Y01517D01*
X02194Y02793D02*
X02186Y02809D01*
X02202D01*
X02194Y02793D01*
Y02797D02*
X0219Y02805D01*
X02198D01*
X02194Y02797D01*
X04602Y03311D02*
X04594Y03327D01*
X0461D01*
X04602Y03311D01*
Y03315D02*
X04598Y03323D01*
X04606D01*
X04602Y03315D01*
X03556Y01891D02*
X03548Y01907D01*
X03564D01*
X03556Y01891D01*
Y01895D02*
X03552Y01903D01*
X0356D01*
X03556Y01895D01*
X03629Y01886D02*
X03621Y01902D01*
X03637D01*
X03629Y01886D01*
Y0189D02*
X03625Y01898D01*
X03633D01*
X03629Y0189D01*
X037615Y019415D02*
X037535Y019575D01*
X037695D01*
X037615Y019415D01*
Y019455D02*
X037575Y019535D01*
X037655D01*
X037615Y019455D01*
X04621Y01964D02*
X04613Y0198D01*
X04629D01*
X04621Y01964D01*
Y01968D02*
X04617Y01976D01*
X04625D01*
X04621Y01968D01*
X03996Y00933D02*
X03988Y00949D01*
X04004D01*
X03996Y00933D01*
Y00937D02*
X03992Y00945D01*
X04D01*
X03996Y00937D01*
X03982Y012235D02*
X03974Y012395D01*
X0399D01*
X03982Y012235D01*
Y012275D02*
X03978Y012355D01*
X03986D01*
X03982Y012275D01*
X04012Y02904D02*
X04004Y0292D01*
X0402D01*
X04012Y02904D01*
Y02908D02*
X04008Y02916D01*
X04016D01*
X04012Y02908D01*
X0408Y03037D02*
X04072Y03053D01*
X04088D01*
X0408Y03037D01*
Y03041D02*
X04076Y03049D01*
X04084D01*
X0408Y03041D01*
X04133Y031469D02*
X04125Y031629D01*
X04141D01*
X04133Y031469D01*
Y031509D02*
X04129Y031589D01*
X04137D01*
X04133Y031509D01*
X04496Y02939D02*
X04488Y02955D01*
X04504D01*
X04496Y02939D01*
Y02943D02*
X04492Y02951D01*
X045D01*
X04496Y02943D01*
X04314Y0292D02*
X04306Y02936D01*
X04322D01*
X04314Y0292D01*
Y02924D02*
X0431Y02932D01*
X04318D01*
X04314Y02924D01*
X04351Y02941D02*
X04343Y02957D01*
X04359D01*
X04351Y02941D01*
Y02945D02*
X04347Y02953D01*
X04355D01*
X04351Y02945D01*
X04348Y02983D02*
X0434Y02999D01*
X04356D01*
X04348Y02983D01*
Y02987D02*
X04344Y02995D01*
X04352D01*
X04348Y02987D01*
X04311Y03017D02*
X04303Y03033D01*
X04319D01*
X04311Y03017D01*
Y03021D02*
X04307Y03029D01*
X04315D01*
X04311Y03021D01*
X04519Y02908D02*
X04511Y02924D01*
X04527D01*
X04519Y02908D01*
Y02912D02*
X04515Y0292D01*
X04523D01*
X04519Y02912D01*
X04516Y02873D02*
X04508Y02889D01*
X04524D01*
X04516Y02873D01*
Y02877D02*
X04512Y02885D01*
X0452D01*
X04516Y02877D01*
X04156Y02252D02*
X04148Y02268D01*
X04164D01*
X04156Y02252D01*
Y02256D02*
X04152Y02264D01*
X0416D01*
X04156Y02256D01*
Y02665D02*
X04148Y02681D01*
X04164D01*
X04156Y02665D01*
Y02669D02*
X04152Y02677D01*
X0416D01*
X04156Y02669D01*
X04289Y02864D02*
X04281Y0288D01*
X04297D01*
X04289Y02864D01*
Y02868D02*
X04285Y02876D01*
X04293D01*
X04289Y02868D01*
X04226Y02917D02*
X04218Y02933D01*
X04234D01*
X04226Y02917D01*
Y02921D02*
X04222Y02929D01*
X0423D01*
X04226Y02921D01*
X04276Y02915D02*
X04268Y02931D01*
X04284D01*
X04276Y02915D01*
Y02919D02*
X04272Y02927D01*
X0428D01*
X04276Y02919D01*
X04156Y02872D02*
X04148Y02888D01*
X04164D01*
X04156Y02872D01*
Y02876D02*
X04152Y02884D01*
X0416D01*
X04156Y02876D01*
X04142Y02918D02*
X04134Y02934D01*
X0415D01*
X04142Y02918D01*
Y02922D02*
X04138Y0293D01*
X04146D01*
X04142Y02922D01*
X04166Y03046D02*
X04158Y03062D01*
X04174D01*
X04166Y03046D01*
Y0305D02*
X04162Y03058D01*
X0417D01*
X04166Y0305D01*
X04233Y0301D02*
X04225Y03026D01*
X04241D01*
X04233Y0301D01*
Y03014D02*
X04229Y03022D01*
X04237D01*
X04233Y03014D01*
X04277Y03011D02*
X04269Y03027D01*
X04285D01*
X04277Y03011D01*
Y03015D02*
X04273Y03023D01*
X04281D01*
X04277Y03015D01*
X04232Y03009D02*
X04224Y03025D01*
X0424D01*
X04232Y03009D01*
Y03013D02*
X04228Y03021D01*
X04236D01*
X04232Y03013D01*
X04194Y02915D02*
X04186Y02931D01*
X04202D01*
X04194Y02915D01*
Y02919D02*
X0419Y02927D01*
X04198D01*
X04194Y02919D01*
Y03011D02*
X04186Y03027D01*
X04202D01*
X04194Y03011D01*
Y03015D02*
X0419Y03023D01*
X04198D01*
X04194Y03015D01*
X04365Y02642D02*
X04357Y02658D01*
X04373D01*
X04365Y02642D01*
Y02646D02*
X04361Y02654D01*
X04369D01*
X04365Y02646D01*
X04364Y02585D02*
X04356Y02601D01*
X04372D01*
X04364Y02585D01*
Y02589D02*
X0436Y02597D01*
X04368D01*
X04364Y02589D01*
X03838Y03035D02*
X0383Y03051D01*
X03846D01*
X03838Y03035D01*
Y03039D02*
X03834Y03047D01*
X03842D01*
X03838Y03039D01*
X03706Y03034D02*
X03698Y0305D01*
X03714D01*
X03706Y03034D01*
Y03038D02*
X03702Y03046D01*
X0371D01*
X03706Y03038D01*
X0266Y01762D02*
X02652Y01778D01*
X02668D01*
X0266Y01762D01*
Y01766D02*
X02656Y01774D01*
X02664D01*
X0266Y01766D01*
X033858Y01999D02*
X033778Y02015D01*
X033938D01*
X033858Y01999D01*
Y02003D02*
X033818Y02011D01*
X033898D01*
X033858Y02003D01*
X03326Y02D02*
X03318Y02016D01*
X03334D01*
X03326Y02D01*
Y02004D02*
X03322Y02012D01*
X0333D01*
X03326Y02004D01*
X03298Y01977D02*
X0329Y01993D01*
X03306D01*
X03298Y01977D01*
Y01981D02*
X03294Y01989D01*
X03302D01*
X03298Y01981D01*
X03315Y01943D02*
X03307Y01959D01*
X03323D01*
X03315Y01943D01*
Y01947D02*
X03311Y01955D01*
X03319D01*
X03315Y01947D01*
X03585Y03248D02*
X03577Y03264D01*
X03593D01*
X03585Y03248D01*
Y03252D02*
X03581Y0326D01*
X03589D01*
X03585Y03252D01*
X03224Y018165D02*
X03216Y018325D01*
X03232D01*
X03224Y018165D01*
Y018205D02*
X0322Y018285D01*
X03228D01*
X03224Y018205D01*
X0436Y02754D02*
X04352Y0277D01*
X04368D01*
X0436Y02754D01*
Y02758D02*
X04356Y02766D01*
X04364D01*
X0436Y02758D01*
X04476Y02768D02*
X04468Y02784D01*
X04484D01*
X04476Y02768D01*
Y02772D02*
X04472Y0278D01*
X0448D01*
X04476Y02772D01*
X04265Y02757D02*
X04257Y02773D01*
X04273D01*
X04265Y02757D01*
Y02761D02*
X04261Y02769D01*
X04269D01*
X04265Y02761D01*
X04324Y01881D02*
X04316Y01897D01*
X04332D01*
X04324Y01881D01*
Y01885D02*
X0432Y01893D01*
X04328D01*
X04324Y01885D01*
X0438Y01585D02*
X04372Y01601D01*
X04388D01*
X0438Y01585D01*
Y01589D02*
X04376Y01597D01*
X04384D01*
X0438Y01589D01*
X04361Y02265D02*
X04353Y02281D01*
X04369D01*
X04361Y02265D01*
Y02269D02*
X04357Y02277D01*
X04365D01*
X04361Y02269D01*
X042215Y022568D02*
X042135Y022728D01*
X042295D01*
X042215Y022568D01*
Y022608D02*
X042175Y022688D01*
X042255D01*
X042215Y022608D01*
X04271Y02223D02*
X04263Y02239D01*
X04279D01*
X04271Y02223D01*
Y02227D02*
X04267Y02235D01*
X04275D01*
X04271Y02227D01*
X0408Y02872D02*
X04072Y02888D01*
X04088D01*
X0408Y02872D01*
Y02876D02*
X04076Y02884D01*
X04084D01*
X0408Y02876D01*
X04192Y02718D02*
X04184Y02734D01*
X042D01*
X04192Y02718D01*
Y02722D02*
X04188Y0273D01*
X04196D01*
X04192Y02722D01*
X018739Y020196D02*
X018659Y020356D01*
X018819D01*
X018739Y020196D01*
Y020236D02*
X018699Y020316D01*
X018779D01*
X018739Y020236D01*
X01768Y02121D02*
X0176Y02137D01*
X01776D01*
X01768Y02121D01*
Y02125D02*
X01764Y02133D01*
X01772D01*
X01768Y02125D01*
X04347Y02069D02*
X04339Y02085D01*
X04355D01*
X04347Y02069D01*
Y02073D02*
X04343Y02081D01*
X04351D01*
X04347Y02073D01*
X04622Y02274D02*
X04614Y0229D01*
X0463D01*
X04622Y02274D01*
Y02278D02*
X04618Y02286D01*
X04626D01*
X04622Y02278D01*
X04347Y02232D02*
X04339Y02248D01*
X04355D01*
X04347Y02232D01*
Y02236D02*
X04343Y02244D01*
X04351D01*
X04347Y02236D01*
X03464Y01263D02*
X03456Y01279D01*
X03472D01*
X03464Y01263D01*
Y01267D02*
X0346Y01275D01*
X03468D01*
X03464Y01267D01*
X037648Y015308D02*
X037568Y015468D01*
X037728D01*
X037648Y015308D01*
Y015348D02*
X037608Y015428D01*
X037688D01*
X037648Y015348D01*
X0374Y01594D02*
X03732Y0161D01*
X03748D01*
X0374Y01594D01*
Y01598D02*
X03736Y01606D01*
X03744D01*
X0374Y01598D01*
X03444Y01342D02*
X03436Y01358D01*
X03452D01*
X03444Y01342D01*
Y01346D02*
X0344Y01354D01*
X03448D01*
X03444Y01346D01*
X03856Y02587D02*
X03848Y02603D01*
X03864D01*
X03856Y02587D01*
Y02591D02*
X03852Y02599D01*
X0386D01*
X03856Y02591D01*
X03858Y02335D02*
X0385Y02351D01*
X03866D01*
X03858Y02335D01*
Y02339D02*
X03854Y02347D01*
X03862D01*
X03858Y02339D01*
X04004Y02354D02*
X03996Y0237D01*
X04012D01*
X04004Y02354D01*
Y02358D02*
X04Y02366D01*
X04008D01*
X04004Y02358D01*
X040403Y023356D02*
X040323Y023516D01*
X040483D01*
X040403Y023356D01*
Y023396D02*
X040363Y023476D01*
X040443D01*
X040403Y023396D01*
X036655Y02646D02*
X036575Y02662D01*
X036735D01*
X036655Y02646D01*
Y0265D02*
X036615Y02658D01*
X036695D01*
X036655Y0265D01*
X03619Y02617D02*
X03611Y02633D01*
X03627D01*
X03619Y02617D01*
Y02621D02*
X03615Y02629D01*
X03623D01*
X03619Y02621D01*
X04636Y02788D02*
X04628Y02804D01*
X04644D01*
X04636Y02788D01*
Y02792D02*
X04632Y028D01*
X0464D01*
X04636Y02792D01*
X04668Y02881D02*
X0466Y02897D01*
X04676D01*
X04668Y02881D01*
Y02885D02*
X04664Y02893D01*
X04672D01*
X04668Y02885D01*
X03888Y0122D02*
X0388Y01236D01*
X03896D01*
X03888Y0122D01*
Y01224D02*
X03884Y01232D01*
X03892D01*
X03888Y01224D01*
X038535Y012245D02*
X038455Y012405D01*
X038615D01*
X038535Y012245D01*
Y012285D02*
X038495Y012365D01*
X038575D01*
X038535Y012285D01*
X03923Y01096D02*
X03915Y01112D01*
X03931D01*
X03923Y01096D01*
Y011D02*
X03919Y01108D01*
X03927D01*
X03923Y011D01*
X03841Y0178D02*
X03833Y01796D01*
X03849D01*
X03841Y0178D01*
Y01784D02*
X03837Y01792D01*
X03845D01*
X03841Y01784D01*
X0362Y0156D02*
X03612Y01576D01*
X03628D01*
X0362Y0156D01*
Y01564D02*
X03616Y01572D01*
X03624D01*
X0362Y01564D01*
X03943Y00927D02*
X03935Y00943D01*
X03951D01*
X03943Y00927D01*
Y00931D02*
X03939Y00939D01*
X03947D01*
X03943Y00931D01*
X04118Y01526D02*
X0411Y01542D01*
X04126D01*
X04118Y01526D01*
Y0153D02*
X04114Y01538D01*
X04122D01*
X04118Y0153D01*
Y01067D02*
X0411Y01083D01*
X04126D01*
X04118Y01067D01*
Y01071D02*
X04114Y01079D01*
X04122D01*
X04118Y01071D01*
X03585Y010697D02*
X03577Y010857D01*
X03593D01*
X03585Y010697D01*
Y010737D02*
X03581Y010817D01*
X03589D01*
X03585Y010737D01*
X02504Y01213D02*
X02496Y01229D01*
X02512D01*
X02504Y01213D01*
Y01217D02*
X025Y01225D01*
X02508D01*
X02504Y01217D01*
X02551Y01233D02*
X02543Y01249D01*
X02559D01*
X02551Y01233D01*
Y01237D02*
X02547Y01245D01*
X02555D01*
X02551Y01237D01*
X035902Y019415D02*
X035822Y019575D01*
X035982D01*
X035902Y019415D01*
Y019455D02*
X035862Y019535D01*
X035942D01*
X035902Y019455D01*
X03441Y01759D02*
X03433Y01775D01*
X03449D01*
X03441Y01759D01*
Y01763D02*
X03437Y01771D01*
X03445D01*
X03441Y01763D01*
X03492Y01373D02*
X03484Y01389D01*
X035D01*
X03492Y01373D01*
Y01377D02*
X03488Y01385D01*
X03496D01*
X03492Y01377D01*
X03293Y01807D02*
X03285Y01823D01*
X03301D01*
X03293Y01807D01*
Y01811D02*
X03289Y01819D01*
X03297D01*
X03293Y01811D01*
X03784Y01801D02*
X03776Y01817D01*
X03792D01*
X03784Y01801D01*
Y01805D02*
X0378Y01813D01*
X03788D01*
X03784Y01805D01*
X037698Y017112D02*
X037618Y017272D01*
X037778D01*
X037698Y017112D01*
Y017152D02*
X037658Y017232D01*
X037738D01*
X037698Y017152D01*
X03828Y01718D02*
X0382Y01734D01*
X03836D01*
X03828Y01718D01*
Y01722D02*
X03824Y0173D01*
X03832D01*
X03828Y01722D01*
X04042Y01675D02*
X04034Y01691D01*
X0405D01*
X04042Y01675D01*
Y01679D02*
X04038Y01687D01*
X04046D01*
X04042Y01679D01*
X03693Y00962D02*
X03685Y00978D01*
X03701D01*
X03693Y00962D01*
Y00966D02*
X03689Y00974D01*
X03697D01*
X03693Y00966D01*
X0376Y01001D02*
X03752Y01017D01*
X03768D01*
X0376Y01001D01*
Y01005D02*
X03756Y01013D01*
X03764D01*
X0376Y01005D01*
X0367Y01032D02*
X03662Y01048D01*
X03678D01*
X0367Y01032D01*
Y01036D02*
X03666Y01044D01*
X03674D01*
X0367Y01036D01*
X03576Y01249D02*
X03568Y01265D01*
X03584D01*
X03576Y01249D01*
Y01253D02*
X03572Y01261D01*
X0358D01*
X03576Y01253D01*
X03515Y01016D02*
X03507Y01032D01*
X03523D01*
X03515Y01016D01*
Y0102D02*
X03511Y01028D01*
X03519D01*
X03515Y0102D01*
X03726Y01254D02*
X03718Y0127D01*
X03734D01*
X03726Y01254D01*
Y01258D02*
X03722Y01266D01*
X0373D01*
X03726Y01258D01*
X03791Y01342D02*
X03783Y01358D01*
X03799D01*
X03791Y01342D01*
Y01346D02*
X03787Y01354D01*
X03795D01*
X03791Y01346D01*
X03676Y01245D02*
X03668Y01261D01*
X03684D01*
X03676Y01245D01*
Y01249D02*
X03672Y01257D01*
X0368D01*
X03676Y01249D01*
X03546Y01341D02*
X03538Y01357D01*
X03554D01*
X03546Y01341D01*
Y01345D02*
X03542Y01353D01*
X0355D01*
X03546Y01345D01*
X03024Y01127D02*
X03016Y01143D01*
X03032D01*
X03024Y01127D01*
Y01131D02*
X0302Y01139D01*
X03028D01*
X03024Y01131D01*
X02956Y01184D02*
X02948Y012D01*
X02964D01*
X02956Y01184D01*
Y01188D02*
X02952Y01196D01*
X0296D01*
X02956Y01188D01*
X03922Y0201D02*
X03914Y02026D01*
X0393D01*
X03922Y0201D01*
Y02014D02*
X03918Y02022D01*
X03926D01*
X03922Y02014D01*
X03047Y02697D02*
X03039Y02713D01*
X03055D01*
X03047Y02697D01*
Y02701D02*
X03043Y02709D01*
X03051D01*
X03047Y02701D01*
X03279Y02459D02*
X03271Y02475D01*
X03287D01*
X03279Y02459D01*
Y02463D02*
X03275Y02471D01*
X03283D01*
X03279Y02463D01*
X032428Y025292D02*
X032348Y025452D01*
X032508D01*
X032428Y025292D01*
Y025332D02*
X032388Y025412D01*
X032468D01*
X032428Y025332D01*
Y02429D02*
X032348Y02445D01*
X032508D01*
X032428Y02429D01*
Y02433D02*
X032388Y02441D01*
X032468D01*
X032428Y02433D01*
X03812Y0236D02*
X03804Y02376D01*
X0382D01*
X03812Y0236D01*
Y02364D02*
X03808Y02372D01*
X03816D01*
X03812Y02364D01*
X03761Y021585D02*
X03753Y021745D01*
X03769D01*
X03761Y021585D01*
Y021625D02*
X03757Y021705D01*
X03765D01*
X03761Y021625D01*
X031262Y023382D02*
X031182Y023542D01*
X031342D01*
X031262Y023382D01*
Y023422D02*
X031222Y023502D01*
X031302D01*
X031262Y023422D01*
X03188Y02367D02*
X0318Y02383D01*
X03196D01*
X03188Y02367D01*
Y02371D02*
X03184Y02379D01*
X03192D01*
X03188Y02371D01*
X0259Y01785D02*
X02582Y01801D01*
X02598D01*
X0259Y01785D01*
Y01789D02*
X02586Y01797D01*
X02594D01*
X0259Y01789D01*
X03271Y03457D02*
X03263Y03473D01*
X03279D01*
X03271Y03457D01*
Y03461D02*
X03267Y03469D01*
X03275D01*
X03271Y03461D01*
X03806Y02671D02*
X03798Y02687D01*
X03814D01*
X03806Y02671D01*
Y02675D02*
X03802Y02683D01*
X0381D01*
X03806Y02675D01*
X03805Y02429D02*
X03797Y02445D01*
X03813D01*
X03805Y02429D01*
Y02433D02*
X03801Y02441D01*
X03809D01*
X03805Y02433D01*
X0334Y02831D02*
X03332Y02847D01*
X03348D01*
X0334Y02831D01*
Y02835D02*
X03336Y02843D01*
X03344D01*
X0334Y02835D01*
Y02755D02*
X03332Y02771D01*
X03348D01*
X0334Y02755D01*
Y02759D02*
X03336Y02767D01*
X03344D01*
X0334Y02759D01*
X02105Y02412D02*
X02097Y02428D01*
X02113D01*
X02105Y02412D01*
Y02416D02*
X02101Y02424D01*
X02109D01*
X02105Y02416D01*
X024938Y029302D02*
X024858Y029462D01*
X025018D01*
X024938Y029302D01*
Y029342D02*
X024898Y029422D01*
X024978D01*
X024938Y029342D01*
X03437Y02128D02*
X03429Y02144D01*
X03445D01*
X03437Y02128D01*
Y02132D02*
X03433Y0214D01*
X03441D01*
X03437Y02132D01*
X02184Y02381D02*
X02176Y02397D01*
X02192D01*
X02184Y02381D01*
Y02385D02*
X0218Y02393D01*
X02188D01*
X02184Y02385D01*
X01935Y02292D02*
X01927Y02308D01*
X01943D01*
X01935Y02292D01*
Y02296D02*
X01931Y02304D01*
X01939D01*
X01935Y02296D01*
X01986Y02505D02*
X01978Y02521D01*
X01994D01*
X01986Y02505D01*
Y02509D02*
X01982Y02517D01*
X0199D01*
X01986Y02509D01*
X01995Y02376D02*
X01987Y02392D01*
X02003D01*
X01995Y02376D01*
Y0238D02*
X01991Y02388D01*
X01999D01*
X01995Y0238D01*
X01913Y02482D02*
X01905Y02498D01*
X01921D01*
X01913Y02482D01*
Y02486D02*
X01909Y02494D01*
X01917D01*
X01913Y02486D01*
X02054Y02433D02*
X02046Y02449D01*
X02062D01*
X02054Y02433D01*
Y02437D02*
X0205Y02445D01*
X02058D01*
X02054Y02437D01*
X01854Y02294D02*
X01846Y0231D01*
X01862D01*
X01854Y02294D01*
Y02298D02*
X0185Y02306D01*
X01858D01*
X01854Y02298D01*
X01785Y02297D02*
X01777Y02313D01*
X01793D01*
X01785Y02297D01*
Y02301D02*
X01781Y02309D01*
X01789D01*
X01785Y02301D01*
X01933Y02445D02*
X01925Y02461D01*
X01941D01*
X01933Y02445D01*
Y02449D02*
X01929Y02457D01*
X01937D01*
X01933Y02449D01*
X01924Y02408D02*
X01916Y02424D01*
X01932D01*
X01924Y02408D01*
Y02412D02*
X0192Y0242D01*
X01928D01*
X01924Y02412D01*
X01956Y02219D02*
X01948Y02235D01*
X01964D01*
X01956Y02219D01*
Y02223D02*
X01952Y02231D01*
X0196D01*
X01956Y02223D01*
X01756Y02277D02*
X01748Y02293D01*
X01764D01*
X01756Y02277D01*
Y02281D02*
X01752Y02289D01*
X0176D01*
X01756Y02281D01*
X01785Y02415D02*
X01777Y02431D01*
X01793D01*
X01785Y02415D01*
Y02419D02*
X01781Y02427D01*
X01789D01*
X01785Y02419D01*
X02735Y02219D02*
X02727Y02235D01*
X02743D01*
X02735Y02219D01*
Y02223D02*
X02731Y02231D01*
X02739D01*
X02735Y02223D01*
X02405Y01971D02*
X02397Y01987D01*
X02413D01*
X02405Y01971D01*
Y01975D02*
X02401Y01983D01*
X02409D01*
X02405Y01975D01*
X02369Y01863D02*
X02361Y01879D01*
X02377D01*
X02369Y01863D01*
Y01867D02*
X02365Y01875D01*
X02373D01*
X02369Y01867D01*
X02089Y0197D02*
X02081Y01986D01*
X02097D01*
X02089Y0197D01*
Y01974D02*
X02085Y01982D01*
X02093D01*
X02089Y01974D01*
X02034Y01962D02*
X02026Y01978D01*
X02042D01*
X02034Y01962D01*
Y01966D02*
X0203Y01974D01*
X02038D01*
X02034Y01966D01*
Y01745D02*
X02026Y01761D01*
X02042D01*
X02034Y01745D01*
Y01749D02*
X0203Y01757D01*
X02038D01*
X02034Y01749D01*
X01904Y02077D02*
X01896Y02093D01*
X01912D01*
X01904Y02077D01*
Y02081D02*
X019Y02089D01*
X01908D01*
X01904Y02081D01*
X03088Y02548D02*
X0308Y02564D01*
X03096D01*
X03088Y02548D01*
Y02552D02*
X03084Y0256D01*
X03092D01*
X03088Y02552D01*
X031325Y025045D02*
X031245Y025205D01*
X031405D01*
X031325Y025045D01*
Y025085D02*
X031285Y025165D01*
X031365D01*
X031325Y025085D01*
X01752Y01736D02*
X01744Y01752D01*
X0176D01*
X01752Y01736D01*
Y0174D02*
X01748Y01748D01*
X01756D01*
X01752Y0174D01*
X02817Y01291D02*
X02809Y01307D01*
X02825D01*
X02817Y01291D01*
Y01295D02*
X02813Y01303D01*
X02821D01*
X02817Y01295D01*
X02749Y01252D02*
X02741Y01268D01*
X02757D01*
X02749Y01252D01*
Y01256D02*
X02745Y01264D01*
X02753D01*
X02749Y01256D01*
X02972Y01087D02*
X02964Y01103D01*
X0298D01*
X02972Y01087D01*
Y01091D02*
X02968Y01099D01*
X02976D01*
X02972Y01091D01*
X03134Y02397D02*
X03126Y02413D01*
X03142D01*
X03134Y02397D01*
Y02401D02*
X0313Y02409D01*
X03138D01*
X03134Y02401D01*
X02434Y03364D02*
X02426Y0338D01*
X02442D01*
X02434Y03364D01*
Y03368D02*
X0243Y03376D01*
X02438D01*
X02434Y03368D01*
X02584Y03365D02*
X02576Y03381D01*
X02592D01*
X02584Y03365D01*
Y03369D02*
X0258Y03377D01*
X02588D01*
X02584Y03369D01*
X0175Y03285D02*
X01742Y03301D01*
X01758D01*
X0175Y03285D01*
Y03289D02*
X01746Y03297D01*
X01754D01*
X0175Y03289D01*
X01899Y0337D02*
X01891Y03386D01*
X01907D01*
X01899Y0337D01*
Y03374D02*
X01895Y03382D01*
X01903D01*
X01899Y03374D01*
X01522Y03341D02*
X01514Y03357D01*
X0153D01*
X01522Y03341D01*
Y03345D02*
X01518Y03353D01*
X01526D01*
X01522Y03345D01*
X01363Y03074D02*
X01355Y0309D01*
X01371D01*
X01363Y03074D01*
Y03078D02*
X01359Y03086D01*
X01367D01*
X01363Y03078D01*
X01377Y02911D02*
X01369Y02927D01*
X01385D01*
X01377Y02911D01*
Y02915D02*
X01373Y02923D01*
X01381D01*
X01377Y02915D01*
X02749Y015112D02*
X02741Y015272D01*
X02757D01*
X02749Y015112D01*
Y015152D02*
X02745Y015232D01*
X02753D01*
X02749Y015152D01*
X0272Y01326D02*
X02712Y01342D01*
X02728D01*
X0272Y01326D01*
Y0133D02*
X02716Y01338D01*
X02724D01*
X0272Y0133D01*
X02817Y01366D02*
X02809Y01382D01*
X02825D01*
X02817Y01366D01*
Y0137D02*
X02813Y01378D01*
X02821D01*
X02817Y0137D01*
X02832Y01056D02*
X02824Y01072D01*
X0284D01*
X02832Y01056D01*
Y0106D02*
X02828Y01068D01*
X02836D01*
X02832Y0106D01*
X02615Y01028D02*
X02607Y01044D01*
X02623D01*
X02615Y01028D01*
Y01032D02*
X02611Y0104D01*
X02619D01*
X02615Y01032D01*
X02768Y01087D02*
X0276Y01103D01*
X02776D01*
X02768Y01087D01*
Y01091D02*
X02764Y01099D01*
X02772D01*
X02768Y01091D01*
X02908Y02529D02*
X029Y02545D01*
X02916D01*
X02908Y02529D01*
Y02533D02*
X02904Y02541D01*
X02912D01*
X02908Y02533D01*
X02408Y02552D02*
X024Y02568D01*
X02416D01*
X02408Y02552D01*
Y02556D02*
X02404Y02564D01*
X02412D01*
X02408Y02556D01*
X03189Y02564D02*
X03181Y0258D01*
X03197D01*
X03189Y02564D01*
Y02568D02*
X03185Y02576D01*
X03193D01*
X03189Y02568D01*
X0327Y02846D02*
X03262Y02862D01*
X03278D01*
X0327Y02846D01*
Y0285D02*
X03266Y02858D01*
X03274D01*
X0327Y0285D01*
X033Y02847D02*
X03292Y02863D01*
X03308D01*
X033Y02847D01*
Y02851D02*
X03296Y02859D01*
X03304D01*
X033Y02851D01*
X03299Y0267D02*
X03291Y02686D01*
X03307D01*
X03299Y0267D01*
Y02674D02*
X03295Y02682D01*
X03303D01*
X03299Y02674D01*
X02517Y02579D02*
X02509Y02595D01*
X02525D01*
X02517Y02579D01*
Y02583D02*
X02513Y02591D01*
X02521D01*
X02517Y02583D01*
X03212Y0231D02*
X03204Y02326D01*
X0322D01*
X03212Y0231D01*
Y02314D02*
X03208Y02322D01*
X03216D01*
X03212Y02314D01*
X02544Y02407D02*
X02536Y02423D01*
X02552D01*
X02544Y02407D01*
Y02411D02*
X0254Y02419D01*
X02548D01*
X02544Y02411D01*
X03957Y01958D02*
X03949Y01974D01*
X03965D01*
X03957Y01958D01*
Y01962D02*
X03953Y0197D01*
X03961D01*
X03957Y01962D01*
X03492Y01943D02*
X03484Y01959D01*
X035D01*
X03492Y01943D01*
Y01947D02*
X03488Y01955D01*
X03496D01*
X03492Y01947D01*
X02177Y01038D02*
X02169Y01054D01*
X02185D01*
X02177Y01038D01*
Y01042D02*
X02173Y0105D01*
X02181D01*
X02177Y01042D01*
X02576Y00974D02*
X02568Y0099D01*
X02584D01*
X02576Y00974D01*
Y00978D02*
X02572Y00986D01*
X0258D01*
X02576Y00978D01*
X02494Y00972D02*
X02486Y00988D01*
X02502D01*
X02494Y00972D01*
Y00976D02*
X0249Y00984D01*
X02498D01*
X02494Y00976D01*
X0214Y01012D02*
X02132Y01028D01*
X02148D01*
X0214Y01012D01*
Y01016D02*
X02136Y01024D01*
X02144D01*
X0214Y01016D01*
X02519Y03058D02*
X02511Y03074D01*
X02527D01*
X02519Y03058D01*
Y03062D02*
X02515Y0307D01*
X02523D01*
X02519Y03062D01*
X02561Y03208D02*
X02553Y03224D01*
X02569D01*
X02561Y03208D01*
Y03212D02*
X02557Y0322D01*
X02565D01*
X02561Y03212D01*
X02608Y03162D02*
X026Y03178D01*
X02616D01*
X02608Y03162D01*
Y03166D02*
X02604Y03174D01*
X02612D01*
X02608Y03166D01*
X0275Y03055D02*
X02742Y03071D01*
X02758D01*
X0275Y03055D01*
Y03059D02*
X02746Y03067D01*
X02754D01*
X0275Y03059D01*
X01867Y03437D02*
X01859Y03453D01*
X01875D01*
X01867Y03437D01*
Y03441D02*
X01863Y03449D01*
X01871D01*
X01867Y03441D01*
Y03336D02*
X01859Y03352D01*
X01875D01*
X01867Y03336D01*
Y0334D02*
X01863Y03348D01*
X01871D01*
X01867Y0334D01*
X02187Y03436D02*
X02179Y03452D01*
X02195D01*
X02187Y03436D01*
Y0344D02*
X02183Y03448D01*
X02191D01*
X02187Y0344D01*
X01811Y03492D02*
X01803Y03508D01*
X01819D01*
X01811Y03492D01*
Y03496D02*
X01807Y03504D01*
X01815D01*
X01811Y03496D01*
X02991Y03121D02*
X02983Y03137D01*
X02999D01*
X02991Y03121D01*
Y03125D02*
X02987Y03133D01*
X02995D01*
X02991Y03125D01*
X02846Y03112D02*
X02838Y03128D01*
X02854D01*
X02846Y03112D01*
Y03116D02*
X02842Y03124D01*
X0285D01*
X02846Y03116D01*
X02753Y03115D02*
X02745Y03131D01*
X02761D01*
X02753Y03115D01*
Y03119D02*
X02749Y03127D01*
X02757D01*
X02753Y03119D01*
X02939Y030912D02*
X02931Y031072D01*
X02947D01*
X02939Y030912D01*
Y030952D02*
X02935Y031032D01*
X02943D01*
X02939Y030952D01*
X02821Y030519D02*
X02813Y030679D01*
X02829D01*
X02821Y030519D01*
Y030559D02*
X02817Y030638D01*
X02825D01*
X02821Y030559D01*
X02793Y03013D02*
X02785Y03029D01*
X02801D01*
X02793Y03013D01*
Y03017D02*
X02789Y03025D01*
X02797D01*
X02793Y03017D01*
X028726Y028944D02*
X028646Y029104D01*
X028806D01*
X028726Y028944D01*
Y028984D02*
X028686Y029064D01*
X028766D01*
X028726Y028984D01*
X02989Y03209D02*
X02981Y03225D01*
X02997D01*
X02989Y03209D01*
Y03213D02*
X02985Y03221D01*
X02993D01*
X02989Y03213D01*
X027135Y032085D02*
X027055Y032245D01*
X027215D01*
X027135Y032085D01*
Y032125D02*
X027095Y032205D01*
X027175D01*
X027135Y032125D01*
X01873Y03123D02*
X01865Y03139D01*
X01881D01*
X01873Y03123D01*
Y03127D02*
X01869Y03135D01*
X01877D01*
X01873Y03127D01*
X018699Y02756D02*
X018619Y02772D01*
X018779D01*
X018699Y02756D01*
Y0276D02*
X018659Y02768D01*
X018739D01*
X018699Y0276D01*
X03768Y02594D02*
X0376Y0261D01*
X03776D01*
X03768Y02594D01*
Y02598D02*
X03764Y02606D01*
X03772D01*
X03768Y02598D01*
X02631Y0133D02*
X02623Y01346D01*
X02639D01*
X02631Y0133D01*
Y01334D02*
X02627Y01342D01*
X02635D01*
X02631Y01334D01*
X02242Y01063D02*
X02234Y01079D01*
X0225D01*
X02242Y01063D01*
Y01067D02*
X02238Y01075D01*
X02246D01*
X02242Y01067D01*
X01857Y01098D02*
X01849Y01114D01*
X01865D01*
X01857Y01098D01*
Y01102D02*
X01853Y0111D01*
X01861D01*
X01857Y01102D01*
X01792Y01042D02*
X01784Y01058D01*
X018D01*
X01792Y01042D01*
Y01046D02*
X01788Y01054D01*
X01796D01*
X01792Y01046D01*
X017293Y010697D02*
X017213Y010857D01*
X017373D01*
X017293Y010697D01*
Y010737D02*
X017253Y010817D01*
X017333D01*
X017293Y010737D01*
X01856Y01019D02*
X01848Y01035D01*
X01864D01*
X01856Y01019D01*
Y01023D02*
X01852Y01031D01*
X0186D01*
X01856Y01023D01*
X01851Y01545D02*
X01843Y01561D01*
X01859D01*
X01851Y01545D01*
Y01549D02*
X01847Y01557D01*
X01855D01*
X01851Y01549D01*
X01979Y01581D02*
X01971Y01597D01*
X01987D01*
X01979Y01581D01*
Y01585D02*
X01975Y01593D01*
X01983D01*
X01979Y01585D01*
X01906Y01395D02*
X01898Y01411D01*
X01914D01*
X01906Y01395D01*
Y01399D02*
X01902Y01407D01*
X0191D01*
X01906Y01399D01*
X020038Y018168D02*
X019958Y018328D01*
X020118D01*
X020038Y018168D01*
Y018208D02*
X019998Y018288D01*
X020078D01*
X020038Y018208D01*
X01979Y01745D02*
X01971Y01761D01*
X01987D01*
X01979Y01745D01*
Y01749D02*
X01975Y01757D01*
X01983D01*
X01979Y01749D01*
X01719Y01022D02*
X01711Y01038D01*
X01727D01*
X01719Y01022D01*
Y01026D02*
X01715Y01034D01*
X01723D01*
X01719Y01026D01*
X016615Y010415D02*
X016535Y010575D01*
X016695D01*
X016615Y010415D01*
Y010455D02*
X016575Y010535D01*
X016655D01*
X016615Y010455D01*
X01612Y01149D02*
X01604Y01165D01*
X0162D01*
X01612Y01149D01*
Y01153D02*
X01608Y01161D01*
X01616D01*
X01612Y01153D01*
X01835Y03461D02*
X01827Y03477D01*
X01843D01*
X01835Y03461D01*
Y03465D02*
X01831Y03473D01*
X01839D01*
X01835Y03465D01*
Y03266D02*
X01827Y03282D01*
X01843D01*
X01835Y03266D01*
Y0327D02*
X01831Y03278D01*
X01839D01*
X01835Y0327D01*
X01781Y03379D02*
X01773Y03395D01*
X01789D01*
X01781Y03379D01*
Y03383D02*
X01777Y03391D01*
X01785D01*
X01781Y03383D01*
Y03239D02*
X01773Y03255D01*
X01789D01*
X01781Y03239D01*
Y03243D02*
X01777Y03251D01*
X01785D01*
X01781Y03243D01*
X01869Y02599D02*
X01861Y02615D01*
X01877D01*
X01869Y02599D01*
Y02603D02*
X01865Y02611D01*
X01873D01*
X01869Y02603D01*
X01914Y02599D02*
X01906Y02615D01*
X01922D01*
X01914Y02599D01*
Y02603D02*
X0191Y02611D01*
X01918D01*
X01914Y02603D01*
X02139Y01918D02*
X02131Y01934D01*
X02147D01*
X02139Y01918D01*
Y01922D02*
X02135Y0193D01*
X02143D01*
X02139Y01922D01*
X02015Y02606D02*
X02007Y02622D01*
X02023D01*
X02015Y02606D01*
Y0261D02*
X02011Y02618D01*
X02019D01*
X02015Y0261D01*
X02215Y01768D02*
X02207Y01784D01*
X02223D01*
X02215Y01768D01*
Y01772D02*
X02211Y0178D01*
X02219D01*
X02215Y01772D01*
X02129Y01745D02*
X02121Y01761D01*
X02137D01*
X02129Y01745D01*
Y01749D02*
X02125Y01757D01*
X02133D01*
X02129Y01749D01*
X01686Y01775D02*
X01678Y01791D01*
X01694D01*
X01686Y01775D01*
Y01779D02*
X01682Y01787D01*
X0169D01*
X01686Y01779D01*
X01709Y02042D02*
X01701Y02058D01*
X01717D01*
X01709Y02042D01*
Y02046D02*
X01705Y02054D01*
X01713D01*
X01709Y02046D01*
X02045Y01349D02*
X02037Y01365D01*
X02053D01*
X02045Y01349D01*
Y01353D02*
X02041Y01361D01*
X02049D01*
X02045Y01353D01*
X02197Y02905D02*
X02189Y02921D01*
X02205D01*
X02197Y02905D01*
Y02909D02*
X02193Y02917D01*
X02201D01*
X02197Y02909D01*
X021003Y029067D02*
X020923Y029227D01*
X021082D01*
X021003Y029067D01*
Y029107D02*
X020963Y029188D01*
X021042D01*
X021003Y029107D01*
X02675Y0149D02*
X02667Y01506D01*
X02683D01*
X02675Y0149D01*
Y01494D02*
X02671Y01502D01*
X02679D01*
X02675Y01494D01*
X02576Y030111D02*
X02568Y030271D01*
X02584D01*
X02576Y030111D01*
Y030151D02*
X02572Y030231D01*
X0258D01*
X02576Y030151D01*
X02604Y03091D02*
X02596Y03107D01*
X02612D01*
X02604Y03091D01*
Y03095D02*
X026Y03103D01*
X02608D01*
X02604Y03095D01*
X02262Y03241D02*
X02254Y03257D01*
X0227D01*
X02262Y03241D01*
Y03245D02*
X02258Y03253D01*
X02266D01*
X02262Y03245D01*
X02105Y03357D02*
X02097Y03373D01*
X02113D01*
X02105Y03357D01*
Y03361D02*
X02101Y03369D01*
X02109D01*
X02105Y03361D01*
X02151Y03162D02*
X02143Y03178D01*
X02159D01*
X02151Y03162D01*
Y03166D02*
X02147Y03174D01*
X02155D01*
X02151Y03166D01*
X01291Y0317D02*
X01283Y03186D01*
X01299D01*
X01291Y0317D01*
Y03174D02*
X01287Y03182D01*
X01295D01*
X01291Y03174D01*
X020734Y030264D02*
X020654Y030424D01*
X020814D01*
X020734Y030264D01*
Y030304D02*
X020694Y030384D01*
X020774D01*
X020734Y030304D01*
X02071Y02831D02*
X02063Y02847D01*
X02079D01*
X02071Y02831D01*
Y02835D02*
X02067Y02843D01*
X02075D01*
X02071Y02835D01*
X02198Y02989D02*
X0219Y03005D01*
X02206D01*
X02198Y02989D01*
Y02993D02*
X02194Y03001D01*
X02202D01*
X02198Y02993D01*
X02161Y02971D02*
X02153Y02987D01*
X02169D01*
X02161Y02971D01*
Y02975D02*
X02157Y02983D01*
X02165D01*
X02161Y02975D01*
X01403Y01603D02*
X01395Y01619D01*
X01411D01*
X01403Y01603D01*
Y01607D02*
X01399Y01615D01*
X01407D01*
X01403Y01607D01*
X01132Y01598D02*
X01124Y01614D01*
X0114D01*
X01132Y01598D01*
Y01602D02*
X01128Y0161D01*
X01136D01*
X01132Y01602D01*
X03896Y00847D02*
X03888Y00863D01*
X03904D01*
X03896Y00847D01*
Y00851D02*
X03892Y00859D01*
X039D01*
X03896Y00851D01*
X03996Y00845D02*
X03988Y00861D01*
X04004D01*
X03996Y00845D01*
Y00849D02*
X03992Y00857D01*
X04D01*
X03996Y00849D01*
X02075Y03213D02*
X02067Y03229D01*
X02083D01*
X02075Y03213D01*
Y03217D02*
X02071Y03225D01*
X02079D01*
X02075Y03217D01*
X02204Y03263D02*
X02196Y03279D01*
X02212D01*
X02204Y03263D01*
Y03267D02*
X022Y03275D01*
X02208D01*
X02204Y03267D01*
X02098Y03241D02*
X0209Y03257D01*
X02106D01*
X02098Y03241D01*
Y03245D02*
X02094Y03253D01*
X02102D01*
X02098Y03245D01*
X01932Y03172D02*
X01924Y03188D01*
X0194D01*
X01932Y03172D01*
Y03176D02*
X01928Y03184D01*
X01936D01*
X01932Y03176D01*
X01977Y03135D02*
X01969Y03151D01*
X01985D01*
X01977Y03135D01*
Y03139D02*
X01973Y03147D01*
X01981D01*
X01977Y03139D01*
X024005Y033915D02*
X023925Y034075D01*
X024085D01*
X024005Y033915D01*
Y033955D02*
X023965Y034035D01*
X024045D01*
X024005Y033955D01*
X021873Y033675D02*
X021793Y033835D01*
X021953D01*
X021873Y033675D01*
Y033715D02*
X021833Y033795D01*
X021913D01*
X021873Y033715D01*
X02589Y01394D02*
X02581Y0141D01*
X02597D01*
X02589Y01394D01*
Y01398D02*
X02585Y01406D01*
X02593D01*
X02589Y01398D01*
X02008Y02225D02*
X02Y02241D01*
X02016D01*
X02008Y02225D01*
Y02229D02*
X02004Y02237D01*
X02012D01*
X02008Y02229D01*
X01467Y01245D02*
X01459Y01261D01*
X01475D01*
X01467Y01245D01*
Y01249D02*
X01463Y01257D01*
X01471D01*
X01467Y01249D01*
X01606Y012593D02*
X01598Y012753D01*
X01614D01*
X01606Y012593D01*
Y012633D02*
X01602Y012713D01*
X0161D01*
X01606Y012633D01*
X01815Y02075D02*
X01807Y02091D01*
X01823D01*
X01815Y02075D01*
Y02079D02*
X01811Y02087D01*
X01819D01*
X01815Y02079D01*
X01977Y03029D02*
X01969Y03045D01*
X01985D01*
X01977Y03029D01*
Y03033D02*
X01973Y03041D01*
X01981D01*
X01977Y03033D01*
X01907Y00995D02*
X01899Y01011D01*
X01915D01*
X01907Y00995D01*
Y00999D02*
X01903Y01007D01*
X01911D01*
X01907Y00999D01*
X01605Y01377D02*
X01597Y01393D01*
X01613D01*
X01605Y01377D01*
Y01381D02*
X01601Y01389D01*
X01609D01*
X01605Y01381D01*
X014612Y0162D02*
X014532Y01636D01*
X014692D01*
X014612Y0162D01*
Y01624D02*
X014572Y01632D01*
X014652D01*
X014612Y01624D01*
X01723Y01544D02*
X01715Y0156D01*
X01731D01*
X01723Y01544D01*
Y01548D02*
X01719Y01556D01*
X01727D01*
X01723Y01548D01*
X01461Y01541D02*
X01453Y01557D01*
X01469D01*
X01461Y01541D01*
Y01545D02*
X01457Y01553D01*
X01465D01*
X01461Y01545D01*
X01657Y01737D02*
X01649Y01753D01*
X01665D01*
X01657Y01737D01*
Y01741D02*
X01653Y01749D01*
X01661D01*
X01657Y01741D01*
X01198Y01437D02*
X0119Y01453D01*
X01206D01*
X01198Y01437D01*
Y01441D02*
X01194Y01449D01*
X01202D01*
X01198Y01441D01*
X01347Y01437D02*
X01339Y01453D01*
X01355D01*
X01347Y01437D01*
Y01441D02*
X01343Y01449D01*
X01351D01*
X01347Y01441D01*
Y01291D02*
X01339Y01307D01*
X01355D01*
X01347Y01291D01*
Y01295D02*
X01343Y01303D01*
X01351D01*
X01347Y01295D01*
X01321Y0139D02*
X01313Y01406D01*
X01329D01*
X01321Y0139D01*
Y01394D02*
X01317Y01402D01*
X01325D01*
X01321Y01394D01*
X01577Y03374D02*
X01569Y0339D01*
X01585D01*
X01577Y03374D01*
Y03378D02*
X01573Y03386D01*
X01581D01*
X01577Y03378D01*
X01598Y03286D02*
X0159Y03302D01*
X01606D01*
X01598Y03286D01*
Y0329D02*
X01594Y03298D01*
X01602D01*
X01598Y0329D01*
X01633Y03184D02*
X01625Y032D01*
X01641D01*
X01633Y03184D01*
Y03188D02*
X01629Y03196D01*
X01637D01*
X01633Y03188D01*
X012935Y027362D02*
X012855Y027522D01*
X013015D01*
X012935Y027362D01*
Y027402D02*
X012895Y027482D01*
X012975D01*
X012935Y027402D01*
X01227Y02496D02*
X01219Y02512D01*
X01235D01*
X01227Y02496D01*
Y025D02*
X01223Y02508D01*
X01231D01*
X01227Y025D01*
X01431Y02498D02*
X01423Y02514D01*
X01439D01*
X01431Y02498D01*
Y02502D02*
X01427Y0251D01*
X01435D01*
X01431Y02502D01*
X01299Y02499D02*
X01291Y02515D01*
X01307D01*
X01299Y02499D01*
Y02503D02*
X01295Y02511D01*
X01303D01*
X01299Y02503D01*
X01386Y02579D02*
X01378Y02595D01*
X01394D01*
X01386Y02579D01*
Y02583D02*
X01382Y02591D01*
X0139D01*
X01386Y02583D01*
X01584Y02615D02*
X01576Y02631D01*
X01592D01*
X01584Y02615D01*
Y02619D02*
X0158Y02627D01*
X01588D01*
X01584Y02619D01*
X01459Y020883D02*
X01451Y021043D01*
X01467D01*
X01459Y020883D01*
Y020923D02*
X01455Y021003D01*
X01463D01*
X01459Y020923D01*
X02019Y02729D02*
X02011Y02745D01*
X02027D01*
X02019Y02729D01*
Y02733D02*
X02015Y02741D01*
X02023D01*
X02019Y02733D01*
X01999Y01635D02*
X01991Y01651D01*
X02007D01*
X01999Y01635D01*
Y01639D02*
X01995Y01647D01*
X02003D01*
X01999Y01639D01*
X01191Y01242D02*
X01183Y01258D01*
X01199D01*
X01191Y01242D01*
Y01246D02*
X01187Y01254D01*
X01195D01*
X01191Y01246D01*
Y01383D02*
X01183Y01399D01*
X01199D01*
X01191Y01383D01*
Y01387D02*
X01187Y01395D01*
X01195D01*
X01191Y01387D01*
X01156Y01385D02*
X01148Y01401D01*
X01164D01*
X01156Y01385D01*
Y01389D02*
X01152Y01397D01*
X0116D01*
X01156Y01389D01*
X01467Y01388D02*
X01459Y01404D01*
X01475D01*
X01467Y01388D01*
Y01392D02*
X01463Y014D01*
X01471D01*
X01467Y01392D01*
X01322Y01236D02*
X01314Y01252D01*
X0133D01*
X01322Y01236D01*
Y0124D02*
X01318Y01248D01*
X01326D01*
X01322Y0124D01*
X01105Y02093D02*
X01097Y02109D01*
X01113D01*
X01105Y02093D01*
Y02097D02*
X01101Y02105D01*
X01109D01*
X01105Y02097D01*
X01159Y01244D02*
X01151Y0126D01*
X01167D01*
X01159Y01244D01*
Y01248D02*
X01155Y01256D01*
X01163D01*
X01159Y01248D01*
X016615Y016145D02*
X016535Y016305D01*
X016695D01*
X016615Y016145D01*
Y016185D02*
X016575Y016265D01*
X016655D01*
X016615Y016185D01*
X01578Y016159D02*
X0157Y016319D01*
X01586D01*
X01578Y016159D01*
Y016199D02*
X01574Y016279D01*
X01582D01*
X01578Y016199D01*
X01596Y01742D02*
X01588Y01758D01*
X01604D01*
X01596Y01742D01*
Y01746D02*
X01592Y01754D01*
X016D01*
X01596Y01746D01*
X014612Y017342D02*
X014532Y017502D01*
X014692D01*
X014612Y017342D01*
Y017382D02*
X014572Y017462D01*
X014652D01*
X014612Y017382D01*
X01086Y01623D02*
X01078Y01639D01*
X01094D01*
X01086Y01623D01*
Y01627D02*
X01082Y01635D01*
X0109D01*
X01086Y01627D01*
X01844Y024D02*
X01836Y02416D01*
X01852D01*
X01844Y024D01*
Y02404D02*
X0184Y02412D01*
X01848D01*
X01844Y02404D01*
X0291Y02435D02*
X02902Y02451D01*
X02918D01*
X0291Y02435D01*
Y02439D02*
X02906Y02447D01*
X02914D01*
X0291Y02439D01*
X03475Y02188D02*
X03467Y02204D01*
X03483D01*
X03475Y02188D01*
Y02192D02*
X03471Y022D01*
X03479D01*
X03475Y02192D01*
X02412Y01869D02*
X02404Y01885D01*
X0242D01*
X02412Y01869D01*
Y01873D02*
X02408Y01881D01*
X02416D01*
X02412Y01873D01*
X02294Y01472D02*
X02286Y01488D01*
X02302D01*
X02294Y01472D01*
Y01476D02*
X0229Y01484D01*
X02298D01*
X02294Y01476D01*
X02392Y01288D02*
X02384Y01304D01*
X024D01*
X02392Y01288D01*
Y01292D02*
X02388Y013D01*
X02396D01*
X02392Y01292D01*
X02415Y01387D02*
X02407Y01403D01*
X02423D01*
X02415Y01387D01*
Y01391D02*
X02411Y01399D01*
X02419D01*
X02415Y01391D01*
X01181Y02868D02*
X01173Y02884D01*
X01189D01*
X01181Y02868D01*
Y02872D02*
X01177Y0288D01*
X01185D01*
X01181Y02872D01*
X02043Y03216D02*
X02035Y03232D01*
X02051D01*
X02043Y03216D01*
Y0322D02*
X02039Y03228D01*
X02047D01*
X02043Y0322D01*
X02297Y0317D02*
X02289Y03186D01*
X02305D01*
X02297Y0317D01*
Y03174D02*
X02293Y03182D01*
X02301D01*
X02297Y03174D01*
X043184Y02519D02*
X043104Y02535D01*
X043264D01*
X043184Y02519D01*
Y02523D02*
X043144Y02531D01*
X043224D01*
X043184Y02523D01*
X04556Y01247D02*
X04548Y01263D01*
X04564D01*
X04556Y01247D01*
Y01251D02*
X04552Y01259D01*
X0456D01*
X04556Y01251D01*
X02832Y01469D02*
X02824Y01485D01*
X0284D01*
X02832Y01469D01*
Y01473D02*
X02828Y01481D01*
X02836D01*
X02832Y01473D01*
X02984Y01395D02*
X02976Y01411D01*
X02992D01*
X02984Y01395D01*
Y01399D02*
X0298Y01407D01*
X02988D01*
X02984Y01399D01*
X04513Y03413D02*
X04505Y03429D01*
X04521D01*
X04513Y03413D01*
Y03417D02*
X04509Y03425D01*
X04517D01*
X04513Y03417D01*
X04324Y01526D02*
X04316Y01542D01*
X04332D01*
X04324Y01526D01*
Y0153D02*
X0432Y01538D01*
X04328D01*
X04324Y0153D01*
X04326Y02717D02*
X04318Y02733D01*
X04334D01*
X04326Y02717D01*
Y02721D02*
X04322Y02729D01*
X0433D01*
X04326Y02721D01*
X04492Y02619D02*
X04484Y02635D01*
X045D01*
X04492Y02619D01*
Y02623D02*
X04488Y02631D01*
X04496D01*
X04492Y02623D01*
X024709Y029731D02*
X024629Y029891D01*
X024789D01*
X024709Y029731D01*
Y029771D02*
X024669Y029851D01*
X024749D01*
X024709Y029771D01*
X04473Y02297D02*
X04465Y02313D01*
X04481D01*
X04473Y02297D01*
Y02301D02*
X04469Y02309D01*
X04477D01*
X04473Y02301D01*
X02925Y02154D02*
X02917Y0217D01*
X02933D01*
X02925Y02154D01*
Y02158D02*
X02921Y02166D01*
X02929D01*
X02925Y02158D01*
X02472Y0305D02*
X02464Y03066D01*
X0248D01*
X02472Y0305D01*
Y03054D02*
X02468Y03062D01*
X02476D01*
X02472Y03054D01*
X04281Y01422D02*
X04273Y01438D01*
X04289D01*
X04281Y01422D01*
Y01426D02*
X04277Y01434D01*
X04285D01*
X04281Y01426D01*
X01809Y03186D02*
X01801Y03202D01*
X01817D01*
X01809Y03186D01*
Y0319D02*
X01805Y03198D01*
X01813D01*
X01809Y0319D01*
X01339Y03374D02*
X01331Y0339D01*
X01347D01*
X01339Y03374D01*
Y03378D02*
X01335Y03386D01*
X01343D01*
X01339Y03378D01*
X0229Y0134D02*
X02282Y01356D01*
X02298D01*
X0229Y0134D01*
Y01344D02*
X02286Y01352D01*
X02294D01*
X0229Y01344D01*
X038349Y027369D02*
X038269Y027529D01*
X038429D01*
X038349Y027369D01*
Y027409D02*
X038309Y027489D01*
X038389D01*
X038349Y027409D01*
X04179Y01846D02*
X04171Y01862D01*
X04187D01*
X04179Y01846D01*
Y0185D02*
X04175Y01858D01*
X04183D01*
X04179Y0185D01*
X04115Y02737D02*
X04107Y02753D01*
X04123D01*
X04115Y02737D01*
Y02741D02*
X04111Y02749D01*
X04119D01*
X04115Y02741D01*
X04183Y02309D02*
X04175Y02325D01*
X04191D01*
X04183Y02309D01*
Y02313D02*
X04179Y02321D01*
X04187D01*
X04183Y02313D01*
Y0264D02*
X04175Y02656D01*
X04191D01*
X04183Y0264D01*
Y02644D02*
X04179Y02652D01*
X04187D01*
X04183Y02644D01*
X0451Y02693D02*
X04502Y02709D01*
X04518D01*
X0451Y02693D01*
Y02697D02*
X04506Y02705D01*
X04514D01*
X0451Y02697D01*
X04594Y02742D02*
X04586Y02758D01*
X04602D01*
X04594Y02742D01*
Y02746D02*
X0459Y02754D01*
X04598D01*
X04594Y02746D01*
X03405Y0135D02*
X03397Y01366D01*
X03413D01*
X03405Y0135D01*
Y01354D02*
X03401Y01362D01*
X03409D01*
X03405Y01354D01*
X04137Y01627D02*
X04129Y01643D01*
X04145D01*
X04137Y01627D01*
Y01631D02*
X04133Y01639D01*
X04141D01*
X04137Y01631D01*
X04273Y03424D02*
X04265Y0344D01*
X04281D01*
X04273Y03424D01*
Y03428D02*
X04269Y03436D01*
X04277D01*
X04273Y03428D01*
X03034Y029731D02*
X03026Y029891D01*
X03042D01*
X03034Y029731D01*
Y029771D02*
X0303Y029851D01*
X03038D01*
X03034Y029771D01*
X03692Y03287D02*
X03684Y03303D01*
X037D01*
X03692Y03287D01*
Y03291D02*
X03688Y03299D01*
X03696D01*
X03692Y03291D01*
D127*
X045657Y032502D02*
G03*
X045657Y032502I-00008J0D01*
G01*
Y030533D02*
G03*
X045657Y030533I-00008J0D01*
G01*
X00935Y019728D02*
G03*
X00935Y019728I-00008J0D01*
G01*
Y021697D02*
G03*
X00935Y021697I-00008J0D01*
G01*
Y01776D02*
G03*
X00935Y01776I-00008J0D01*
G01*
D128*
X00931Y019728D02*
G03*
X00931Y019728I-00004J0D01*
G01*
Y021697D02*
G03*
X00931Y021697I-00004J0D01*
G01*
Y01776D02*
G03*
X00931Y01776I-00004J0D01*
G01*
M02*
