G04*
G04 #@! TF.GenerationSoftware,Altium Limited,Altium Designer,18.1.6 (161)*
G04*
G04 Layer_Color=16711935*
%FSTAX24Y24*%
%MOIN*%
G70*
G01*
G75*
%ADD12C,0.0079*%
%ADD13C,0.0080*%
%ADD15C,0.0050*%
%ADD125C,0.0039*%
D12*
X027926Y015894D02*
G03*
X027926Y015894I-000039J0D01*
G01*
X012053Y022816D02*
G03*
X012053Y022816I-000039J0D01*
G01*
D13*
X00799Y026974D02*
X011612D01*
X00799Y023506D02*
Y026974D01*
Y023506D02*
X011612D01*
Y026974D01*
X018209Y024141D02*
Y025519D01*
Y024141D02*
X020571D01*
Y025519D01*
X018209D02*
X020571D01*
X020831Y026319D02*
X022209D01*
Y028681D01*
X020831D02*
X022209D01*
X020831Y026319D02*
Y028681D01*
X018441Y026519D02*
X019819D01*
Y028881D01*
X018441D02*
X019819D01*
X018441Y026519D02*
Y028881D01*
X030238Y008425D02*
Y012047D01*
Y008425D02*
X036707D01*
Y012047D01*
X030238D02*
X036707D01*
X020831Y030369D02*
X022209D01*
Y032731D01*
X020831D02*
X022209D01*
X020831Y030369D02*
Y032731D01*
X018481Y030359D02*
Y032721D01*
X019859D01*
Y030359D02*
Y032721D01*
X018481Y030359D02*
X019859D01*
X02033Y01638D02*
X02833D01*
Y02238D01*
X02033D02*
X02833D01*
X02033Y01638D02*
Y02238D01*
X01157Y02233D02*
X01957D01*
X01157Y01633D02*
Y02233D01*
Y01633D02*
X01957D01*
Y02233D01*
X023333Y033325D02*
Y033995D01*
X023687Y033325D02*
Y033995D01*
X023333Y033325D02*
X023687D01*
X023333Y033995D02*
X023687D01*
X025303Y033338D02*
Y034007D01*
X025657Y033338D02*
Y034007D01*
X025303Y033338D02*
X025657D01*
X025303Y034007D02*
X025657D01*
X024563Y033345D02*
Y034015D01*
X024917Y033345D02*
Y034015D01*
X024563Y033345D02*
X024917D01*
X024563Y034015D02*
X024917D01*
X039533Y03287D02*
Y03354D01*
X039887Y03287D02*
Y03354D01*
X039533Y03287D02*
X039887D01*
X039533Y03354D02*
X039887D01*
X027353Y033332D02*
Y034001D01*
X027707Y033332D02*
Y034001D01*
X027353Y033332D02*
X027707D01*
X027353Y034001D02*
X027707D01*
X046015Y029173D02*
X046685D01*
X046015Y029527D02*
X046685D01*
Y029173D02*
Y029527D01*
X046015Y029173D02*
Y029527D01*
X033763Y033815D02*
Y034485D01*
X034117Y033815D02*
Y034485D01*
X033763Y033815D02*
X034117D01*
X033763Y034485D02*
X034117D01*
X026423Y033375D02*
Y034045D01*
X026777Y033375D02*
Y034045D01*
X026423Y033375D02*
X026777D01*
X026423Y034045D02*
X026777D01*
X028533Y0333D02*
Y03397D01*
X028887Y0333D02*
Y03397D01*
X028533Y0333D02*
X028887D01*
X028533Y03397D02*
X028887D01*
X029738Y03327D02*
Y03394D01*
X030092Y03327D02*
Y03394D01*
X029738Y03327D02*
X030092D01*
X029738Y03394D02*
X030092D01*
X037467Y032295D02*
Y032965D01*
X037113Y032295D02*
Y032965D01*
X037467D01*
X037113Y032295D02*
X037467D01*
X010016Y012052D02*
X016484D01*
Y00843D02*
Y012052D01*
X010016Y00843D02*
X016484D01*
X010016D02*
Y012052D01*
X016852Y012047D02*
X023321D01*
Y008425D02*
Y012047D01*
X016852Y008425D02*
X023321D01*
X016852D02*
Y012047D01*
X024239Y012224D02*
Y016122D01*
Y012224D02*
X027751D01*
Y016122D01*
X024239D02*
X027751D01*
X020339Y012224D02*
Y016122D01*
Y012224D02*
X023851D01*
Y016122D01*
X020339D02*
X023851D01*
X023508Y012047D02*
X029976D01*
Y008425D02*
Y012047D01*
X023508Y008425D02*
X029976D01*
X023508D02*
Y012047D01*
X007971Y021953D02*
X009388Y021876D01*
X007971Y021441D02*
X009388Y021518D01*
X007971Y019473D02*
X009388Y019549D01*
X007971Y019984D02*
X009388Y019908D01*
X007971Y016776D02*
Y022681D01*
X008611Y022917D02*
X008945D01*
X008916Y022681D02*
X008945Y022917D01*
X008611D02*
X00864Y022681D01*
X007971D02*
X00864D01*
X010924Y016776D02*
Y022681D01*
X008916D02*
X010924D01*
X007971Y016776D02*
X010215D01*
X010549D02*
X010924D01*
X010195Y01654D02*
X010215Y016776D01*
X010549D02*
X010569Y01654D01*
X010195D02*
X010569D01*
X007971Y018016D02*
X009388Y017939D01*
X007971Y017504D02*
X009388Y017581D01*
X011641Y027576D02*
Y031044D01*
X008019Y027576D02*
X011641D01*
X008019D02*
Y031044D01*
X011641D01*
D15*
X026879Y013386D02*
X027044D01*
X026954Y013266D01*
X026999D01*
X027029Y013251D01*
X027044Y013236D01*
X027059Y013191D01*
Y013161D01*
X027044Y013116D01*
X027014Y013086D01*
X026969Y013071D01*
X026924D01*
X026879Y013086D01*
X026864Y013101D01*
X026849Y013131D01*
X024904Y013326D02*
X024934Y013341D01*
X024979Y013386D01*
Y013071D01*
X02477Y015197D02*
X02474Y015182D01*
X02471Y015152D01*
X024695Y015122D01*
X02468Y015077D01*
Y015002D01*
X024695Y014957D01*
X02471Y014927D01*
X02474Y014897D01*
X02477Y014882D01*
X02483D01*
X02486Y014897D01*
X02489Y014927D01*
X024905Y014957D01*
X02492Y015002D01*
Y015077D01*
X024905Y015122D01*
X02489Y015152D01*
X02486Y015182D01*
X02483Y015197D01*
X02477D01*
X024993D02*
Y014882D01*
Y015197D02*
X025203Y014882D01*
Y015197D02*
Y014882D01*
X025864Y013311D02*
Y013326D01*
X025879Y013356D01*
X025894Y013371D01*
X025924Y013386D01*
X025984D01*
X026014Y013371D01*
X026029Y013356D01*
X026044Y013326D01*
Y013296D01*
X026029Y013266D01*
X025999Y013221D01*
X025849Y013071D01*
X026059D01*
X022979Y013386D02*
X023144D01*
X023054Y013266D01*
X023099D01*
X023129Y013251D01*
X023144Y013236D01*
X023159Y013191D01*
Y013161D01*
X023144Y013116D01*
X023114Y013086D01*
X023069Y013071D01*
X023024D01*
X022979Y013086D01*
X022964Y013101D01*
X022949Y013131D01*
X021005Y013326D02*
X021035Y013341D01*
X021079Y013386D01*
Y013071D01*
X02087Y015197D02*
X02084Y015182D01*
X02081Y015152D01*
X020795Y015122D01*
X02078Y015077D01*
Y015002D01*
X020795Y014957D01*
X02081Y014927D01*
X02084Y014897D01*
X02087Y014882D01*
X02093D01*
X02096Y014897D01*
X02099Y014927D01*
X021005Y014957D01*
X02102Y015002D01*
Y015077D01*
X021005Y015122D01*
X02099Y015152D01*
X02096Y015182D01*
X02093Y015197D01*
X02087D01*
X021093D02*
Y014882D01*
Y015197D02*
X021303Y014882D01*
Y015197D02*
Y014882D01*
X021964Y013311D02*
Y013326D01*
X021979Y013356D01*
X021994Y013371D01*
X022024Y013386D01*
X022084D01*
X022114Y013371D01*
X022129Y013356D01*
X022144Y013326D01*
Y013296D01*
X022129Y013266D01*
X022099Y013221D01*
X021949Y013071D01*
X022159D01*
D125*
X009388Y02152D02*
G03*
X009388Y021874I0J000177D01*
G01*
X009388Y019551D02*
G03*
X009388Y019906I0J000177D01*
G01*
Y017583D02*
G03*
X009388Y017937I0J000177D01*
G01*
M02*
