G04*
G04 #@! TF.GenerationSoftware,Altium Limited,Altium Designer,18.1.6 (161)*
G04*
G04 Layer_Color=255*
%FSTAX24Y24*%
%MOIN*%
G70*
G01*
G75*
%ADD23R,0.0500X0.0550*%
%ADD26R,0.0550X0.0500*%
%ADD27O,0.0800X0.0600*%
%ADD34O,0.0400X0.0600*%
%ADD35O,0.0600X0.0400*%
%ADD39R,0.0980X0.1260*%
%ADD40R,0.0980X0.0350*%
%ADD91C,0.0827*%
%ADD92R,0.0827X0.0827*%
%ADD93C,0.0570*%
%ADD94C,0.0240*%
%ADD95R,0.0827X0.0827*%
%ADD96O,0.0750X0.0650*%
%ADD97R,0.0750X0.0650*%
%ADD98O,0.0650X0.0750*%
%ADD99R,0.0650X0.0750*%
%ADD100C,0.1220*%
%ADD101C,0.0650*%
%ADD102R,0.0650X0.0650*%
%ADD103C,0.0600*%
%ADD104O,0.0860X0.0600*%
%ADD105C,0.0512*%
%ADD106C,0.0669*%
%ADD107O,0.0650X0.0900*%
%ADD108R,0.0650X0.0900*%
%ADD109O,0.0650X0.0850*%
%ADD110R,0.0650X0.0850*%
%ADD111O,0.0650X0.0850*%
%ADD112R,0.0650X0.0850*%
%ADD113C,0.0768*%
%ADD114R,0.0768X0.0768*%
%ADD117R,0.0520X0.0220*%
%ADD118R,0.0340X0.0220*%
%ADD119R,0.0445X0.0170*%
%ADD120R,0.1000X0.0256*%
%ADD121R,0.0210X0.0710*%
%ADD122R,0.0210X0.0670*%
D23*
X01382Y03435D02*
D03*
X01292D02*
D03*
X01733Y02657D02*
D03*
X01643D02*
D03*
X01934Y02353D02*
D03*
X01844D02*
D03*
X01642Y02549D02*
D03*
X01732D02*
D03*
X04666Y0202D02*
D03*
X04576D02*
D03*
X03241Y02083D02*
D03*
X03151D02*
D03*
X03305Y02903D02*
D03*
X03395D02*
D03*
X02142Y03424D02*
D03*
X02232D02*
D03*
X01955Y03426D02*
D03*
X02045D02*
D03*
X02039Y03335D02*
D03*
X01949D02*
D03*
X0299Y02162D02*
D03*
X0308D02*
D03*
X03305Y01767D02*
D03*
X03395D02*
D03*
X01645Y0244D02*
D03*
X01735D02*
D03*
X02023Y02903D02*
D03*
X01933D02*
D03*
X02236Y02561D02*
D03*
X02146D02*
D03*
X01647Y02814D02*
D03*
X01737D02*
D03*
X01724Y03149D02*
D03*
X01634D02*
D03*
X01488Y03436D02*
D03*
X01578D02*
D03*
X01932Y02992D02*
D03*
X02022D02*
D03*
X02149Y02716D02*
D03*
X02239D02*
D03*
X02004Y02564D02*
D03*
X01914D02*
D03*
X01932Y03131D02*
D03*
X02022D02*
D03*
X02884Y02273D02*
D03*
X02974D02*
D03*
X0193Y02794D02*
D03*
X0202D02*
D03*
X03047Y0183D02*
D03*
X03137D02*
D03*
X02126Y03127D02*
D03*
X02216D02*
D03*
X03316Y03435D02*
D03*
X03226D02*
D03*
X04531Y02323D02*
D03*
X04621D02*
D03*
X03796Y02817D02*
D03*
X03706D02*
D03*
X03796Y02921D02*
D03*
X03706D02*
D03*
X01739Y03023D02*
D03*
X01649D02*
D03*
X02238Y03327D02*
D03*
X02148D02*
D03*
X01738Y02913D02*
D03*
X01648D02*
D03*
X02222Y01342D02*
D03*
X02132D02*
D03*
X026782Y014567D02*
D03*
X025882D02*
D03*
X02675Y0134D02*
D03*
X02585D02*
D03*
X02465Y01344D02*
D03*
X02375D02*
D03*
X02463Y01457D02*
D03*
X02373D02*
D03*
X02221Y01458D02*
D03*
X02131D02*
D03*
X04061Y02178D02*
D03*
X03971D02*
D03*
X04179Y02177D02*
D03*
X04269D02*
D03*
D26*
X03634Y03205D02*
D03*
Y03295D02*
D03*
X03588Y01854D02*
D03*
Y01764D02*
D03*
X03684Y01856D02*
D03*
Y01766D02*
D03*
X03783Y01854D02*
D03*
Y01764D02*
D03*
X04667Y02841D02*
D03*
Y02751D02*
D03*
X04671Y02662D02*
D03*
Y02572D02*
D03*
X02481Y01877D02*
D03*
Y01967D02*
D03*
X03484Y02807D02*
D03*
Y02717D02*
D03*
X03489Y01766D02*
D03*
Y01856D02*
D03*
X0379Y03201D02*
D03*
Y03291D02*
D03*
D27*
X03962Y01735D02*
D03*
Y01635D02*
D03*
Y01535D02*
D03*
Y01435D02*
D03*
Y01335D02*
D03*
D34*
X04368Y024449D02*
D03*
X04308D02*
D03*
X04248D02*
D03*
X04188D02*
D03*
X04128D02*
D03*
X04068D02*
D03*
X04008D02*
D03*
X03948D02*
D03*
D35*
X04428Y025049D02*
D03*
Y025649D02*
D03*
Y026249D02*
D03*
Y026849D02*
D03*
Y027449D02*
D03*
Y028049D02*
D03*
Y028649D02*
D03*
Y029249D02*
D03*
Y029749D02*
D03*
Y030349D02*
D03*
Y030949D02*
D03*
Y031549D02*
D03*
Y032149D02*
D03*
X03893Y025049D02*
D03*
Y025649D02*
D03*
Y026249D02*
D03*
Y026849D02*
D03*
Y027449D02*
D03*
Y027949D02*
D03*
Y028549D02*
D03*
Y029149D02*
D03*
Y029749D02*
D03*
Y030349D02*
D03*
Y030949D02*
D03*
Y031549D02*
D03*
Y032149D02*
D03*
D39*
X015075Y02545D02*
D03*
X015105Y02883D02*
D03*
X015095Y03219D02*
D03*
D40*
X012905Y024548D02*
D03*
Y02545D02*
D03*
Y026352D02*
D03*
X012935Y027928D02*
D03*
Y02883D02*
D03*
Y029732D02*
D03*
X012925Y031288D02*
D03*
Y03219D02*
D03*
Y033092D02*
D03*
D91*
X01114Y02449D02*
D03*
X032722Y011575D02*
D03*
X034222D02*
D03*
X035722D02*
D03*
X015505Y01158D02*
D03*
X014005D02*
D03*
X012505D02*
D03*
X022337Y011575D02*
D03*
X020837D02*
D03*
X019337D02*
D03*
X028992D02*
D03*
X027492D02*
D03*
X025992D02*
D03*
X011169Y02856D02*
D03*
D92*
X01114Y02599D02*
D03*
X011169Y03006D02*
D03*
D93*
X045577Y032502D02*
D03*
Y030533D02*
D03*
D94*
X046775Y032896D02*
D03*
X046505D02*
D03*
X046775Y03014D02*
D03*
X046505D02*
D03*
D95*
X031222Y011575D02*
D03*
X011005Y01158D02*
D03*
X017837Y011575D02*
D03*
X024492D02*
D03*
D96*
X02903Y01286D02*
D03*
Y01384D02*
D03*
X0382Y01966D02*
D03*
Y02067D02*
D03*
Y02165D02*
D03*
Y02266D02*
D03*
X01692Y01398D02*
D03*
Y013D02*
D03*
X01547Y01397D02*
D03*
Y01299D02*
D03*
X0196Y01406D02*
D03*
Y01308D02*
D03*
X01827Y01399D02*
D03*
Y01301D02*
D03*
X01093Y01396D02*
D03*
Y01298D02*
D03*
X00932Y01397D02*
D03*
Y01299D02*
D03*
X01402Y01397D02*
D03*
Y01299D02*
D03*
X01252Y01396D02*
D03*
Y01298D02*
D03*
X03656Y0214D02*
D03*
Y02238D02*
D03*
D97*
X02903Y01485D02*
D03*
X01692Y01499D02*
D03*
X01547Y01498D02*
D03*
X0196Y01507D02*
D03*
X01827Y015D02*
D03*
X01093Y01497D02*
D03*
X00932Y01498D02*
D03*
X01402D02*
D03*
X01252Y01497D02*
D03*
X03656Y02039D02*
D03*
D98*
X01695Y0231D02*
D03*
X01752Y03441D02*
D03*
X03795Y03442D02*
D03*
X03694D02*
D03*
X03596D02*
D03*
X03495D02*
D03*
X03767Y02537D02*
D03*
X03741Y01175D02*
D03*
X03962Y01172D02*
D03*
X03435Y03275D02*
D03*
X03533D02*
D03*
X0353Y02368D02*
D03*
X03628D02*
D03*
X01459Y02308D02*
D03*
X02139Y02312D02*
D03*
X02041D02*
D03*
X025Y02322D02*
D03*
X02402D02*
D03*
X0299Y02462D02*
D03*
X03088D02*
D03*
D99*
X01594Y0231D02*
D03*
X01651Y03441D02*
D03*
X03666Y02537D02*
D03*
X03842Y01175D02*
D03*
X04063Y01172D02*
D03*
X03334Y03275D02*
D03*
X03429Y02368D02*
D03*
X01358Y02308D02*
D03*
X0224Y02312D02*
D03*
X02601Y02322D02*
D03*
X03189Y02462D02*
D03*
D100*
X00906Y03427D02*
D03*
X0461Y03436D02*
D03*
X04612Y00894D02*
D03*
X00891Y00897D02*
D03*
D101*
X02783Y02188D02*
D03*
X02683D02*
D03*
X02583D02*
D03*
X02483D02*
D03*
X02083D02*
D03*
X02183D02*
D03*
X02283D02*
D03*
X02183Y01688D02*
D03*
X02283D02*
D03*
X02783D02*
D03*
X02683D02*
D03*
X02583D02*
D03*
X02483D02*
D03*
X02383Y02188D02*
D03*
Y01688D02*
D03*
X01207Y01683D02*
D03*
X01307D02*
D03*
X01407D02*
D03*
X01507D02*
D03*
X01907D02*
D03*
X01807D02*
D03*
X01707D02*
D03*
X01807Y02183D02*
D03*
X01707D02*
D03*
X01207D02*
D03*
X01307D02*
D03*
X01407D02*
D03*
X01507D02*
D03*
X01607Y01683D02*
D03*
Y02183D02*
D03*
D102*
X02083Y01688D02*
D03*
X01907Y02183D02*
D03*
D103*
X02362Y02642D02*
D03*
X02462D02*
D03*
X02562D02*
D03*
X02662D02*
D03*
X02762D02*
D03*
X02862D02*
D03*
X02962D02*
D03*
X03062D02*
D03*
X03162D02*
D03*
X03262D02*
D03*
D104*
X03193Y0147D02*
D03*
Y0137D02*
D03*
X03293Y0167D02*
D03*
Y0157D02*
D03*
Y0147D02*
D03*
Y0137D02*
D03*
X03193Y0157D02*
D03*
Y0167D02*
D03*
D105*
X024995Y012675D02*
D03*
X025995D02*
D03*
X026995D02*
D03*
Y015675D02*
D03*
X025995D02*
D03*
X024995D02*
D03*
X021095Y012673D02*
D03*
X022095D02*
D03*
X023095D02*
D03*
Y015673D02*
D03*
X022095D02*
D03*
X021095D02*
D03*
D106*
X03619Y030262D02*
D03*
Y02727D02*
D03*
D107*
X02398Y02469D02*
D03*
X02698D02*
D03*
X02598D02*
D03*
X02498D02*
D03*
D108*
X02798D02*
D03*
D109*
X04577Y01169D02*
D03*
X04277D02*
D03*
X04377D02*
D03*
X04477D02*
D03*
X04677D02*
D03*
D110*
X04177D02*
D03*
D111*
X039857Y02022D02*
D03*
X040841D02*
D03*
X041826D02*
D03*
X04281D02*
D03*
X043794D02*
D03*
X03849Y00854D02*
D03*
X03949D02*
D03*
X04054D02*
D03*
X04156D02*
D03*
X04262D02*
D03*
D112*
X044778Y02022D02*
D03*
X03739Y00854D02*
D03*
D113*
X00927Y019728D02*
D03*
Y01776D02*
D03*
D114*
Y021697D02*
D03*
D117*
X045228Y025815D02*
D03*
Y026565D02*
D03*
X045934Y02619D02*
D03*
X045218Y027565D02*
D03*
Y028315D02*
D03*
X045924Y02794D02*
D03*
X034858Y029085D02*
D03*
Y029835D02*
D03*
X035564Y02946D02*
D03*
X02151Y028D02*
D03*
Y02875D02*
D03*
X022216Y028375D02*
D03*
D118*
X04385Y021665D02*
D03*
Y022415D02*
D03*
X04479Y02204D02*
D03*
X04562Y021695D02*
D03*
Y022445D02*
D03*
X04656Y02207D02*
D03*
D119*
X021212Y029596D02*
D03*
Y02997D02*
D03*
Y030344D02*
D03*
X022308D02*
D03*
Y029596D02*
D03*
D120*
X031337Y033354D02*
D03*
Y032961D02*
D03*
Y032567D02*
D03*
Y032173D02*
D03*
Y03178D02*
D03*
Y031386D02*
D03*
Y030992D02*
D03*
Y030598D02*
D03*
Y030205D02*
D03*
Y029811D02*
D03*
Y029417D02*
D03*
Y029024D02*
D03*
Y02863D02*
D03*
Y028236D02*
D03*
Y027843D02*
D03*
Y027449D02*
D03*
Y027055D02*
D03*
X02392D02*
D03*
Y027449D02*
D03*
Y027843D02*
D03*
Y028236D02*
D03*
Y02863D02*
D03*
Y029024D02*
D03*
Y029417D02*
D03*
Y029811D02*
D03*
Y030205D02*
D03*
Y030598D02*
D03*
Y030992D02*
D03*
Y031386D02*
D03*
Y03178D02*
D03*
Y032173D02*
D03*
Y032567D02*
D03*
Y032961D02*
D03*
Y033354D02*
D03*
D121*
X03395Y01294D02*
D03*
X03445D02*
D03*
X03495D02*
D03*
X03545D02*
D03*
X03595D02*
D03*
X03645D02*
D03*
X03695D02*
D03*
X03745D02*
D03*
X03795D02*
D03*
X03845D02*
D03*
Y0167D02*
D03*
X03795D02*
D03*
X03745D02*
D03*
X03695D02*
D03*
X03645D02*
D03*
X03595D02*
D03*
X03545D02*
D03*
X03495D02*
D03*
X03445D02*
D03*
X03395D02*
D03*
D122*
X02041Y020295D02*
D03*
X02091D02*
D03*
X02141D02*
D03*
X02191D02*
D03*
X02241D02*
D03*
X02291D02*
D03*
X02341D02*
D03*
Y018245D02*
D03*
X02291D02*
D03*
X02241D02*
D03*
X02191D02*
D03*
X02141D02*
D03*
X02091D02*
D03*
X02041D02*
D03*
M02*
