G04*
G04 #@! TF.GenerationSoftware,Altium Limited,Altium Designer,18.1.6 (161)*
G04*
G04 Layer_Color=8421504*
%FSTAX24Y24*%
%MOIN*%
G70*
G01*
G75*
%ADD16R,0.0750X0.0590*%
%ADD17R,0.0530X0.0160*%
%ADD18O,0.0750X0.0480*%
%ADD19R,0.0787X0.0591*%
%ADD20R,0.0591X0.0787*%
%ADD21R,0.1240X0.0630*%
%ADD22R,0.0500X0.0870*%
%ADD23R,0.0500X0.0550*%
%ADD24R,0.1540X0.0390*%
%ADD25R,0.4510X0.4110*%
%ADD26R,0.0550X0.0500*%
%ADD27O,0.0800X0.0600*%
%ADD28R,0.0850X0.0650*%
%ADD29R,0.0315X0.0315*%
%ADD30R,0.0315X0.0315*%
%ADD31R,0.0630X0.1004*%
%ADD32R,0.0080X0.0380*%
%ADD33R,0.0380X0.0080*%
%ADD34O,0.0400X0.0600*%
%ADD35O,0.0600X0.0400*%
%ADD36O,0.0600X0.0400*%
%ADD37R,0.0580X0.0090*%
%ADD38R,0.0090X0.0580*%
%ADD39R,0.0980X0.1260*%
%ADD40R,0.0980X0.0350*%
G36*
X047015Y032436D02*
X046265D01*
Y032896D01*
X047015D01*
Y032436D01*
D02*
G37*
G36*
X043261Y031909D02*
X042679D01*
Y032491D01*
X043261D01*
Y031909D01*
D02*
G37*
G36*
X042601D02*
X042019D01*
Y032491D01*
X042601D01*
Y031909D01*
D02*
G37*
G36*
X043261Y031249D02*
X042679D01*
Y031831D01*
X043261D01*
Y031249D01*
D02*
G37*
G36*
X042601D02*
X042019D01*
Y031831D01*
X042601D01*
Y031249D01*
D02*
G37*
G36*
X047015Y03014D02*
X046265D01*
Y0306D01*
X047015D01*
Y03014D01*
D02*
G37*
D16*
X04664Y031911D02*
D03*
Y031124D02*
D03*
D17*
X045587Y032029D02*
D03*
Y031774D02*
D03*
Y031518D02*
D03*
Y031262D02*
D03*
Y031006D02*
D03*
D18*
X04664Y03014D02*
D03*
Y032896D02*
D03*
D19*
X020453Y02483D02*
D03*
X018327D02*
D03*
D20*
X02152Y028563D02*
D03*
Y026437D02*
D03*
X01913Y028763D02*
D03*
Y026637D02*
D03*
X02152Y032613D02*
D03*
Y030487D02*
D03*
X01917Y030477D02*
D03*
Y032603D02*
D03*
D21*
X024119Y01926D02*
D03*
X02219D02*
D03*
X01401D02*
D03*
X012081D02*
D03*
D22*
X04073Y02973D02*
D03*
X03971D02*
D03*
D23*
X04276Y02971D02*
D03*
X04186D02*
D03*
X03506Y02518D02*
D03*
X03416D02*
D03*
X04473Y03342D02*
D03*
X04383D02*
D03*
X04473Y03461D02*
D03*
X04383D02*
D03*
X0422Y03462D02*
D03*
X0413D02*
D03*
X04025D02*
D03*
X03935D02*
D03*
D24*
X012735Y027961D02*
D03*
Y030039D02*
D03*
D25*
X01623Y029D02*
D03*
D26*
X02353Y03263D02*
D03*
Y03173D02*
D03*
X02655Y03261D02*
D03*
Y03171D02*
D03*
X02755D02*
D03*
Y03261D02*
D03*
X02993Y03172D02*
D03*
Y03262D02*
D03*
X02559Y03171D02*
D03*
Y03261D02*
D03*
X02872Y032613D02*
D03*
Y031713D02*
D03*
X03974Y03178D02*
D03*
Y03088D02*
D03*
X0246Y03169D02*
D03*
Y03259D02*
D03*
X01298Y02561D02*
D03*
Y02471D02*
D03*
X04456Y00835D02*
D03*
Y00925D02*
D03*
D27*
X03702Y013295D02*
D03*
Y014083D02*
D03*
Y01487D02*
D03*
Y015657D02*
D03*
Y016445D02*
D03*
D28*
Y017232D02*
D03*
D29*
X02351Y033345D02*
D03*
Y033975D02*
D03*
X02548Y033358D02*
D03*
Y033988D02*
D03*
X02474Y033365D02*
D03*
Y033995D02*
D03*
X03971Y03289D02*
D03*
Y03352D02*
D03*
X02753Y033351D02*
D03*
Y033981D02*
D03*
X03394Y033835D02*
D03*
Y034465D02*
D03*
X0266Y033395D02*
D03*
Y034025D02*
D03*
X02871Y03332D02*
D03*
Y03395D02*
D03*
X029915Y03329D02*
D03*
Y03392D02*
D03*
X03729Y032945D02*
D03*
Y032315D02*
D03*
D30*
X046665Y02935D02*
D03*
X046035D02*
D03*
D31*
X01107Y034259D02*
D03*
Y032881D02*
D03*
D32*
X043231Y030955D02*
D03*
X043034D02*
D03*
X042837D02*
D03*
X04264D02*
D03*
X042443D02*
D03*
X042246D02*
D03*
X042049D02*
D03*
Y032785D02*
D03*
X042246D02*
D03*
X042443D02*
D03*
X04264D02*
D03*
X042837D02*
D03*
X043034D02*
D03*
X043231D02*
D03*
D33*
X041725Y031279D02*
D03*
Y031476D02*
D03*
Y031673D02*
D03*
Y03187D02*
D03*
Y032067D02*
D03*
Y032264D02*
D03*
Y032461D02*
D03*
X043555D02*
D03*
Y032264D02*
D03*
Y032067D02*
D03*
Y03187D02*
D03*
Y031673D02*
D03*
Y031476D02*
D03*
Y031279D02*
D03*
D34*
X039973Y02828D02*
D03*
X04076D02*
D03*
X041548D02*
D03*
X042335D02*
D03*
X045485D02*
D03*
X043123D02*
D03*
X04391D02*
D03*
X044697D02*
D03*
X045485Y021981D02*
D03*
X044697D02*
D03*
X04391D02*
D03*
X043123D02*
D03*
X042335D02*
D03*
X041548D02*
D03*
X04076D02*
D03*
X039973D02*
D03*
D35*
X039393Y02711D02*
D03*
Y02631D02*
D03*
Y02473D02*
D03*
Y02393D02*
D03*
Y02313D02*
D03*
D36*
Y02551D02*
D03*
D37*
X02911Y021043D02*
D03*
Y020846D02*
D03*
Y020649D02*
D03*
Y020452D02*
D03*
Y020255D02*
D03*
Y020058D02*
D03*
Y019862D02*
D03*
Y019665D02*
D03*
Y019468D02*
D03*
Y019271D02*
D03*
Y019074D02*
D03*
Y018877D02*
D03*
X03243D02*
D03*
Y019074D02*
D03*
Y019271D02*
D03*
Y019468D02*
D03*
Y019665D02*
D03*
Y019862D02*
D03*
Y020058D02*
D03*
Y020255D02*
D03*
Y020452D02*
D03*
Y020649D02*
D03*
Y020846D02*
D03*
Y021043D02*
D03*
D38*
X029687Y0183D02*
D03*
X029884D02*
D03*
X030081D02*
D03*
X030278D02*
D03*
X030475D02*
D03*
X030672D02*
D03*
X030868D02*
D03*
X031065D02*
D03*
X031262D02*
D03*
X031459D02*
D03*
X031656D02*
D03*
X031853D02*
D03*
Y02162D02*
D03*
X031656D02*
D03*
X031459D02*
D03*
X031262D02*
D03*
X031065D02*
D03*
X030868D02*
D03*
X030672D02*
D03*
X030475D02*
D03*
X030278D02*
D03*
X030081D02*
D03*
X029884D02*
D03*
X029687D02*
D03*
D39*
X01691Y02546D02*
D03*
D40*
X01474Y024558D02*
D03*
Y02546D02*
D03*
Y026362D02*
D03*
M02*
