G04*
G04 #@! TF.GenerationSoftware,Altium Limited,Altium Designer,18.1.6 (161)*
G04*
G04 Layer_Physical_Order=2*
G04 Layer_Color=16711680*
%FSTAX24Y24*%
%MOIN*%
G70*
G01*
G75*
%ADD13C,0.0080*%
%ADD23R,0.0500X0.0550*%
%ADD26R,0.0550X0.0500*%
%ADD27O,0.0800X0.0600*%
%ADD34O,0.0400X0.0600*%
%ADD35O,0.0600X0.0400*%
%ADD39R,0.0980X0.1260*%
%ADD40R,0.0980X0.0350*%
%ADD86C,0.0130*%
%ADD87C,0.0120*%
%ADD88C,0.0100*%
%ADD89C,0.0138*%
%ADD91C,0.0827*%
%ADD92R,0.0827X0.0827*%
%ADD93C,0.0570*%
%ADD94C,0.0240*%
%ADD95R,0.0827X0.0827*%
%ADD96O,0.0750X0.0650*%
%ADD97R,0.0750X0.0650*%
%ADD98O,0.0650X0.0750*%
%ADD99R,0.0650X0.0750*%
%ADD100C,0.1220*%
%ADD101C,0.0650*%
%ADD102R,0.0650X0.0650*%
%ADD103C,0.0600*%
%ADD104O,0.0860X0.0600*%
%ADD105C,0.0512*%
%ADD106C,0.0669*%
%ADD107O,0.0650X0.0900*%
%ADD108R,0.0650X0.0900*%
%ADD109O,0.0650X0.0850*%
%ADD110R,0.0650X0.0850*%
%ADD111O,0.0650X0.0850*%
%ADD112R,0.0650X0.0850*%
%ADD113C,0.0768*%
%ADD114R,0.0768X0.0768*%
%ADD115C,0.0236*%
%ADD116C,0.0240*%
%ADD117R,0.0520X0.0220*%
%ADD118R,0.0340X0.0220*%
%ADD119R,0.0445X0.0170*%
%ADD120R,0.1000X0.0256*%
%ADD121R,0.0210X0.0710*%
%ADD122R,0.0210X0.0670*%
%ADD123C,0.0110*%
G36*
X01418Y021343D02*
Y019263D01*
X014176Y019259D01*
X014281Y019154D01*
X014924D01*
X015025Y019263D01*
Y019317D01*
Y021243D01*
X014924Y021394D01*
X014313D01*
X014281Y021362D01*
X014185Y021266D01*
X01418Y021343D01*
D02*
G37*
G36*
X01893Y01945D02*
D01*
D02*
G37*
G36*
X018833Y019053D02*
X018833Y018807D01*
X01895Y018675D01*
X019123Y018643D01*
X019312Y018748D01*
X019397Y018986D01*
X021618Y018986D01*
X021675Y018847D01*
X022478Y018845D01*
X022623Y018959D01*
Y019176D01*
X022277Y019415D01*
X021559Y019415D01*
X0189Y019415D01*
X018833Y019328D01*
Y019053D01*
D02*
G37*
G36*
X009505Y023802D02*
Y022804D01*
X009677Y022691D01*
X013928D01*
X01399Y022801D01*
X013987Y023903D01*
X013928Y023937D01*
X013866Y023962D01*
X009722Y023937D01*
X009505Y023802D01*
D02*
G37*
G36*
X014259Y023435D02*
X014259Y022649D01*
X0145Y022408D01*
X016582D01*
X016811Y022637D01*
X017279D01*
X017363Y022721D01*
X017363Y02342D01*
X017259Y023524D01*
X016526D01*
X016429Y023428D01*
X016429Y02275D01*
X016296Y022637D01*
X016267D01*
X015492D01*
X015315Y022814D01*
Y023433D01*
X015195Y023553D01*
X014377D01*
X014259Y023435D01*
D02*
G37*
G36*
X012265Y033885D02*
Y033708D01*
X011745Y03313D01*
Y032845D01*
X01159Y032775D01*
X011385Y032865D01*
Y033335D01*
X011902Y033852D01*
X01206Y033955D01*
X012265Y033935D01*
Y033895D01*
Y033885D01*
D02*
G37*
G36*
X015245Y03399D02*
X015355Y0341D01*
Y03464D01*
X015244Y034735D01*
X0143D01*
X014195Y034615D01*
Y0341D01*
X01425Y03399D01*
X0143D01*
X014375D01*
X015245Y03399D01*
D02*
G37*
D13*
X01396Y01298D02*
X01402Y01304D01*
X023268Y0203D02*
X02376D01*
X02158Y02978D02*
Y02997D01*
X03489Y01766D02*
X03684D01*
X02798Y02481D02*
X0299D01*
X031337Y029435D02*
X03395D01*
X04658Y02207D02*
Y02417D01*
X033084Y024054D02*
X03309Y02406D01*
X033095Y024045D02*
X0331Y02405D01*
X031818Y0238D02*
X031873Y023855D01*
X028453Y0238D02*
X031818D01*
X033588Y023627D02*
X033595Y02362D01*
X028529Y023627D02*
X033588D01*
X023928Y031D02*
X023966Y030962D01*
X027263Y023638D02*
X028517D01*
X027105Y02348D02*
X027263Y023638D01*
X028517D02*
X028529Y023627D01*
X030669Y023138D02*
X03097Y022837D01*
X028335Y02292D02*
X028553Y023138D01*
X030669D01*
X028487Y023298D02*
X030735D01*
X028357Y023168D02*
X028487Y023298D01*
X031021Y023012D02*
X032372D01*
X030735Y023298D02*
X031021Y023012D01*
X032372D02*
X032435Y023075D01*
X028298Y023458D02*
X030801D01*
X031009Y02325D02*
X03131D01*
X030801Y023458D02*
X031009Y02325D01*
X034042Y022837D02*
X0341Y022895D01*
X03097Y022837D02*
X034042D01*
X0275Y02293D02*
X02751Y02292D01*
X034204Y022662D02*
X036278D01*
X034199Y022657D02*
X034204Y022662D01*
X034001Y022657D02*
X034199D01*
X033996Y022662D02*
X034001Y022657D01*
X030453Y022662D02*
X033996D01*
X04569Y022445D02*
Y023545D01*
X04473Y02265D02*
Y02305D01*
X044495Y022415D02*
X04473Y02265D01*
X04385Y022415D02*
X044495D01*
X040162Y02371D02*
X043275D01*
X040122Y02375D02*
X040162Y02371D01*
X03435Y02368D02*
X03489Y02314D01*
X03429Y02368D02*
X03435D01*
X03489Y02314D02*
X0418D01*
X024175Y021435D02*
X02424Y0215D01*
X022445Y021435D02*
X024175D01*
X02424Y0215D02*
X024255Y021515D01*
X027917Y020258D02*
X031587D01*
X02496Y02073D02*
X02554Y02131D01*
X02418Y02073D02*
X02496D01*
X024405Y020485D02*
Y020555D01*
X02439Y02057D02*
X024405Y020555D01*
X01596Y0175D02*
X01598D01*
X01556Y0171D02*
X01596Y0175D01*
X015779Y01624D02*
X01579D01*
X01556Y016459D02*
X015779Y01624D01*
X022295Y022415D02*
X02283Y02188D01*
X019905Y022335D02*
X019985Y022415D01*
X0248Y02032D02*
X025515Y021035D01*
X03137Y01832D02*
X031445Y018245D01*
X02375Y014028D02*
X023765D01*
X021333D02*
X02375D01*
X020343Y018248D02*
X020375Y01828D01*
X02022Y02992D02*
Y03019D01*
X02006Y03035D02*
X02022Y03019D01*
X01979Y03035D02*
X02006D01*
X01832Y02621D02*
X01868Y02657D01*
X019715D01*
X032428Y02437D02*
X03805D01*
X03761Y02463D02*
Y024634D01*
X037215Y024875D02*
X038756D01*
X032553Y024054D02*
X033084D01*
X03309Y02406D02*
X0331Y02405D01*
X01327Y02307D02*
X01343Y02323D01*
X01Y02321D02*
X01311D01*
X03085Y02074D02*
Y020868D01*
X03135Y021368D02*
X032398D01*
X03085Y020868D02*
X03135Y021368D01*
X032715Y0213D02*
Y021825D01*
X03241Y020995D02*
X032715Y0213D01*
X03241Y02083D02*
Y020995D01*
X03196Y020585D02*
Y02086D01*
Y020585D02*
X032197Y020348D01*
X03151Y02083D02*
X03154Y02086D01*
X03196D01*
X033355Y018575D02*
X034705D01*
Y019015D01*
X03334Y019253D02*
X035247D01*
X032999Y018912D02*
X03334Y019253D01*
X035247D02*
X03556Y01894D01*
X03439Y01488D02*
X035937D01*
X03158Y020251D02*
X031587Y020258D01*
X041955Y02136D02*
X043545D01*
X04179Y021525D02*
X041955Y02136D01*
X04179Y021525D02*
Y02177D01*
X044467Y02417D02*
X04658D01*
Y024411D01*
X0458Y02687D02*
X045934Y026736D01*
Y02619D02*
Y026736D01*
X04524Y02687D02*
X0458D01*
X0451Y02701D02*
X04524Y02687D01*
X022352Y02964D02*
X022357Y029635D01*
X02235Y02564D02*
X02237Y02562D01*
X04115Y02745D02*
X041172Y027472D01*
X04122Y030925D02*
X043515D01*
X040458Y031687D02*
X04122Y030925D01*
X040458Y031687D02*
Y032808D01*
X04059Y03294D02*
X04173D01*
X040458Y032808D02*
X04059Y03294D01*
X042755Y034378D02*
X044479D01*
X039857D02*
X042755D01*
X02824Y0234D02*
X028298Y023458D01*
X028451Y023798D02*
X028453Y0238D01*
X025578Y023798D02*
X028451D01*
X028387Y02396D02*
X03011D01*
X028385Y023958D02*
X028387Y02396D01*
X025492Y023958D02*
X028385D01*
X02668Y02412D02*
X02879D01*
X028345Y023168D02*
X028357D01*
X028339Y023162D02*
X028345Y023168D01*
X02465Y01343D02*
Y01344D01*
X024185Y012965D02*
X02465Y01343D01*
X023505Y012965D02*
X024185D01*
X026995Y015673D02*
X027285Y015963D01*
X033495Y01505D02*
X033545Y0151D01*
X03645D01*
X03737Y01528D02*
Y01606D01*
X03419Y01587D02*
X0353D01*
X033505Y01538D02*
X03419D01*
X033732Y015622D02*
X035782D01*
X03645Y01629D01*
X028383Y01616D02*
X028661Y015882D01*
X03348Y015874D02*
X033732Y015622D01*
X02768Y01095D02*
X02972D01*
X03343Y01699D02*
X03372Y0167D01*
X034742Y017273D02*
X03495Y017065D01*
X033326Y017273D02*
X034742D01*
X033323Y01727D02*
X033326Y017273D01*
X03343Y01699D02*
Y017035D01*
X032537Y01727D02*
X033323D01*
X029592Y018842D02*
X030665D01*
X031761Y018912D02*
X032999D01*
X033259Y018924D02*
X03377D01*
X03218Y01863D02*
X032258Y018708D01*
X032979D01*
X032982Y018705D02*
X03304D01*
X032979Y018708D02*
X032982Y018705D01*
X03304D02*
X033259Y018924D01*
X031605Y019068D02*
X031761Y018912D01*
X03288Y01847D02*
X03295D01*
X033138Y018282D01*
X036946Y018666D02*
Y018901D01*
X03707Y019025D01*
X037355D01*
X043105D01*
X037345Y019015D02*
X037355Y019025D01*
X037345Y018845D02*
Y019015D01*
X03629Y01894D02*
X036555Y019205D01*
X03684Y01856D02*
X036946Y018666D01*
X036555Y019205D02*
X045705D01*
X02392Y027055D02*
X03047D01*
X040138Y029138D02*
Y030445D01*
X040143Y03045D02*
X0408D01*
X040138Y030445D02*
X040143Y03045D01*
X040138Y030445D02*
Y032948D01*
X039976Y03311D02*
X040138Y032948D01*
X038953Y03311D02*
X039976D01*
X038951Y033108D02*
X038953Y03311D01*
X03991Y03295D02*
X039978Y032882D01*
X03902Y03295D02*
X03991D01*
X03894Y03287D02*
X03902Y03295D01*
X038628Y033108D02*
X038951D01*
X039299Y032629D02*
X03938Y03271D01*
X038541Y032629D02*
X039299D01*
X03826Y03291D02*
X038541Y032629D01*
X0379Y03291D02*
X03826D01*
X02018Y02855D02*
X020459D01*
X020659Y02875D01*
X021937Y029148D02*
X02195Y02916D01*
X02101Y025314D02*
X021026Y02533D01*
X01926Y02414D02*
X019282Y024162D01*
X011765Y022275D02*
X016643D01*
X018512Y022482D02*
X01874Y02271D01*
X01685Y022482D02*
X018512D01*
X019033Y022837D02*
X019255Y022615D01*
X019033Y022837D02*
Y022844D01*
X018894Y022983D02*
X019033Y022844D01*
X018887Y022983D02*
X018894D01*
X01886Y02301D02*
X018887Y022983D01*
X01869Y02537D02*
Y02607D01*
Y02537D02*
X018912Y025148D01*
X019842D01*
X029017Y025322D02*
X032382D01*
X03243Y02537D01*
X029045Y02535D02*
Y025363D01*
X029017Y025322D02*
X029045Y02535D01*
X024088Y025608D02*
X030772D01*
X02408Y0256D02*
X024088Y025608D01*
X030772D02*
X03086Y02552D01*
X028585Y02527D02*
X02874Y025115D01*
X038025Y033618D02*
X040751D01*
X04076Y033609D01*
X04428Y03217D02*
X044558Y031892D01*
X044274Y024485D02*
X044299Y02451D01*
X037887Y03348D02*
X038025Y033618D01*
X04242Y033822D02*
X042446Y033848D01*
X037898D02*
X042446D01*
X04242Y03382D02*
Y033822D01*
X02746Y03065D02*
X02747Y03066D01*
X02518Y03507D02*
X025185D01*
X02518Y03065D02*
X02746D01*
X02513Y03502D02*
X02518Y03507D01*
X016985Y03219D02*
X01725Y031925D01*
Y03159D02*
Y031925D01*
Y03159D02*
X01774D01*
X015095Y03219D02*
X016985D01*
X01645Y01347D02*
X01692Y013D01*
X01043Y01347D02*
X01645D01*
X0265Y0243D02*
X02668Y02412D01*
X02879D02*
X0291Y02443D01*
X03011Y02396D02*
X03025Y0241D01*
X0276Y023162D02*
X028339D01*
X043105Y019025D02*
X04324Y01889D01*
X022041Y03486D02*
X02232Y034581D01*
X018509Y03486D02*
X022041D01*
X018325Y034676D02*
X018509Y03486D01*
X020802Y033802D02*
X02083Y03383D01*
X020802Y032882D02*
Y033802D01*
X020865Y03383D02*
X021275Y03424D01*
X02083Y03383D02*
X020865D01*
X021275Y03424D02*
X02142D01*
X01983Y03383D02*
X02083D01*
X04281Y0288D02*
X04289Y02872D01*
X04311Y02931D02*
X04314Y02928D01*
X04311Y02931D02*
Y03025D01*
X044712Y029852D02*
X04478Y02992D01*
X044712Y028888D02*
Y029852D01*
X0331Y024045D02*
X033115D01*
X033095D02*
X0331D01*
X03303D02*
X033095D01*
X033115D02*
X033255Y024185D01*
X01959Y02441D02*
X02054D01*
X019565Y024435D02*
X01959Y02441D01*
X026168Y020142D02*
X027801D01*
X02612Y02019D02*
X026168Y020142D01*
X027801D02*
X027917Y020258D01*
X027253Y020418D02*
X030948D01*
X02723Y020395D02*
X027253Y020418D01*
X030948D02*
X03106Y02053D01*
X031122Y020098D02*
X03154Y01968D01*
X028046Y020098D02*
X031122D01*
X03154Y01968D02*
X031619D01*
X025711Y020715D02*
X028891D01*
X025581Y020875D02*
X028825D01*
X025515Y021035D02*
X028665D01*
X02547Y020474D02*
X025711Y020715D01*
X02522Y020514D02*
X025581Y020875D01*
X022362Y02964D02*
X02313D01*
X022357Y029635D02*
X022362Y02964D01*
X0256Y012255D02*
X038535D01*
X023511Y027449D02*
X02392D01*
X02319Y027128D02*
X023511Y027449D01*
X02319Y025515D02*
Y027128D01*
X02301Y027285D02*
X02313Y027405D01*
X02301Y02623D02*
Y027285D01*
X02313Y027405D02*
Y027406D01*
X02282Y02763D02*
Y027665D01*
X02239Y0272D02*
X02282Y02763D01*
X02239Y02716D02*
Y0272D01*
X023839Y027923D02*
X02392Y027843D01*
X022029Y027762D02*
X02219Y027923D01*
X023839D01*
X02341Y02438D02*
X02345Y02442D01*
X02153Y02438D02*
X02341D01*
X019282Y024162D02*
X020667D01*
X02105Y024545D01*
Y025274D01*
X02615Y01766D02*
X026185Y017695D01*
X02312Y01766D02*
X02615D01*
X02307D02*
X02312D01*
X022532Y017512D02*
X02291Y01789D01*
X021308Y017512D02*
X022532D01*
X02291Y01987D02*
X02301Y01977D01*
X02359D01*
X022591Y019589D02*
X023849D01*
X02101Y01871D02*
X02369D01*
X022602Y019351D02*
X023124D01*
X02191Y020044D02*
X022602Y019351D01*
X023215Y020353D02*
Y0206D01*
Y020353D02*
X023268Y0203D01*
X02291Y01789D02*
Y018245D01*
X02089Y01883D02*
X02101Y01871D01*
X02191Y020044D02*
Y020295D01*
X02089Y018778D02*
Y01883D01*
X02089Y01883D01*
X02291Y01987D02*
Y020295D01*
X02129Y01753D02*
X021308Y017512D01*
X02291Y020295D02*
Y0206D01*
X02359Y01977D02*
X02439Y02057D01*
X023849Y019589D02*
X02405Y01979D01*
X023093Y022335D02*
X02637D01*
X023443Y022522D02*
X028086D01*
X022845Y02312D02*
X023443Y022522D01*
X023715Y022682D02*
X028792D01*
X022767Y02363D02*
X023715Y022682D01*
X02976Y02077D02*
X03046D01*
X027828Y01988D02*
X028046Y020098D01*
X028147Y019938D02*
X030552D01*
X027836Y019627D02*
X028147Y019938D01*
X030162Y019778D02*
X03028Y01966D01*
X028214Y019778D02*
X030162D01*
X027831Y019395D02*
X028214Y019778D01*
X02598Y01988D02*
X027828D01*
X028825Y020875D02*
X029158Y021208D01*
X028665Y021035D02*
X02925Y02162D01*
X029206Y02103D02*
X03065D01*
X028891Y020715D02*
X029206Y02103D01*
X029158Y021208D02*
X030183D01*
X0296Y01917D02*
X02997Y01954D01*
X02993Y01916D02*
X030088Y019002D01*
X018385Y03502D02*
X02513D01*
X018087Y034722D02*
X018385Y03502D01*
X018087Y0347D02*
Y034722D01*
X018325Y03441D02*
Y034676D01*
X01927Y03274D02*
X01949Y03296D01*
X01835Y03274D02*
X01927D01*
X015328Y035258D02*
X025284D01*
X022533Y034768D02*
X025392D01*
X022525Y03476D02*
X022533Y034768D01*
X020531Y026991D02*
X021302Y027762D01*
X022029D01*
X02874Y025115D02*
X03128D01*
X03135Y025045D01*
X02517Y025802D02*
X031798D01*
X03189Y02571D01*
X022715Y02527D02*
X028585D01*
X028443Y01894D02*
X028515Y018868D01*
X038309Y027409D02*
X03889D01*
X03893Y027449D01*
X03858Y02343D02*
X038589Y023421D01*
X040403D01*
X038547Y025963D02*
Y025982D01*
X008431Y026991D02*
X020531D01*
X00842Y02698D02*
X008431Y026991D01*
X01368Y03087D02*
X013695D01*
X012935Y030125D02*
X01368Y03087D01*
X028735Y0312D02*
X02993D01*
X027535D02*
X028735D01*
X029415Y030927D02*
Y030967D01*
Y030915D02*
Y030927D01*
X031272D01*
X029375D02*
X029415D01*
X029375D02*
X029415Y030967D01*
X031272Y030927D02*
X031337Y030992D01*
X027525Y03121D02*
X027535Y0312D01*
X01861Y020265D02*
X018615Y02027D01*
X020385D02*
X02041Y020295D01*
X018615Y02027D02*
X020385D01*
X020038Y01642D02*
X02437D01*
X03545Y01294D02*
Y01347D01*
X03652Y00925D02*
X03697Y0097D01*
X024843Y00925D02*
X024843Y00925D01*
X010986Y00925D02*
X024843D01*
X010985Y00925D02*
X010986Y00925D01*
X01068Y00925D02*
X010985D01*
X00857Y01136D02*
X01068Y00925D01*
X024776Y00941D02*
X024777Y00941D01*
X011052Y00941D02*
X024776D01*
X011052Y00941D02*
X011052Y00941D01*
X01095Y00941D02*
X011052D01*
X00875Y01161D02*
X01095Y00941D01*
X03545Y013475D02*
Y01348D01*
X035455Y01347D02*
Y013475D01*
X03206Y01006D02*
X033575Y011575D01*
X02606Y01006D02*
X03206D01*
X035872Y009572D02*
X0367Y0104D01*
X025648Y009572D02*
X035872D01*
X03628Y00941D02*
X03696Y01009D01*
X024777Y00941D02*
X03628D01*
X024843Y00925D02*
X03652D01*
X01113Y0085D02*
X011155Y008525D01*
X01312D01*
X03472Y00981D02*
X03515Y01024D01*
X02577Y00981D02*
X03472D01*
X033142Y008985D02*
X036647D01*
X033115Y009012D02*
X033142Y008985D01*
X036647D02*
X037057Y009395D01*
X034645Y01269D02*
Y012715D01*
X03466Y01273D01*
X03445Y01294D02*
X03466Y01273D01*
X034812Y012452D02*
X03495Y01259D01*
X029268Y013315D02*
X030132Y012452D01*
X034812D01*
X03495Y01259D02*
Y01294D01*
X037011Y009095D02*
X041445D01*
X016395Y011575D02*
X017837D01*
X027215Y018595D02*
X02722Y0186D01*
X02853D01*
X029275Y017082D02*
X031362D01*
X029269Y017088D02*
X029275Y017082D01*
X029242Y017088D02*
X029269D01*
X02916Y01717D02*
X029242Y017088D01*
X030088Y019002D02*
X030599D01*
X02992Y02291D02*
X02993Y0229D01*
X030101Y02231D02*
X030453Y022662D01*
X036278D02*
X03656Y02238D01*
X030969Y022338D02*
X031277Y02203D01*
X0299Y021656D02*
X030582Y022338D01*
X030969D01*
X03249Y01521D02*
X032955Y015675D01*
X031158Y022375D02*
X03156D01*
X031035Y022498D02*
X031158Y022375D01*
X030516Y022498D02*
X031035D01*
X030167Y02215D02*
X030516Y022498D01*
X03215Y02203D02*
X03235Y02183D01*
X031277Y02203D02*
X03215D01*
X032398Y021368D02*
X03242Y02139D01*
X044007Y02371D02*
X044467Y02417D01*
X03948Y024392D02*
X040122Y02375D01*
X03948Y024392D02*
Y024449D01*
X039902Y025622D02*
Y025982D01*
X040152Y026232D01*
X044263D01*
X039492Y026811D02*
Y032238D01*
X03893Y026249D02*
X039492Y026811D01*
X039261Y032469D02*
X039492Y032238D01*
X043625Y02289D02*
Y023685D01*
X043383Y022648D02*
X043625Y02289D01*
X042215Y022648D02*
X043383D01*
X04376Y024936D02*
Y02551D01*
Y024936D02*
X04401Y024686D01*
X043753Y026482D02*
X04376Y026475D01*
X043753Y026482D02*
Y030525D01*
X04268Y02762D02*
X0427Y02764D01*
X0461Y02451D02*
X046135D01*
X044299D02*
X0461D01*
X045815Y02751D02*
X04667D01*
X04581Y027505D02*
X045815Y02751D01*
X044249Y02451D02*
X044274Y024485D01*
X04548Y0298D02*
X046Y03032D01*
X04546Y0298D02*
X04548D01*
X0398Y03437D02*
X039849D01*
X045142Y03015D02*
X04525D01*
X044739Y030553D02*
X045142Y03015D01*
X04428Y032149D02*
Y03217D01*
X044558Y031892D02*
X044708D01*
X040779Y032149D02*
X04428D01*
X044708Y031892D02*
X04479Y03181D01*
X04511Y03341D02*
X04532Y0332D01*
X04428Y03341D02*
X04511D01*
X033235Y034305D02*
X033565D01*
X03316Y03423D02*
X033235Y034305D01*
X031228Y034558D02*
X0314Y03473D01*
X025392Y034768D02*
X025704Y03508D01*
X023718Y034558D02*
X031228D01*
X022323Y034243D02*
X024108D01*
X02232Y03424D02*
X022323Y034243D01*
X011118Y00957D02*
X02471D01*
X00932Y011368D02*
Y01299D01*
Y011368D02*
X011118Y00957D01*
X010995Y011585D02*
X011Y01158D01*
X009845Y011585D02*
X010995D01*
X011865Y032775D02*
X012187Y033097D01*
X011865Y028415D02*
Y032775D01*
X03385Y019863D02*
X037683D01*
X032993D02*
X03385D01*
X033858Y019871D01*
Y02007D01*
X03805Y0268D02*
X03806Y02679D01*
X03588Y0268D02*
X03805D01*
X03423Y0338D02*
X03448Y03405D01*
X03275Y0338D02*
X03423D01*
X033955Y02944D02*
Y029515D01*
Y029035D02*
Y02944D01*
X03395Y029435D02*
X033955Y02944D01*
X017145Y015435D02*
X01723Y01552D01*
X014615Y015435D02*
X017145D01*
X01459Y01541D02*
X014615Y015435D01*
X032234Y01712D02*
X032264Y01709D01*
X028585Y019168D02*
X02861Y019143D01*
X026278Y019168D02*
X028585D01*
X02627Y01916D02*
X026278Y019168D01*
X02861Y019131D02*
Y019143D01*
X02813Y01893D02*
X02814Y01894D01*
X028443D01*
X02596Y019395D02*
X027831D01*
X02456Y01464D02*
X024645Y014725D01*
X01707Y019275D02*
Y02183D01*
Y019275D02*
X018577Y017768D01*
X022142D01*
X02235Y02153D02*
X022445Y021435D01*
X022331Y02153D02*
X02235D01*
X02479Y02033D02*
X0248Y02032D01*
X02479Y01969D02*
Y02033D01*
X026373Y022278D02*
Y022332D01*
X022528Y024128D02*
X02255Y02415D01*
X02184Y02389D02*
X022733D01*
X023403Y02322D01*
X02157Y02484D02*
X022285D01*
X022715Y02527D01*
X02462Y02642D02*
X02504Y02684D01*
X026794D01*
X018705Y031285D02*
X019295D01*
X01932Y03131D01*
X01177Y02228D02*
X01178D01*
X011765Y022275D02*
X01177Y02228D01*
X01547Y01261D02*
X0158Y01228D01*
X01547Y01261D02*
Y01299D01*
X0158Y01228D02*
X02497D01*
X01725Y00986D02*
X021005D01*
X016615Y010495D02*
X01725Y00986D01*
X024645Y014725D02*
Y01503D01*
X025601Y01528D02*
X025995Y015673D01*
X023377Y01528D02*
X025601D01*
X02294Y014843D02*
X023377Y01528D01*
X02375Y014028D02*
Y014057D01*
Y014013D02*
Y014028D01*
Y014013D02*
X023765Y014028D01*
X02375Y01344D02*
Y014013D01*
X02373Y014077D02*
X02375Y014057D01*
X02373Y014077D02*
Y01457D01*
X023765Y014028D02*
X025882D01*
X02133Y014025D02*
Y01456D01*
Y01343D02*
Y014025D01*
X021333Y014028D01*
X025882D02*
X02589Y01402D01*
X02131Y01458D02*
X02133Y01456D01*
X02132Y01342D02*
X02133Y01343D01*
X0146Y01741D02*
X014612Y017398D01*
X0266Y01513D02*
Y015915D01*
X026255Y01626D02*
X0266Y015915D01*
X021682Y01626D02*
X026255D01*
X0266Y01513D02*
X026782Y014948D01*
X036656Y00874D02*
X037011Y009095D01*
X02712Y00878D02*
X036656Y00874D01*
X020605Y0103D02*
X02062Y010285D01*
X01719Y0103D02*
X020605D01*
X037057Y009395D02*
X039435D01*
X04088Y01352D02*
X04091Y01349D01*
X04646D01*
X04273Y00941D02*
X044295Y010975D01*
Y013195D01*
X0438Y0159D02*
Y01593D01*
X04324Y01534D02*
X0438Y0159D01*
X04574Y02022D02*
X04576Y0202D01*
X044778Y02022D02*
X04574D01*
X044778D02*
X044798Y0202D01*
X043625Y023685D02*
X04401Y02407D01*
X040245Y02588D02*
X044049D01*
X04428Y025649D01*
X0427Y02764D02*
X04338D01*
X03495Y0167D02*
Y017065D01*
X032715Y021825D02*
X03272Y02183D01*
X03235D02*
X03272D01*
X03472D02*
X034745Y021805D01*
X03272Y02183D02*
X03472D01*
X03298Y01985D02*
X032993Y019863D01*
X026335Y019575D02*
Y019635D01*
X030552Y019938D02*
X03069Y0198D01*
X033Y01766D02*
X03302Y01764D01*
X032423Y017384D02*
X032537Y01727D01*
X031362Y017082D02*
X031664Y017384D01*
X032423D01*
X042946Y033361D02*
X042951Y033366D01*
X04109Y033361D02*
X042946D01*
X035465Y034915D02*
X03596Y03442D01*
X0274Y023162D02*
X027401Y023163D01*
X026028Y023162D02*
X0274D01*
X027599Y023163D02*
X0276Y023162D01*
X027401Y023163D02*
X027599D01*
X034953Y019627D02*
X03497Y01961D01*
X033267Y019627D02*
X034953D01*
X03315Y01951D02*
X033267Y019627D01*
X037683Y019863D02*
X03801Y02019D01*
X02636Y019635D02*
X026368Y019627D01*
X027836D01*
X02637Y022335D02*
X026373Y022332D01*
X02547Y01999D02*
Y020474D01*
X02522Y018471D02*
Y020514D01*
X02554Y02131D02*
X026095D01*
X038723Y01391D02*
X03895D01*
X038533Y0141D02*
X038723Y01391D01*
X03632Y0141D02*
X038533D01*
X037766Y01726D02*
X03828D01*
X037698Y017192D02*
X037766Y01726D01*
X033015Y018065D02*
X034082D01*
X03186Y019366D02*
X031942Y019448D01*
X03186Y01915D02*
Y019366D01*
X01977Y02983D02*
X01982Y02978D01*
X013455Y03347D02*
X0152D01*
X01205Y03383D02*
X012125D01*
X01159Y03337D02*
X01205Y03383D01*
X012483Y034723D02*
X01263Y03487D01*
X012483Y033097D02*
Y034723D01*
X01159Y032905D02*
Y03337D01*
X01982Y028745D02*
Y02978D01*
Y028745D02*
X019898Y028667D01*
X03041Y01732D02*
Y017397D01*
X035966Y019558D02*
X037552D01*
X035902Y019495D02*
X035966Y019558D01*
X037552D02*
X037615Y019495D01*
X01458Y0198D02*
X01459Y01981D01*
X01551Y020627D02*
X016525Y021642D01*
X015244Y020627D02*
X01551D01*
X00857Y01986D02*
X009355Y020645D01*
X013375D01*
X022142Y017768D02*
X02215Y01776D01*
X026286Y013805D02*
X028105D01*
X02241Y01977D02*
X022591Y019589D01*
X01311Y02321D02*
X01323Y02309D01*
X014115Y022513D02*
Y02449D01*
X015075Y02545D01*
X017525Y02353D02*
X01844D01*
X01698Y024075D02*
X017525Y02353D01*
X01698Y024075D02*
Y024079D01*
X016659Y0244D02*
X01698Y024079D01*
X01645Y0244D02*
X016659D01*
X016643Y022275D02*
X01685Y022482D01*
X016916Y022322D02*
X018913D01*
X016525Y021931D02*
X016916Y022322D01*
X016525Y021642D02*
Y021931D01*
X02124Y019542D02*
X02141Y019712D01*
X02034Y0197D02*
X020498Y019542D01*
X02124D01*
X04666Y0202D02*
Y02058D01*
X04656Y02068D02*
X04666Y02058D01*
X04656Y02068D02*
Y02207D01*
X01522Y03515D02*
X015328Y035258D01*
X039057Y03526D02*
X04105D01*
X039049Y035268D02*
X039057Y03526D01*
X038851Y035268D02*
X039049D01*
X038843Y03526D02*
X038851Y035268D01*
X025322Y03526D02*
X038843D01*
X04105D02*
X04128Y03503D01*
X038905Y035075D02*
X03895Y03503D01*
X034688Y035075D02*
X038905D01*
X034683Y03508D02*
X034688Y035075D01*
X025704Y03508D02*
X034683D01*
X01263Y03487D02*
X0163D01*
X02445Y03432D02*
X02446Y03433D01*
X024281Y03407D02*
X02609D01*
X024108Y034243D02*
X024281Y03407D01*
X0237Y03454D02*
X023718Y034558D01*
X03956Y03477D02*
X04171D01*
X04204Y0351D01*
X03931Y03502D02*
X03956Y03477D01*
X01323Y02309D02*
X01324Y0231D01*
X045188Y03126D02*
Y032304D01*
X044807Y03213D02*
X045028Y031909D01*
Y03161D02*
Y031909D01*
X044668Y03125D02*
X045028Y03161D01*
X04478Y03213D02*
X044807D01*
X04465Y03125D02*
X044668D01*
X02151Y02875D02*
X02157Y02881D01*
X02203D01*
X01737Y02814D02*
X01793D01*
X01923Y02913D02*
X01933Y02903D01*
X01738Y02913D02*
X01923D01*
X030601Y017542D02*
X030832D01*
X03116Y01787D01*
X03209D02*
X03212Y0179D01*
X03116Y01787D02*
X03209D01*
X031262Y017618D02*
X031304Y01766D01*
X032137D01*
X030462Y017681D02*
X030601Y017542D01*
X030462Y017681D02*
Y018292D01*
X03047Y0183D01*
X0307Y01778D02*
X030713D01*
X03084Y017907D01*
X03005Y01733D02*
Y01742D01*
X029377Y018093D02*
X03005Y01742D01*
X0289Y01664D02*
Y017685D01*
X031626Y01712D02*
X032234D01*
X031356Y01685D02*
X031626Y01712D01*
X02917Y01685D02*
X031356D01*
X02903Y01651D02*
X03035D01*
X0289Y01664D02*
X02903Y01651D01*
X031262Y01759D02*
Y017618D01*
X029127Y017933D02*
X0294Y01766D01*
X02889Y017695D02*
X0289Y017685D01*
X029229Y018868D02*
X029368Y018729D01*
X028515Y018868D02*
X029229D01*
X036518Y020348D02*
X03656Y02039D01*
X032197Y020348D02*
X036518D01*
X031942Y019448D02*
Y02006D01*
X028203Y02215D02*
X030167D01*
X028298Y02231D02*
X030101D01*
X02913Y01863D02*
X029177D01*
X03041Y017397D01*
X029368Y018727D02*
X029795Y0183D01*
X029368Y018727D02*
Y018729D01*
X026357Y018093D02*
X029377D01*
X026833Y017933D02*
X029127D01*
X028882Y018348D02*
X02889Y01834D01*
X027082Y018348D02*
X028882D01*
X029614Y01882D02*
X02966D01*
X029795Y0183D02*
X03047D01*
X029594Y01914D02*
X0296Y019146D01*
X032264Y01709D02*
X03232Y017146D01*
X0299Y02162D02*
Y021656D01*
X045228Y025815D02*
X045765D01*
X04579Y02584D01*
X02717Y03213D02*
X02721Y03217D01*
X0321Y01863D02*
X03218D01*
X03762Y01535D02*
X03962D01*
X04378Y00825D02*
X04379Y00826D01*
Y00983D01*
X0426Y00986D02*
X04262Y00984D01*
X04053Y00986D02*
X0426D01*
X01988Y01077D02*
X02236D01*
X02438Y01585D02*
Y01597D01*
X02425Y0161D02*
X02438Y01597D01*
X02237Y0161D02*
X02425D01*
X02456Y01464D02*
X02463Y01457D01*
X022095Y015825D02*
X02237Y0161D01*
X022095Y015673D02*
Y015825D01*
X021095Y015673D02*
X021682Y01626D01*
X029592Y018842D02*
X029614Y01882D01*
X03996Y00941D02*
X04273D01*
X03595Y01629D02*
Y0167D01*
X035808Y016148D02*
X03595Y01629D01*
X033432Y016148D02*
X035808D01*
X0333Y01628D02*
X033432Y016148D01*
X03156Y01628D02*
X0333D01*
X031428Y016148D02*
X03156Y01628D01*
X028788Y016148D02*
X031428D01*
X02876Y01612D02*
X028788Y016148D01*
X0266Y0177D02*
X026833Y017933D01*
X02551Y01894D02*
X026357Y018093D01*
X00927Y021697D02*
Y02517D01*
X01009Y02599D01*
X01114D01*
X012905Y026055D02*
Y026352D01*
X01284Y02599D02*
X012905Y026055D01*
X01114Y02599D02*
X01284D01*
X03363Y01072D02*
X034868D01*
X033575Y011575D02*
X034222D01*
X027938Y01564D02*
X03122D01*
X028661Y015882D02*
X031388D01*
X028383Y01616D02*
X02843D01*
X031262Y014D02*
X031382Y01412D01*
X030052Y014395D02*
X030167Y01428D01*
X03578Y01412D02*
X036162Y013738D01*
X031382Y01412D02*
X03578D01*
X03596Y01428D02*
X03606Y01438D01*
X030167Y01428D02*
X03596D01*
X03606Y01438D02*
Y01441D01*
X04496Y02373D02*
X045505D01*
X043858Y022628D02*
X04496Y02373D01*
X043858Y022423D02*
Y022628D01*
X045505Y02373D02*
X04569Y023545D01*
X0353Y02368D02*
Y02402D01*
X035135Y024185D02*
X0353Y02402D01*
X033255Y024185D02*
X035135D01*
X025Y02322D02*
X025578Y023798D01*
X02544Y02401D02*
Y02415D01*
Y02401D02*
X025492Y023958D01*
X02809Y02607D02*
X02817Y02599D01*
X02809Y02607D02*
Y02615D01*
X02392Y031386D02*
X023997Y031463D01*
X02598D01*
X025981Y031462D01*
X027026D01*
X027027Y031463D01*
X02392Y029024D02*
X024674D01*
X02463Y02904D02*
X024657D01*
X024674Y029024D01*
X03626Y01275D02*
X03645Y01294D01*
X03626Y01256D02*
Y01275D01*
X0271Y0088D02*
X02712Y00878D01*
X01159Y0088D02*
X0271D01*
X030183Y021208D02*
X03029Y021315D01*
X03028Y01924D02*
Y01966D01*
X03029Y021315D02*
Y02182D01*
X03394Y02904D02*
X03395Y02903D01*
X033955Y029035D01*
X03396Y028561D02*
X03402Y028501D01*
X03395Y02903D02*
X03396Y02902D01*
Y028561D02*
Y02902D01*
X03402Y02837D02*
Y028501D01*
X04509Y03285D02*
X04511D01*
X04507Y03287D02*
X04509Y03285D01*
X04506Y03286D02*
X04507Y03287D01*
X04423Y03286D02*
X04506D01*
X04076Y03213D02*
X040779Y032149D01*
X040298Y031582D02*
Y033232D01*
X039978Y030361D02*
Y032882D01*
X044479Y034378D02*
X046Y032857D01*
X044712Y028888D02*
X04475Y02885D01*
X044972Y03252D02*
X045188Y032304D01*
X04398Y03252D02*
X044972D01*
X041459Y03142D02*
X044151D01*
X04133Y031549D02*
X041459Y03142D01*
X044151D02*
X04428Y031549D01*
X03859Y03307D02*
X038628Y033108D01*
X036489Y032469D02*
X039261D01*
X03886Y03287D02*
X03894D01*
X038768Y033408D02*
X040122D01*
X03874Y03338D02*
X038768Y033408D01*
X03545Y0339D02*
X03641D01*
X038102Y033352D02*
Y033358D01*
X03807Y03332D02*
X038102Y033352D01*
X03355Y03348D02*
X037887D01*
X03452Y03332D02*
X03807D01*
X03634Y03232D02*
X036489Y032469D01*
X040122Y033408D02*
X040298Y033232D01*
X038378Y032158D02*
X03838D01*
X03842Y0341D02*
X04133D01*
X04135Y03412D01*
X034621Y034915D02*
X035465D01*
X034616Y03492D02*
X034621Y034915D01*
X02446Y03433D02*
X031512D01*
X03154Y034358D01*
X030891Y019068D02*
X031605D01*
X03135Y01883D02*
X03137Y01881D01*
X03099Y01879D02*
X03102D01*
X030907Y01931D02*
X03122D01*
X030665Y018842D02*
X030891Y019068D01*
X030599Y019002D02*
X030907Y01931D01*
X038756Y024875D02*
X03893Y025049D01*
X0372Y02489D02*
X037215Y024875D01*
X037592Y024652D02*
X03761Y024634D01*
X032808Y024652D02*
X037592D01*
X03279Y02467D02*
X032808Y024652D01*
X03779Y0271D02*
X03796Y02727D01*
Y02817D01*
X03731Y03117D02*
X03809D01*
X03985Y02648D02*
X04183D01*
X03756Y02961D02*
Y02965D01*
Y02961D02*
X03796Y02921D01*
X035297Y029835D02*
X035302Y02984D01*
X034858Y029835D02*
X035297D01*
X03974Y03046D02*
Y03245D01*
X040298Y031582D02*
X041172Y030708D01*
X04528Y03316D02*
X04532Y0332D01*
X046Y03032D02*
Y032857D01*
X04578Y02966D02*
X04594D01*
X04559Y02947D02*
X04578Y02966D01*
X04401Y02407D02*
Y024686D01*
X04656Y02207D02*
X04658D01*
X046217Y024817D02*
X04658Y024411D01*
X031626Y01612D02*
X033234D01*
X02783Y02188D02*
X02903D01*
X0308Y02162D02*
X03211D01*
X03029Y02182D02*
X03057Y0221D01*
X032137Y01766D02*
X032137Y01766D01*
X033D01*
X03931Y02107D02*
X039857Y020523D01*
Y02022D02*
Y020523D01*
X035302Y022198D02*
X03532Y02218D01*
X03267Y022198D02*
X035302D01*
X03262Y022148D02*
X03267Y022198D01*
X02517Y025802D02*
Y02587D01*
X02704Y02625D02*
X02725Y02604D01*
X02728D01*
X026794Y02684D02*
X02704Y026594D01*
Y02625D02*
Y026594D01*
X0296Y019146D02*
Y01917D01*
X03536Y01725D02*
X03545Y01716D01*
Y0167D02*
Y01716D01*
X03645Y0151D02*
X03646Y01509D01*
X03439Y01484D02*
Y01488D01*
X031193Y015667D02*
X03122Y01564D01*
X03302Y01764D02*
X03305Y01767D01*
X036162Y013738D02*
X038538D01*
X039098Y014123D02*
Y014329D01*
X0377Y01484D02*
X038587D01*
X039098Y014329D01*
X03886Y01423D02*
Y01425D01*
X038538Y013738D02*
X039506Y01277D01*
X03951D01*
X03895Y02066D02*
Y02189D01*
X03971Y02265D01*
X0399Y02562D02*
X039902Y025622D01*
X035937Y01488D02*
X036357Y01446D01*
X03865D01*
X03886Y01425D01*
X039098Y014123D02*
X03962Y013601D01*
Y01335D02*
Y013601D01*
X03017Y0137D02*
X03193D01*
X02984Y01403D02*
X03017Y0137D01*
X03756Y01509D02*
X038713D01*
X03917Y01497D02*
X0392D01*
X039453Y01435D02*
X03962D01*
X038713Y01509D02*
X039453Y01435D01*
X0392Y01497D02*
X03938Y01479D01*
X03737Y01528D02*
X03756Y01509D01*
X03938Y01479D02*
X04085D01*
X04088Y01352D02*
Y01353D01*
X04219Y01327D02*
X04377Y01169D01*
X0397Y01327D02*
X04219D01*
X03962Y01335D02*
X0397Y01327D01*
X03257Y03492D02*
X034616D01*
X03226Y03461D02*
X03257Y03492D01*
X03455Y03476D02*
X03489Y03442D01*
X03282Y03476D02*
X03455D01*
X03271Y03465D02*
X03282Y03476D01*
X03447Y03406D02*
X03448Y03405D01*
X032845Y03364D02*
X03717D01*
X03838Y032158D02*
X038389Y032149D01*
X03717Y03364D02*
X03795Y03442D01*
X039849Y03437D02*
X039857Y034378D01*
X039882Y030265D02*
X039978Y030361D01*
X039882Y028982D02*
Y030265D01*
X03974Y02884D02*
X039882Y028982D01*
X04012Y02912D02*
X040138Y029138D01*
X04014Y0288D02*
X0408D01*
X03985Y02648D02*
X03987Y0265D01*
X031911Y032961D02*
X03275Y0338D01*
X031772Y032567D02*
X032845Y03364D01*
X03334Y03327D02*
X03355Y03348D01*
X03435Y03315D02*
X03452Y03332D01*
X0201Y03203D02*
Y03283D01*
Y03203D02*
X02024Y03189D01*
X01995Y03332D02*
X02042D01*
X01955Y03411D02*
X01983Y03383D01*
X019898Y028421D02*
Y028667D01*
X01975Y028273D02*
X019898Y028421D01*
X01975Y02808D02*
Y028273D01*
X01966Y02852D02*
Y0287D01*
X01832Y026D02*
Y02621D01*
X042246Y0253D02*
X042276Y02527D01*
X03137Y01832D02*
Y01881D01*
Y0183D02*
Y01832D01*
X022813Y022615D02*
X023093Y022335D01*
X028792Y022682D02*
X02884Y02273D01*
X028086Y022522D02*
X028298Y02231D01*
X02751Y02292D02*
X028335D01*
X02993Y0229D02*
X03057D01*
X033138Y018282D02*
X033962D01*
X03399Y01831D01*
X03293Y01815D02*
X033015Y018065D01*
X034082D02*
X034167Y01815D01*
X03399Y01831D02*
Y01834D01*
X034167Y01815D02*
X03778D01*
X027285Y015963D02*
Y017068D01*
X027013Y01734D02*
X027285Y017068D01*
X03084Y017907D02*
Y01864D01*
X03099Y01879D01*
X03191Y01468D02*
X03193Y0147D01*
X03082Y01468D02*
X03191D01*
X03057Y0221D02*
X03087D01*
X028018Y022335D02*
X028203Y02215D01*
X02974Y02273D02*
X02992Y02291D01*
X023403Y02322D02*
X02402D01*
X023788Y024128D02*
X023796Y02412D01*
X02445Y02389D02*
X02447Y02387D01*
X022528Y024128D02*
X023788D01*
X0215Y02363D02*
X022767D01*
X02307Y02389D02*
X02445D01*
X024167Y024123D02*
X024413D01*
X024164Y02412D02*
X024167Y024123D01*
X023796Y02412D02*
X024164D01*
X024413Y024123D02*
X02498Y02469D01*
X02257Y03096D02*
X02322D01*
X02475Y0312D02*
X025485D01*
X026012Y030962D02*
X02604Y03099D01*
X023966Y030962D02*
X026012D01*
X025485Y0312D02*
X02551Y031225D01*
X02226Y03127D02*
X02257Y03096D01*
X02216Y03127D02*
X02226D01*
X02647Y02763D02*
X02918D01*
X027395Y022335D02*
X028018D01*
X02735Y02229D02*
X027395Y022335D01*
X02601Y02318D02*
X026028Y023162D01*
X022335Y01734D02*
X027013D01*
X03372Y0167D02*
X03395D01*
X03348Y015874D02*
Y015874D01*
X031388Y015882D02*
X031626Y01612D01*
X033234D02*
X03348Y015874D01*
X02239Y02561D02*
X02301Y02623D01*
X02295Y02479D02*
X02388D01*
X02398Y02469D01*
X021875Y01688D02*
X022335Y01734D01*
X02387Y01793D02*
X0259D01*
X02341Y018245D02*
X024505D01*
X02204Y02645D02*
X02224Y02665D01*
X02258D01*
X02199Y02996D02*
X02292D01*
X02235Y02564D02*
Y02621D01*
X02193Y02716D02*
X02194Y02717D01*
X02236Y02561D02*
X02239D01*
X019255Y022615D02*
X022813D01*
X02094Y02596D02*
X02129Y02561D01*
X02055Y02596D02*
X02094D01*
X028601Y014395D02*
X030052D01*
X03893Y025049D02*
X03948Y024499D01*
X026286Y013805D02*
X026291Y01381D01*
X02664Y01064D02*
X02832D01*
X029948Y0103D02*
X031222Y011575D01*
X02621Y0103D02*
X029948D01*
X02615Y01036D02*
X02621Y0103D01*
X02502Y0102D02*
X025648Y009572D01*
X02981Y01521D02*
X03249D01*
X020725Y028375D02*
X022216D01*
X02152Y02801D02*
X02194D01*
X03845Y0167D02*
Y017079D01*
X038528Y017157D01*
Y017382D01*
X03827Y01764D02*
X038528Y017382D01*
X03783Y01764D02*
X03827D01*
X03781Y01766D02*
X03783Y01764D01*
X03937Y01683D02*
X04042D01*
X0384Y0178D02*
X03937Y01683D01*
X04602Y03319D02*
Y03332D01*
X04513Y03421D02*
X04602Y03332D01*
X045705Y019205D02*
X04621Y01971D01*
Y01972D01*
X039005Y012315D02*
X03982D01*
X041172Y027472D02*
Y030708D01*
X04496Y02947D02*
X04559D01*
X043193Y028982D02*
X04351Y029299D01*
X041729Y028982D02*
X043193D01*
X04351Y029299D02*
Y02949D01*
X04348Y02991D02*
Y03024D01*
X04519Y02916D02*
X046348D01*
X04516Y02881D02*
X045218Y028752D01*
X04488Y02794D02*
X045924D01*
X04476Y02782D02*
X04488Y02794D01*
X03788Y03383D02*
X037898Y033848D01*
X04061Y02178D02*
X04074D01*
X04156Y0226D01*
Y02673D02*
Y0288D01*
X04281D01*
X04276Y02923D02*
X04277Y02924D01*
X041451Y02926D02*
X041729Y028982D01*
X04142Y02926D02*
X041451D01*
X04348Y03024D02*
X04349Y03025D01*
X04318Y03056D02*
X04349Y03025D01*
X04168Y03056D02*
X04318D01*
X04166Y03054D02*
X04168Y03056D01*
X04277Y02924D02*
Y03019D01*
X046348Y02916D02*
X046379Y029129D01*
X04194Y02923D02*
Y03019D01*
X046379Y029129D02*
X046385Y029135D01*
X04663Y02889D01*
X03707Y03043D02*
X03838D01*
X044263Y026232D02*
X04428Y026249D01*
X03706Y02921D02*
Y0296D01*
X03796Y02817D02*
Y02921D01*
X03706Y02817D02*
Y02921D01*
X03645Y01629D02*
Y0167D01*
X03695Y01595D02*
Y0167D01*
X03668Y01568D02*
X03695Y01595D01*
X0362Y01568D02*
X03668D01*
X03533Y03275D02*
X03552Y03256D01*
X03585D01*
X031337Y033354D02*
Y033427D01*
X03226Y03435D01*
X031445Y018245D02*
X03224D01*
X04265Y02765D02*
X04268Y02762D01*
X04476Y02776D02*
Y02782D01*
X042276Y02527D02*
X043184D01*
X04385Y022415D02*
X043858Y022423D01*
X04269Y02177D02*
Y0223D01*
X043545Y02136D02*
X04385Y021665D01*
X04479Y02187D02*
X04527Y02139D01*
X04588D01*
X04656Y02207D01*
X04479Y02187D02*
Y02204D01*
X04325Y02726D02*
X04326Y02725D01*
X04192Y02726D02*
X04325D01*
X043003Y02077D02*
X04347D01*
X04621Y02283D02*
X04622Y02282D01*
X04621Y02283D02*
Y02323D01*
X042998Y020775D02*
X043003Y02077D01*
X04347Y0224D02*
X043485Y022415D01*
X04385D01*
X034868Y01072D02*
X035722Y011575D01*
X02551Y012345D02*
X0256Y012255D01*
X037648Y015378D02*
Y015388D01*
X03762Y01535D02*
X037648Y015378D01*
X0374Y01602D02*
Y01603D01*
X03737Y01606D02*
X0374Y01603D01*
X03444Y01295D02*
Y0135D01*
Y01295D02*
X03445Y01294D01*
X038262Y026268D02*
X038547Y025982D01*
X036208Y026268D02*
X038262D01*
X038389Y032149D02*
X03893D01*
X0418Y02314D02*
X04183Y02317D01*
X03619Y02625D02*
X036208Y026268D01*
X03619Y02625D02*
X036218Y026222D01*
X03321Y02654D02*
X03654D01*
X03299Y02676D02*
X03321Y02654D01*
X02817Y02599D02*
X03765D01*
X03768Y02602D01*
X045924Y02794D02*
X04634D01*
X04636Y02796D01*
X04663Y02889D02*
X04668D01*
X02584Y03373D02*
X02586Y03371D01*
X030982D01*
X031337Y033354D01*
X03897Y01228D02*
X039005Y012315D01*
X03888Y01228D02*
X03897D01*
X038535Y012255D02*
Y012325D01*
X03923Y01104D02*
X03925Y01102D01*
X039039Y0112D02*
X039559Y01172D01*
X03962D01*
X03796Y0112D02*
X039039D01*
X03741Y01175D02*
X03796Y0112D01*
X03841Y01788D02*
X03934D01*
X03962Y0176D01*
X041445Y009095D02*
X04156Y00898D01*
X04118Y01534D02*
X04324D01*
X03963D02*
X04118D01*
X041153Y010777D02*
X04118Y01075D01*
X03585Y010777D02*
X041153D01*
X04259Y01102D02*
X04277Y0112D01*
X03925Y01102D02*
X04259D01*
X02497Y01228D02*
X02504Y01221D01*
X02551Y012345D02*
Y01241D01*
X03588Y01854D02*
X035902Y018562D01*
Y019495D01*
X03395Y01767D02*
X03441D01*
X03492Y01381D02*
X03573D01*
X03783Y0181D02*
Y01854D01*
Y0181D02*
X03784Y01809D01*
X03962Y01735D02*
Y0176D01*
X03693Y0097D02*
X03697D01*
X03696Y01009D02*
X0376D01*
X03576Y01275D02*
X03595Y01294D01*
X03576Y01257D02*
Y01275D01*
X03726Y01262D02*
Y01269D01*
X03745Y01288D01*
Y01294D01*
X03604Y0135D02*
X03791D01*
X03573Y01381D02*
X03604Y0135D01*
X02967Y01192D02*
X03024Y01135D01*
X02956Y01192D02*
X02967D01*
X03802Y02018D02*
X03922D01*
X03801Y02019D02*
X03802Y02018D01*
X03243Y025373D02*
X03248D01*
X03628Y02368D02*
X03812D01*
X03435Y03275D02*
Y03315D01*
X03226Y03435D02*
Y03461D01*
X045218Y028315D02*
X04589D01*
X045985Y02841D01*
X04667D01*
X03805Y02437D02*
X03813D01*
X03315Y03424D02*
X03316Y03423D01*
X03334Y03275D02*
Y03327D01*
X02101Y025314D02*
X02105Y025274D01*
X02392Y029417D02*
X023956Y029382D01*
X024938D01*
X03441Y0214D02*
X03656D01*
X03437Y02136D02*
X03441Y0214D01*
X02041Y02312D02*
Y02363D01*
X02067Y02389D01*
X02184D01*
X02129Y02561D02*
X02146D01*
X02004Y02564D02*
X02023D01*
X02055Y02596D01*
X02029Y023D02*
X02041Y02312D01*
X01935Y023D02*
X02029D01*
X01934Y02353D02*
X01935Y02352D01*
Y023D02*
Y02352D01*
X019842Y025148D02*
X01986Y02513D01*
X01886Y02463D02*
X01913Y0249D01*
X01924Y02416D02*
X01926Y02414D01*
X01924Y02416D02*
X01927Y02419D01*
X018913Y022322D02*
X01907Y022165D01*
X01886Y02301D02*
Y02463D01*
X01768Y0244D02*
X01785Y02423D01*
X01735Y0244D02*
X01768D01*
X02735Y02227D02*
Y02229D01*
X02241Y01977D02*
Y020295D01*
X02089Y01978D02*
X02091Y0198D01*
Y020295D01*
X024989Y01824D02*
X02522Y018471D01*
X024505Y018245D02*
X02451Y01824D01*
X024989D01*
X02141Y019712D02*
Y020295D01*
X0224Y02312D02*
X022845D01*
X03088Y02554D02*
Y02556D01*
X02479Y01969D02*
X02481Y01967D01*
X03009Y01294D02*
X03395D01*
X02919Y01384D02*
X03009Y01294D01*
X02434Y03372D02*
X02583D01*
X02584Y03373D01*
X01599Y03293D02*
X01745D01*
X01598Y03294D02*
X01599Y03293D01*
X02232Y03424D02*
Y034581D01*
X0163Y03487D02*
X01651Y03466D01*
X0152Y03347D02*
X01522Y03349D01*
X01377Y02919D02*
X014745D01*
X015105Y02883D01*
X02749Y015192D02*
X027938Y01564D01*
X03293Y0157D02*
X032955Y015675D01*
X02903Y01384D02*
X02919D01*
X027225Y013315D02*
X029268D01*
X0272Y01334D02*
X027225Y013315D01*
X028105Y013805D02*
X02817Y01374D01*
X02471Y00957D02*
X02494Y0098D01*
X03086Y02552D02*
X03088Y02554D01*
X03299Y02854D02*
X033Y02855D01*
X03489Y03442D02*
X03495D01*
X033044Y029024D02*
X03305Y02903D01*
X031337Y029024D02*
X033044D01*
X033Y02855D02*
Y02898D01*
X03299Y02676D02*
Y02678D01*
X02236Y02561D02*
X02237Y02562D01*
X0382Y01966D02*
X03957D01*
X025664Y010456D02*
X02606Y01006D01*
X021774Y010456D02*
X025664D01*
X02177Y01046D02*
X021774Y010456D01*
X0214Y0102D02*
X02502D01*
X02518Y03065D02*
X02519Y03066D01*
X02392Y032173D02*
X025607D01*
X02561Y03216D02*
Y03217D01*
X025607Y032173D02*
X02561Y03217D01*
X02747Y03066D02*
X0275Y03063D01*
X02793Y03021D02*
X027935Y030205D01*
X028726Y029024D02*
X031337D01*
X027935Y030205D02*
X031337D01*
X02821Y030598D02*
X031337D01*
X02721Y03217D02*
X02989D01*
X027135Y032165D02*
X02717Y03213D01*
X018699Y02764D02*
X018999Y02794D01*
X0193D01*
X02633Y0134D02*
X02675D01*
X02631Y01338D02*
X02633Y0134D01*
X024951Y01563D02*
X024995Y015673D01*
X02236Y01077D02*
X02242Y01071D01*
X018619Y011031D02*
X025449D01*
X01719Y0103D02*
X017238Y010252D01*
X01851Y01553D02*
X020952D01*
X021095Y015673D01*
X01906Y01403D02*
X01909Y01406D01*
X0196D01*
X020038Y018248D02*
X020343D01*
X020375Y01828D02*
X02041Y018245D01*
X01661Y01049D02*
X016615Y010495D01*
X01783Y03245D02*
X01928D01*
X01781Y03247D02*
X01783Y03245D01*
X01651Y03441D02*
Y03466D01*
Y03441D02*
X01705Y03387D01*
X01781D01*
X01933Y02903D02*
X01966Y0287D01*
X01914Y02564D02*
Y02607D01*
X02183Y01688D02*
X021875D01*
X025449Y011031D02*
X025449Y011031D01*
X025992Y011575D01*
X01838Y01357D02*
X02046D01*
X01827Y01368D02*
X01838Y01357D01*
X01827Y01399D02*
Y01407D01*
Y01368D02*
Y01399D01*
X023884Y029381D02*
X02392Y029417D01*
X022019Y029381D02*
X023884D01*
X02161Y02979D02*
X022019Y029381D01*
X02197Y02913D02*
Y02914D01*
X02195Y02916D02*
X02197Y02914D01*
X022308Y029596D02*
X022352Y02964D01*
X021003Y029148D02*
X021937D01*
X026782Y014567D02*
Y014948D01*
X02294Y0148D02*
Y014843D01*
X02392Y030992D02*
X023928Y031D01*
X023934Y030191D02*
X02576D01*
X01955Y03411D02*
Y03426D01*
X02042Y03332D02*
X02043Y03331D01*
Y03225D02*
Y03331D01*
X022592Y032462D02*
X02262Y03249D01*
X020659Y02875D02*
X02151D01*
X020732Y032812D02*
X020802Y032882D01*
X02151Y03152D02*
Y0317D01*
X02086Y03195D02*
X02181D01*
X02022Y03131D02*
X02086Y03195D01*
X02181D02*
X02216Y0316D01*
Y03127D02*
Y0316D01*
X02126Y03127D02*
X02151Y03152D01*
X020734Y030344D02*
X021212D01*
X02071Y02839D02*
X020725Y028375D01*
X02198Y02997D02*
X02199Y02996D01*
X02159Y02979D02*
X02161D01*
X02158Y02978D02*
X02159Y02979D01*
X012483Y033097D02*
X01292D01*
X012187D02*
X012483D01*
X03849Y00854D02*
X03893D01*
X03896Y00855D01*
X03995Y00854D02*
X03996Y00853D01*
X03949Y00854D02*
X03995D01*
X00875Y01161D02*
Y019209D01*
Y0116D02*
Y01161D01*
X00857Y01136D02*
Y01986D01*
X02151Y028D02*
X02152Y02801D01*
X021008Y032462D02*
X022592D01*
X02098Y03249D02*
X021008Y032462D01*
X021212Y02997D02*
X02158D01*
X02126Y03116D02*
Y03127D01*
Y03116D02*
X02158Y03084D01*
Y02997D02*
Y03084D01*
X020732Y032228D02*
Y032812D01*
Y032228D02*
X02075Y03221D01*
X02295D02*
X023307Y032567D01*
X02075Y03221D02*
X02295D01*
X022068Y032738D02*
X022668D01*
X022891Y032961D01*
X02204Y03271D02*
X022068Y032738D01*
X023307Y032567D02*
X02392D01*
X01932Y03131D02*
Y0318D01*
X01977Y03143D02*
Y03196D01*
X02148Y03327D02*
X02204Y03271D01*
X02023Y02903D02*
Y02905D01*
X020776Y029596D02*
X021212D01*
X02023Y02905D02*
X020776Y029596D01*
X02023Y02905D02*
Y02991D01*
X021187Y02957D02*
X021212Y029596D01*
X02149Y02716D02*
X02193D01*
X02589Y01344D02*
Y01402D01*
X025882Y01416D02*
Y014567D01*
X01547Y01299D02*
Y01307D01*
X020917Y03064D02*
X021212Y030344D01*
X01957Y03064D02*
X020917D01*
X01932Y03039D02*
X01957Y03064D01*
X01932Y02992D02*
Y03039D01*
X01977Y03037D02*
X01979Y03035D01*
X01928Y03245D02*
X01977Y03196D01*
X01633Y0315D02*
X01634Y03149D01*
X01633Y0315D02*
Y03192D01*
X01647Y02912D02*
X01648Y02913D01*
X01647Y02814D02*
Y02912D01*
X015105Y02883D02*
X015405Y02913D01*
X01648D01*
X01649Y02914D01*
Y03023D01*
X01738Y02913D02*
X01739Y02914D01*
X01737Y02912D02*
X01738Y02913D01*
X01739Y02914D02*
Y03023D01*
X01737Y02814D02*
Y02912D01*
X014612Y01628D02*
Y017398D01*
X01657Y01627D02*
Y01745D01*
X01227Y02504D02*
X012762Y024548D01*
X012905D01*
X01299Y02507D02*
X0143D01*
X012905Y02545D02*
X015075D01*
X013378Y026352D02*
X01386Y02587D01*
X012905Y026352D02*
X013378D01*
X015075Y02545D02*
X01584Y026215D01*
Y02623D01*
X01407Y02183D02*
X01507D01*
X02019Y02737D02*
X0202Y02738D01*
Y02794D01*
X01105Y02101D02*
X01225D01*
X01252Y01298D02*
Y01316D01*
X01657Y01627D02*
X016615Y016225D01*
X01556Y016459D02*
Y0171D01*
X0146Y01741D02*
X014612Y017422D01*
X01907Y02183D02*
Y022165D01*
X014035Y021865D02*
X01407Y02183D01*
X01324Y0231D02*
X01327Y02307D01*
X01732Y02549D02*
X01735Y02546D01*
Y0244D02*
Y02546D01*
X01844Y02353D02*
Y02408D01*
X02585Y0134D02*
X02589Y01344D01*
X02412Y01877D02*
X02481D01*
X01732Y02549D02*
X01733Y0255D01*
Y02657D01*
X01638Y02545D02*
X01642Y02549D01*
X015075Y02545D02*
X01638D01*
X01642Y02549D02*
X01643Y0255D01*
Y02657D01*
X01292Y033097D02*
Y03435D01*
X02297Y03178D02*
X02392D01*
X012935Y02883D02*
X015105D01*
X03557Y029642D02*
X03619Y030262D01*
X03557Y02946D02*
Y029642D01*
X033955Y029515D02*
X034275Y029835D01*
X034858D01*
X031337Y029417D02*
Y029435D01*
X040245Y020775D02*
X042998D01*
X03971Y02131D02*
X040245Y020775D01*
X03971Y02131D02*
Y02178D01*
X04591Y01255D02*
X04677Y01169D01*
X04556Y01255D02*
X04591D01*
X02832Y014676D02*
X028601Y014395D01*
X02832Y014676D02*
Y01477D01*
X045119Y02537D02*
X045927D01*
X044838Y025651D02*
X045119Y02537D01*
X045218Y028315D02*
Y028752D01*
X03962Y01535D02*
X03963Y01534D01*
X046277Y02572D02*
X04671D01*
X045927Y02537D02*
X046277Y02572D01*
X044838Y025651D02*
Y025979D01*
X04492Y026061D01*
Y02627D01*
X044933D01*
X045228Y026565D01*
X04269Y02177D02*
X04277Y02185D01*
X03783Y01854D02*
X04179D01*
X04601Y025049D02*
X046217Y024817D01*
X02392Y029811D02*
X024709D01*
X01225Y02101D02*
X01307Y02183D01*
X02392Y030598D02*
X023939Y03058D01*
X02472D01*
X02392Y030205D02*
X023934Y030191D01*
X02652Y02632D02*
X02662Y02642D01*
X03962Y01435D02*
X03967Y0143D01*
X04281D01*
X022891Y032961D02*
X02392D01*
X01774Y03159D02*
X01809Y03194D01*
X012925Y03219D02*
X015095D01*
X012935Y029732D02*
Y030125D01*
X01343Y02323D02*
X01358Y02308D01*
X02228Y01348D02*
X0229D01*
X02222Y01342D02*
X02228Y01348D01*
X03684Y01766D02*
X03781D01*
X02022Y02992D02*
X02023Y02991D01*
X03948Y024449D02*
Y024499D01*
X02925Y02162D02*
X0299D01*
X04548Y02736D02*
Y027565D01*
X02437Y01642D02*
X02483Y01688D01*
X04156Y00854D02*
Y00898D01*
X0388Y01635D02*
X03962D01*
X03845Y0167D02*
X0388Y01635D01*
X04428Y025049D02*
X04601D01*
X00875Y019209D02*
X00927Y019728D01*
X04562Y021695D02*
Y02196D01*
X04531Y02227D02*
X04562Y02196D01*
X04531Y02227D02*
Y02323D01*
X03395Y01348D02*
X03405Y01358D01*
X03395Y01294D02*
Y01348D01*
X02139Y02352D02*
X0215Y02363D01*
X02139Y02312D02*
Y02352D01*
X03551Y02717D02*
X03588Y0268D01*
X03484Y02717D02*
X03551D01*
X03962Y01635D02*
X04137D01*
X01949Y03296D02*
Y03335D01*
X04277Y0112D02*
Y01169D01*
X045218Y027565D02*
X04548D01*
Y02736D02*
X04572Y02712D01*
X04647D01*
X04671Y02688D01*
Y02662D02*
Y02688D01*
X031337Y032961D02*
X031911D01*
X03634Y03205D02*
Y03232D01*
X03034Y029811D02*
X031337D01*
X03634Y03295D02*
X03692D01*
X02221Y01458D02*
Y014788D01*
X023095Y015673D01*
X031337Y032567D02*
X031772D01*
X035564Y02946D02*
X03557D01*
X02798Y02469D02*
Y02481D01*
X0299Y02462D02*
Y02481D01*
X04562Y022445D02*
X04569D01*
X02483Y01688D02*
X02583D01*
X0379Y03201D02*
X03845Y03146D01*
Y030829D02*
Y03146D01*
Y030829D02*
X03893Y030349D01*
X03484Y02807D02*
X034858Y028088D01*
Y029085D01*
D23*
X01382Y03435D02*
D03*
X01292D02*
D03*
X01733Y02657D02*
D03*
X01643D02*
D03*
X01934Y02353D02*
D03*
X01844D02*
D03*
X01642Y02549D02*
D03*
X01732D02*
D03*
X04666Y0202D02*
D03*
X04576D02*
D03*
X03241Y02083D02*
D03*
X03151D02*
D03*
X03305Y02903D02*
D03*
X03395D02*
D03*
X02142Y03424D02*
D03*
X02232D02*
D03*
X01955Y03426D02*
D03*
X02045D02*
D03*
X02039Y03335D02*
D03*
X01949D02*
D03*
X0299Y02162D02*
D03*
X0308D02*
D03*
X03305Y01767D02*
D03*
X03395D02*
D03*
X01645Y0244D02*
D03*
X01735D02*
D03*
X02023Y02903D02*
D03*
X01933D02*
D03*
X02236Y02561D02*
D03*
X02146D02*
D03*
X01647Y02814D02*
D03*
X01737D02*
D03*
X01724Y03149D02*
D03*
X01634D02*
D03*
X01488Y03436D02*
D03*
X01578D02*
D03*
X01932Y02992D02*
D03*
X02022D02*
D03*
X02149Y02716D02*
D03*
X02239D02*
D03*
X02004Y02564D02*
D03*
X01914D02*
D03*
X01932Y03131D02*
D03*
X02022D02*
D03*
X02884Y02273D02*
D03*
X02974D02*
D03*
X0193Y02794D02*
D03*
X0202D02*
D03*
X03047Y0183D02*
D03*
X03137D02*
D03*
X02126Y03127D02*
D03*
X02216D02*
D03*
X03316Y03435D02*
D03*
X03226D02*
D03*
X04531Y02323D02*
D03*
X04621D02*
D03*
X03796Y02817D02*
D03*
X03706D02*
D03*
X03796Y02921D02*
D03*
X03706D02*
D03*
X01739Y03023D02*
D03*
X01649D02*
D03*
X02238Y03327D02*
D03*
X02148D02*
D03*
X01738Y02913D02*
D03*
X01648D02*
D03*
X02222Y01342D02*
D03*
X02132D02*
D03*
X026782Y014567D02*
D03*
X025882D02*
D03*
X02675Y0134D02*
D03*
X02585D02*
D03*
X02465Y01344D02*
D03*
X02375D02*
D03*
X02463Y01457D02*
D03*
X02373D02*
D03*
X02221Y01458D02*
D03*
X02131D02*
D03*
X04061Y02178D02*
D03*
X03971D02*
D03*
X04179Y02177D02*
D03*
X04269D02*
D03*
D26*
X03634Y03205D02*
D03*
Y03295D02*
D03*
X03588Y01854D02*
D03*
Y01764D02*
D03*
X03684Y01856D02*
D03*
Y01766D02*
D03*
X03783Y01854D02*
D03*
Y01764D02*
D03*
X04667Y02841D02*
D03*
Y02751D02*
D03*
X04671Y02662D02*
D03*
Y02572D02*
D03*
X02481Y01877D02*
D03*
Y01967D02*
D03*
X03484Y02807D02*
D03*
Y02717D02*
D03*
X03489Y01766D02*
D03*
Y01856D02*
D03*
X0379Y03201D02*
D03*
Y03291D02*
D03*
D27*
X03962Y01735D02*
D03*
Y01635D02*
D03*
Y01535D02*
D03*
Y01435D02*
D03*
Y01335D02*
D03*
D34*
X04368Y024449D02*
D03*
X04308D02*
D03*
X04248D02*
D03*
X04188D02*
D03*
X04128D02*
D03*
X04068D02*
D03*
X04008D02*
D03*
X03948D02*
D03*
D35*
X04428Y025049D02*
D03*
Y025649D02*
D03*
Y026249D02*
D03*
Y026849D02*
D03*
Y027449D02*
D03*
Y028049D02*
D03*
Y028649D02*
D03*
Y029249D02*
D03*
Y029749D02*
D03*
Y030349D02*
D03*
Y030949D02*
D03*
Y031549D02*
D03*
Y032149D02*
D03*
X03893Y025049D02*
D03*
Y025649D02*
D03*
Y026249D02*
D03*
Y026849D02*
D03*
Y027449D02*
D03*
Y027949D02*
D03*
Y028549D02*
D03*
Y029149D02*
D03*
Y029749D02*
D03*
Y030349D02*
D03*
Y030949D02*
D03*
Y031549D02*
D03*
Y032149D02*
D03*
D39*
X015075Y02545D02*
D03*
X015105Y02883D02*
D03*
X015095Y03219D02*
D03*
D40*
X012905Y024548D02*
D03*
Y02545D02*
D03*
Y026352D02*
D03*
X012935Y027928D02*
D03*
Y02883D02*
D03*
Y029732D02*
D03*
X012925Y031288D02*
D03*
Y03219D02*
D03*
Y033092D02*
D03*
D86*
X023095Y012673D02*
X026995D01*
X027291Y01297D01*
X011169Y028571D02*
X01181Y02793D01*
X01291Y031373D02*
X01296Y031323D01*
X01399Y01597D02*
Y01675D01*
X01407Y01683D01*
X01093Y01568D02*
X01123Y01598D01*
X017755Y014875D02*
Y015383D01*
X01809Y015718D01*
X01733Y01445D02*
X017755Y014875D01*
X011905Y014635D02*
Y016665D01*
Y014635D02*
X01209Y01445D01*
X011905Y016665D02*
X01207Y01683D01*
X01209Y01445D02*
X01347D01*
X01809Y015718D02*
Y01681D01*
X0229Y033755D02*
X02314Y033995D01*
X021895Y033755D02*
X0229D01*
X027291Y01297D02*
X02815D01*
X021085Y03365D02*
X02119Y033755D01*
X02105Y03365D02*
X021085D01*
X02119Y033755D02*
X021873D01*
X021895D01*
X02314Y033995D02*
X024005D01*
X02392Y033354D02*
X024005Y033439D01*
Y033995D01*
X01291Y031373D02*
Y03178D01*
X012925Y031288D02*
X01296Y031323D01*
X021895Y033755D02*
X02238Y03327D01*
X01215Y028713D02*
X012933Y02793D01*
X012935Y027928D01*
X01181Y02793D02*
X012933D01*
X011169Y02856D02*
Y028571D01*
X01215Y028713D02*
Y031D01*
X012438Y031288D01*
X012925D01*
X0176Y01335D02*
Y01428D01*
X01743Y01445D02*
X0176Y01428D01*
X01733Y01445D02*
X01743D01*
X01347D02*
X01733D01*
X01807Y01683D02*
X01809Y01681D01*
X01953Y01301D02*
X0196Y01308D01*
X01827Y01301D02*
X01953D01*
X01794D02*
X01827D01*
X0176Y01335D02*
X01794Y01301D01*
X00979Y01683D02*
X01207D01*
X00927Y01735D02*
X00979Y01683D01*
X00927Y01735D02*
Y01776D01*
X012935Y027442D02*
Y027928D01*
X00992Y01631D02*
X01086D01*
X0196Y01308D02*
X01961Y01307D01*
X020698D01*
X021095Y012673D01*
X022095D02*
X023095D01*
X021095D02*
X022095D01*
X00932Y01571D02*
X00992Y01631D01*
X00932Y01498D02*
Y01571D01*
X01093Y01497D02*
Y01568D01*
D87*
X01578Y03382D02*
Y03436D01*
X017497Y016628D02*
X01753Y016661D01*
X017497Y01506D02*
Y016628D01*
X019985Y022415D02*
X022295D01*
X02045Y03468D02*
X021703D01*
X0189D02*
X02045D01*
X02187Y03444D02*
Y034513D01*
X021703Y03468D02*
X02187Y034513D01*
X01867Y03445D02*
X0189Y03468D01*
X01867Y03344D02*
Y03445D01*
X01692Y03344D02*
X01867D01*
X01654Y03382D02*
X01692Y03344D01*
X01578Y03382D02*
X01654D01*
X01577D02*
X01578D01*
X02045Y03426D02*
Y03468D01*
X01339Y03382D02*
X01577D01*
X01382Y03425D02*
Y03435D01*
X01339Y03382D02*
X01382Y03425D01*
D88*
X012882Y015722D02*
X014093D01*
X01252Y01536D02*
X012882Y015722D01*
X014233Y015862D02*
X015792D01*
X014093Y015722D02*
X014233Y015862D01*
X015792D02*
X01607Y01614D01*
X01815Y02083D02*
X018368Y021048D01*
X023654Y021255D02*
X024089D01*
X024093Y021252D01*
X024557D01*
X018368Y021048D02*
X024998D01*
X024557Y021252D02*
X02483Y021525D01*
X024998Y021048D02*
X02583Y02188D01*
X01768Y02129D02*
X017718Y021252D01*
X023651D02*
X023654Y021255D01*
X017718Y021252D02*
X023651D01*
X02384Y02079D02*
Y02085D01*
X023832Y020858D02*
X02384Y02085D01*
X017535Y019795D02*
X018598Y020858D01*
X017535Y01946D02*
Y019795D01*
X018598Y020858D02*
X023832D01*
X014463Y01568D02*
X01648D01*
X01402Y015237D02*
X014463Y01568D01*
X01402Y01503D02*
Y015237D01*
X01648Y01568D02*
X01707Y01627D01*
X02483Y021525D02*
Y02188D01*
X01435Y03428D02*
X01443Y03436D01*
X01488D01*
X01607Y01614D02*
Y01683D01*
X01707Y01627D02*
Y01683D01*
X01252Y01497D02*
Y01536D01*
D89*
X019445Y022365D02*
X019465D01*
X01995Y02188D01*
X01459Y01981D02*
Y020963D01*
X01995Y02188D02*
X02083D01*
X01731Y0231D02*
X01756Y02285D01*
X01695Y0231D02*
X01731D01*
D91*
X01114Y02449D02*
D03*
X032722Y011575D02*
D03*
X034222D02*
D03*
X035722D02*
D03*
X015505Y01158D02*
D03*
X014005D02*
D03*
X012505D02*
D03*
X022337Y011575D02*
D03*
X020837D02*
D03*
X019337D02*
D03*
X028992D02*
D03*
X027492D02*
D03*
X025992D02*
D03*
X011169Y02856D02*
D03*
D92*
X01114Y02599D02*
D03*
X011169Y03006D02*
D03*
D93*
X045577Y032502D02*
D03*
Y030533D02*
D03*
D94*
X046775Y032896D02*
D03*
X046505D02*
D03*
X046775Y03014D02*
D03*
X046505D02*
D03*
D95*
X031222Y011575D02*
D03*
X011005Y01158D02*
D03*
X017837Y011575D02*
D03*
X024492D02*
D03*
D96*
X02903Y01286D02*
D03*
Y01384D02*
D03*
X0382Y01966D02*
D03*
Y02067D02*
D03*
Y02165D02*
D03*
Y02266D02*
D03*
X01692Y01398D02*
D03*
Y013D02*
D03*
X01547Y01397D02*
D03*
Y01299D02*
D03*
X0196Y01406D02*
D03*
Y01308D02*
D03*
X01827Y01399D02*
D03*
Y01301D02*
D03*
X01093Y01396D02*
D03*
Y01298D02*
D03*
X00932Y01397D02*
D03*
Y01299D02*
D03*
X01402Y01397D02*
D03*
Y01299D02*
D03*
X01252Y01396D02*
D03*
Y01298D02*
D03*
X03656Y0214D02*
D03*
Y02238D02*
D03*
D97*
X02903Y01485D02*
D03*
X01692Y01499D02*
D03*
X01547Y01498D02*
D03*
X0196Y01507D02*
D03*
X01827Y015D02*
D03*
X01093Y01497D02*
D03*
X00932Y01498D02*
D03*
X01402D02*
D03*
X01252Y01497D02*
D03*
X03656Y02039D02*
D03*
D98*
X01695Y0231D02*
D03*
X01752Y03441D02*
D03*
X03795Y03442D02*
D03*
X03694D02*
D03*
X03596D02*
D03*
X03495D02*
D03*
X03767Y02537D02*
D03*
X03741Y01175D02*
D03*
X03962Y01172D02*
D03*
X03435Y03275D02*
D03*
X03533D02*
D03*
X0353Y02368D02*
D03*
X03628D02*
D03*
X01459Y02308D02*
D03*
X02139Y02312D02*
D03*
X02041D02*
D03*
X025Y02322D02*
D03*
X02402D02*
D03*
X0299Y02462D02*
D03*
X03088D02*
D03*
D99*
X01594Y0231D02*
D03*
X01651Y03441D02*
D03*
X03666Y02537D02*
D03*
X03842Y01175D02*
D03*
X04063Y01172D02*
D03*
X03334Y03275D02*
D03*
X03429Y02368D02*
D03*
X01358Y02308D02*
D03*
X0224Y02312D02*
D03*
X02601Y02322D02*
D03*
X03189Y02462D02*
D03*
D100*
X00906Y03427D02*
D03*
X0461Y03436D02*
D03*
X04612Y00894D02*
D03*
X00891Y00897D02*
D03*
D101*
X02783Y02188D02*
D03*
X02683D02*
D03*
X02583D02*
D03*
X02483D02*
D03*
X02083D02*
D03*
X02183D02*
D03*
X02283D02*
D03*
X02183Y01688D02*
D03*
X02283D02*
D03*
X02783D02*
D03*
X02683D02*
D03*
X02583D02*
D03*
X02483D02*
D03*
X02383Y02188D02*
D03*
Y01688D02*
D03*
X01207Y01683D02*
D03*
X01307D02*
D03*
X01407D02*
D03*
X01507D02*
D03*
X01907D02*
D03*
X01807D02*
D03*
X01707D02*
D03*
X01807Y02183D02*
D03*
X01707D02*
D03*
X01207D02*
D03*
X01307D02*
D03*
X01407D02*
D03*
X01507D02*
D03*
X01607Y01683D02*
D03*
Y02183D02*
D03*
D102*
X02083Y01688D02*
D03*
X01907Y02183D02*
D03*
D103*
X02362Y02642D02*
D03*
X02462D02*
D03*
X02562D02*
D03*
X02662D02*
D03*
X02762D02*
D03*
X02862D02*
D03*
X02962D02*
D03*
X03062D02*
D03*
X03162D02*
D03*
X03262D02*
D03*
D104*
X03193Y0147D02*
D03*
Y0137D02*
D03*
X03293Y0167D02*
D03*
Y0157D02*
D03*
Y0147D02*
D03*
Y0137D02*
D03*
X03193Y0157D02*
D03*
Y0167D02*
D03*
D105*
X024995Y012675D02*
D03*
X025995D02*
D03*
X026995D02*
D03*
Y015675D02*
D03*
X025995D02*
D03*
X024995D02*
D03*
X021095Y012673D02*
D03*
X022095D02*
D03*
X023095D02*
D03*
Y015673D02*
D03*
X022095D02*
D03*
X021095D02*
D03*
D106*
X03619Y030262D02*
D03*
Y02727D02*
D03*
D107*
X02398Y02469D02*
D03*
X02698D02*
D03*
X02598D02*
D03*
X02498D02*
D03*
D108*
X02798D02*
D03*
D109*
X04577Y01169D02*
D03*
X04277D02*
D03*
X04377D02*
D03*
X04477D02*
D03*
X04677D02*
D03*
D110*
X04177D02*
D03*
D111*
X039857Y02022D02*
D03*
X040841D02*
D03*
X041826D02*
D03*
X04281D02*
D03*
X043794D02*
D03*
X03849Y00854D02*
D03*
X03949D02*
D03*
X04054D02*
D03*
X04156D02*
D03*
X04262D02*
D03*
D112*
X044778Y02022D02*
D03*
X03739Y00854D02*
D03*
D113*
X00927Y019728D02*
D03*
Y01776D02*
D03*
D114*
Y021697D02*
D03*
D115*
X0143Y02507D02*
D03*
X031873Y023865D02*
D03*
X03131Y02325D02*
D03*
X032435Y023075D02*
D03*
X0341Y022895D02*
D03*
X01399Y01597D02*
D03*
X01124D02*
D03*
X02424Y0215D02*
D03*
X02418Y02073D02*
D03*
X024405Y020485D02*
D03*
X02384Y02079D02*
D03*
X01598Y0175D02*
D03*
X01579Y01624D02*
D03*
X017497Y01506D02*
D03*
X019715Y02657D02*
D03*
X033595Y02362D02*
D03*
X032428Y02437D02*
D03*
X03761Y02463D02*
D03*
X032553Y024054D02*
D03*
X03196Y02086D02*
D03*
X033355Y018575D02*
D03*
X034705Y019015D02*
D03*
X03158Y020251D02*
D03*
X042755Y034378D02*
D03*
X02824Y0234D02*
D03*
X023505Y012965D02*
D03*
X033495Y01506D02*
D03*
X03419Y01538D02*
D03*
X033505D02*
D03*
X02972Y01095D02*
D03*
X03343Y017035D02*
D03*
X03288Y01847D02*
D03*
X037345Y018845D02*
D03*
X02018Y02855D02*
D03*
X03938Y03271D02*
D03*
X018795Y022745D02*
D03*
X029045Y025363D02*
D03*
X02815Y01297D02*
D03*
X016315Y01158D02*
D03*
X01043Y01347D02*
D03*
X04289Y02872D02*
D03*
X04474Y02992D02*
D03*
X0331Y024045D02*
D03*
X019565Y024435D02*
D03*
X03106Y02053D02*
D03*
X02723Y020395D02*
D03*
X02322Y03096D02*
D03*
X02313Y02964D02*
D03*
Y027405D02*
D03*
X02282Y027665D02*
D03*
X0262Y019155D02*
D03*
X023215Y0206D02*
D03*
X02376Y0203D02*
D03*
X02405Y01979D02*
D03*
X023124Y019351D02*
D03*
X02976Y02077D02*
D03*
X02997Y01954D02*
D03*
X02993Y01916D02*
D03*
X018087Y0347D02*
D03*
X018325Y03441D02*
D03*
X01867Y03344D02*
D03*
X022525Y03476D02*
D03*
X01793Y02814D02*
D03*
X03135Y025045D02*
D03*
X038309Y027409D02*
D03*
X038547Y025963D02*
D03*
X00842Y02698D02*
D03*
X013695Y03087D02*
D03*
X028735Y0312D02*
D03*
X02993D02*
D03*
X029415Y030915D02*
D03*
X027525Y03121D02*
D03*
X01861Y020265D02*
D03*
X019905Y022335D02*
D03*
X019445Y022365D02*
D03*
X020038Y01642D02*
D03*
X035455Y01347D02*
D03*
X01312Y008525D02*
D03*
X033115Y009012D02*
D03*
X034645Y01269D02*
D03*
X02853Y0186D02*
D03*
X027215Y018595D02*
D03*
X03156Y022375D02*
D03*
X03242Y02139D02*
D03*
X044007Y02371D02*
D03*
X043275D02*
D03*
X040122Y02375D02*
D03*
X04376Y02551D02*
D03*
Y026475D02*
D03*
X04581Y027505D02*
D03*
X0461Y02451D02*
D03*
X04546Y0298D02*
D03*
X033565Y034305D02*
D03*
X0314Y03473D02*
D03*
X011865Y028415D02*
D03*
X03806Y02679D02*
D03*
X01723Y01552D02*
D03*
X01459Y01541D02*
D03*
X02861Y019126D02*
D03*
X02813Y01893D02*
D03*
X02596Y019395D02*
D03*
X017535Y01946D02*
D03*
X02235Y02153D02*
D03*
X02479Y02033D02*
D03*
X026373Y022278D02*
D03*
X022528Y024128D02*
D03*
X02094Y02596D02*
D03*
X018705Y031285D02*
D03*
X01178Y02228D02*
D03*
X021005Y00986D02*
D03*
X024645Y01503D02*
D03*
X02375Y014013D02*
D03*
X02062Y010285D02*
D03*
X039435Y009395D02*
D03*
X044295Y013195D02*
D03*
X04021Y0259D02*
D03*
X04338Y02764D02*
D03*
X034745Y021805D02*
D03*
X03272Y02183D02*
D03*
X03375Y018919D02*
D03*
X03497Y01961D02*
D03*
X02636Y019635D02*
D03*
X02598Y01988D02*
D03*
X02612Y02019D02*
D03*
X02547Y01999D02*
D03*
X026105Y02131D02*
D03*
X013455Y03347D02*
D03*
X012125Y03383D02*
D03*
X01159Y032905D02*
D03*
X01436Y034565D02*
D03*
X01435Y03428D02*
D03*
X014317Y020962D02*
D03*
X01486Y02097D02*
D03*
X014597Y019289D02*
D03*
X014595Y01954D02*
D03*
X01458Y0198D02*
D03*
X015244Y020627D02*
D03*
X013375Y020645D02*
D03*
X0191Y018796D02*
D03*
X019094Y01929D02*
D03*
X019104Y019051D02*
D03*
X021823Y018983D02*
D03*
X02089Y018778D02*
D03*
X013252Y023607D02*
D03*
X013842Y023616D02*
D03*
X013533Y023616D02*
D03*
X014115Y022513D02*
D03*
X022401Y018972D02*
D03*
X022107Y018979D02*
D03*
X02518Y03501D02*
D03*
X01522Y03515D02*
D03*
X02445Y03432D02*
D03*
X04128Y03503D02*
D03*
X03931Y03502D02*
D03*
X00966Y0232D02*
D03*
X01Y02321D02*
D03*
X01028Y02354D02*
D03*
X00967Y02352D02*
D03*
X00998Y02354D02*
D03*
X0103Y02319D02*
D03*
X04525Y03015D02*
D03*
X045188Y03126D02*
D03*
X04479Y03181D02*
D03*
X04478Y03213D02*
D03*
X04465Y03125D02*
D03*
X02203Y02881D02*
D03*
X04204Y0351D02*
D03*
X03212Y0179D02*
D03*
X0307Y01778D02*
D03*
X03041Y01732D02*
D03*
X03005Y01733D02*
D03*
X02916Y01717D02*
D03*
X02917Y01685D02*
D03*
X03035Y01651D02*
D03*
X031262Y01759D02*
D03*
X0294Y01766D02*
D03*
X02889Y017695D02*
D03*
X031942Y02006D02*
D03*
X02913Y01863D02*
D03*
X02889Y01834D02*
D03*
X02966Y01882D02*
D03*
X029594Y01914D02*
D03*
X04579Y02584D02*
D03*
X03046Y02077D02*
D03*
X03186Y01915D02*
D03*
X031619Y01968D02*
D03*
X0321Y01863D02*
D03*
X04378Y00825D02*
D03*
X04379Y00983D02*
D03*
X04262Y00984D02*
D03*
X04053Y00986D02*
D03*
X03706Y02964D02*
D03*
X01988Y01077D02*
D03*
X02438Y01585D02*
D03*
X03232Y017146D02*
D03*
X027012Y018348D02*
D03*
X03065Y02103D02*
D03*
X03082Y02074D02*
D03*
X03363Y01072D02*
D03*
X02876Y01612D02*
D03*
X02843Y01616D02*
D03*
X03606Y01441D02*
D03*
X03025Y0241D02*
D03*
X027027Y031463D02*
D03*
X02463Y02904D02*
D03*
X03626Y01256D02*
D03*
X01113Y0085D02*
D03*
X02712Y00878D02*
D03*
X01159Y0088D02*
D03*
X03069Y0198D02*
D03*
X03402Y02837D02*
D03*
X04511Y03285D02*
D03*
X04423Y03286D02*
D03*
X04428Y03341D02*
D03*
X04076Y03213D02*
D03*
X04109Y033361D02*
D03*
X04076Y033609D02*
D03*
X04173Y03294D02*
D03*
X043515Y030925D02*
D03*
X043753Y030525D02*
D03*
X04244Y03382D02*
D03*
X042951Y033366D02*
D03*
X044739Y030553D02*
D03*
X04475Y02885D02*
D03*
X04396Y03252D02*
D03*
X03886Y03287D02*
D03*
X03874Y03338D02*
D03*
X03859Y03307D02*
D03*
X03641Y0339D02*
D03*
X03545D02*
D03*
X038102Y033358D02*
D03*
X03788Y03381D02*
D03*
X038378Y032158D02*
D03*
X03842Y0341D02*
D03*
X03895Y03503D02*
D03*
X03154Y034358D02*
D03*
X02609Y03407D02*
D03*
X02366Y03453D02*
D03*
X03135Y01883D02*
D03*
X03102Y01879D02*
D03*
X03122Y01931D02*
D03*
X0372Y02489D02*
D03*
X03779Y0271D02*
D03*
X03731Y03117D02*
D03*
X03809D02*
D03*
X03756Y02965D02*
D03*
X035302Y02984D02*
D03*
X03974Y03245D02*
D03*
X04532Y0332D02*
D03*
X04594Y02966D02*
D03*
X044249Y02451D02*
D03*
X02903Y02188D02*
D03*
X03211Y02162D02*
D03*
X03931Y02107D02*
D03*
X03532Y02218D02*
D03*
X03262Y022148D02*
D03*
X02728Y02604D02*
D03*
X03536Y01725D02*
D03*
X03646Y01509D02*
D03*
X03439Y01484D02*
D03*
X03122Y01564D02*
D03*
X03632Y0141D02*
D03*
X03886Y01423D02*
D03*
X03895Y01391D02*
D03*
X03951Y01277D02*
D03*
X03895Y02066D02*
D03*
X03971Y02265D02*
D03*
X0399Y02562D02*
D03*
X031262Y014D02*
D03*
X03917Y01497D02*
D03*
X0377Y01484D02*
D03*
X04085Y01479D02*
D03*
X04088Y01353D02*
D03*
X04646Y01349D02*
D03*
X03447Y03406D02*
D03*
X04135Y03413D02*
D03*
X0398Y03437D02*
D03*
X03974Y03046D02*
D03*
X04014Y0288D02*
D03*
X03974Y02884D02*
D03*
X03987Y0265D02*
D03*
X0201Y03283D02*
D03*
X01995Y03332D02*
D03*
X02024Y03189D02*
D03*
X01977Y02983D02*
D03*
X01966Y02852D02*
D03*
X01975Y02808D02*
D03*
X01832Y026D02*
D03*
X042246Y0253D02*
D03*
X03057Y0229D02*
D03*
X03399Y01831D02*
D03*
X03028Y01924D02*
D03*
X03082Y01468D02*
D03*
X03087Y0221D02*
D03*
X02307Y02389D02*
D03*
X02345Y02442D02*
D03*
X02447Y02387D02*
D03*
X02475Y0312D02*
D03*
X02551Y031225D02*
D03*
X02647Y02763D02*
D03*
X02257Y03096D02*
D03*
X02918Y02763D02*
D03*
X02809Y02615D02*
D03*
X0275Y022925D02*
D03*
X027105Y02348D02*
D03*
X0265Y0243D02*
D03*
X026195Y01767D02*
D03*
X03426Y01692D02*
D03*
X02295Y02479D02*
D03*
X02319Y025515D02*
D03*
X02551Y01894D02*
D03*
X02312Y01766D02*
D03*
X02387Y01793D02*
D03*
X02204Y02645D02*
D03*
X02258Y02665D02*
D03*
X02292Y02996D02*
D03*
X02235Y02621D02*
D03*
X02194Y02717D02*
D03*
X02153Y02438D02*
D03*
X02157Y02484D02*
D03*
X02101Y02533D02*
D03*
X03419Y0159D02*
D03*
X0353Y01587D02*
D03*
X026291Y01381D02*
D03*
X02664Y01064D02*
D03*
X02981Y01521D02*
D03*
X02194Y02801D02*
D03*
X04602Y03319D02*
D03*
X03556Y01899D02*
D03*
X03629Y01894D02*
D03*
X037615Y019495D02*
D03*
X04621Y01972D02*
D03*
X03996Y00941D02*
D03*
X03982Y012315D02*
D03*
X04012Y02912D02*
D03*
X0408Y03045D02*
D03*
X04133Y031549D02*
D03*
X04496Y02947D02*
D03*
X04312Y02926D02*
D03*
X04351Y02949D02*
D03*
X04348Y02991D02*
D03*
X04311Y03025D02*
D03*
X04519Y02916D02*
D03*
X04516Y02881D02*
D03*
X04156Y0226D02*
D03*
Y02673D02*
D03*
X04276Y02923D02*
D03*
X04156Y0288D02*
D03*
X04142Y02926D02*
D03*
X04166Y03054D02*
D03*
X04277Y03019D02*
D03*
X04194Y02923D02*
D03*
Y03019D02*
D03*
X03838Y03043D02*
D03*
X03706Y03042D02*
D03*
X0266Y0177D02*
D03*
X033858Y02007D02*
D03*
X03298Y01985D02*
D03*
X03315Y01951D02*
D03*
X03585Y03256D02*
D03*
X03224Y018245D02*
D03*
X04476Y02776D02*
D03*
X04265Y02765D02*
D03*
X04324Y01889D02*
D03*
X0438Y01593D02*
D03*
X042215Y022648D02*
D03*
X04271Y02231D02*
D03*
X0408Y0288D02*
D03*
X04192Y02726D02*
D03*
X01768Y02129D02*
D03*
X04347Y02077D02*
D03*
X04622Y02282D02*
D03*
X04347Y0224D02*
D03*
X037648Y015388D02*
D03*
X0374Y01602D02*
D03*
X03444Y0135D02*
D03*
X03858Y02343D02*
D03*
X040403Y023421D02*
D03*
X036655Y02654D02*
D03*
X03619Y02625D02*
D03*
X04636Y02796D02*
D03*
X04668Y02889D02*
D03*
X03888Y01228D02*
D03*
X038535Y012325D02*
D03*
X03923Y01104D02*
D03*
X03841Y01788D02*
D03*
X0362Y01568D02*
D03*
X04118Y01534D02*
D03*
Y01075D02*
D03*
X03585Y010777D02*
D03*
X02504Y01221D02*
D03*
X02551Y01241D02*
D03*
X035902Y019495D02*
D03*
X03441Y01767D02*
D03*
X03492Y01381D02*
D03*
X03293Y01815D02*
D03*
X03784Y01809D02*
D03*
X037698Y017192D02*
D03*
X03828Y01726D02*
D03*
X04042Y01683D02*
D03*
X03693Y0097D02*
D03*
X0376Y01009D02*
D03*
X0367Y0104D02*
D03*
X03576Y01257D02*
D03*
X03515Y01024D02*
D03*
X03726Y01262D02*
D03*
X03791Y0135D02*
D03*
X03676Y01253D02*
D03*
X03024Y01135D02*
D03*
X02956Y01192D02*
D03*
X03922Y02018D02*
D03*
X03047Y02705D02*
D03*
X03279Y02467D02*
D03*
X032428Y025372D02*
D03*
X03812Y02368D02*
D03*
X0259Y01793D02*
D03*
X03271Y03465D02*
D03*
X03805Y02437D02*
D03*
X024938Y029382D02*
D03*
X03437Y02136D02*
D03*
X02184Y02389D02*
D03*
X01935Y023D02*
D03*
X01986Y02513D02*
D03*
X01913Y0249D02*
D03*
X02054Y02441D02*
D03*
X01924Y02416D02*
D03*
X01756Y02285D02*
D03*
X01785Y02423D02*
D03*
X02735Y02227D02*
D03*
X02369Y01871D02*
D03*
X02089Y01978D02*
D03*
X02034Y0197D02*
D03*
X03088Y02556D02*
D03*
X01752Y01744D02*
D03*
X02434Y03372D02*
D03*
X02584Y03373D02*
D03*
X0175Y03293D02*
D03*
X01522Y03349D02*
D03*
X01377Y02919D02*
D03*
X02749Y015192D02*
D03*
X0272Y01334D02*
D03*
X02817Y01374D02*
D03*
X02832Y01064D02*
D03*
X02615Y01036D02*
D03*
X02768Y01095D02*
D03*
X02408Y0256D02*
D03*
X03189Y02572D02*
D03*
X033Y02855D02*
D03*
X03299Y02678D02*
D03*
X02517Y02587D02*
D03*
X02544Y02415D02*
D03*
X03957Y01966D02*
D03*
X02177Y01046D02*
D03*
X02576Y00982D02*
D03*
X02494Y0098D02*
D03*
X0214Y0102D02*
D03*
X02519Y03066D02*
D03*
X02561Y03216D02*
D03*
X0275Y03063D02*
D03*
X02187Y03444D02*
D03*
X02821Y030598D02*
D03*
X02793Y03021D02*
D03*
X028726Y029024D02*
D03*
X02989Y03217D02*
D03*
X027135Y032165D02*
D03*
X018699Y02764D02*
D03*
X03768Y02602D02*
D03*
X02631Y01338D02*
D03*
X02242Y01071D02*
D03*
X01857Y01106D02*
D03*
X01851Y01553D02*
D03*
X01906Y01403D02*
D03*
X020038Y018248D02*
D03*
X01719Y0103D02*
D03*
X016615Y010495D02*
D03*
X01835Y03274D02*
D03*
X01781Y03387D02*
D03*
Y03247D02*
D03*
X01869Y02607D02*
D03*
X01914D02*
D03*
X02139Y01926D02*
D03*
X02215Y01776D02*
D03*
X02129Y01753D02*
D03*
X02045Y01357D02*
D03*
X02197Y02913D02*
D03*
X021003Y029148D02*
D03*
X02576Y030191D02*
D03*
X02604Y03099D02*
D03*
X02262Y03249D02*
D03*
X02105Y03365D02*
D03*
X02151Y0317D02*
D03*
X01291Y03178D02*
D03*
X020734Y030344D02*
D03*
X02071Y02839D02*
D03*
X02198Y02997D02*
D03*
X02161Y02979D02*
D03*
X03896Y00855D02*
D03*
X03996Y00853D02*
D03*
X02075Y03221D02*
D03*
X02204Y03271D02*
D03*
X02098Y03249D02*
D03*
X01932Y0318D02*
D03*
X01977Y03143D02*
D03*
X024005Y033995D02*
D03*
X021873Y033755D02*
D03*
X02589Y01402D02*
D03*
X01815Y02083D02*
D03*
X01977Y03037D02*
D03*
X014612Y01628D02*
D03*
X01657Y01745D02*
D03*
X01347Y01445D02*
D03*
X01577Y03382D02*
D03*
X01598Y03294D02*
D03*
X01633Y03192D02*
D03*
X012935Y027442D02*
D03*
X01227Y02504D02*
D03*
X01299Y02507D02*
D03*
X01386Y02587D02*
D03*
X01584Y02623D02*
D03*
X01459Y020963D02*
D03*
X02019Y02737D02*
D03*
X01105Y02101D02*
D03*
X016615Y016225D02*
D03*
X014612Y017422D02*
D03*
X01086Y01631D02*
D03*
X01844Y02408D02*
D03*
X0291Y02443D02*
D03*
X02412Y01877D02*
D03*
X02294Y0148D02*
D03*
X02043Y03224D02*
D03*
X02297Y03178D02*
D03*
X043184Y02527D02*
D03*
X04556Y01255D02*
D03*
X02832Y01477D02*
D03*
X02984Y01403D02*
D03*
X04513Y03421D02*
D03*
X04324Y01534D02*
D03*
X04326Y02725D02*
D03*
X04492Y02627D02*
D03*
X024709Y029811D02*
D03*
X04473Y02305D02*
D03*
X02925Y02162D02*
D03*
X02472Y03058D02*
D03*
X04281Y0143D02*
D03*
X01809Y03194D02*
D03*
X01339Y03382D02*
D03*
X0229Y01348D02*
D03*
X04179Y01854D02*
D03*
X04115Y02745D02*
D03*
X04183Y02317D02*
D03*
Y02648D02*
D03*
X0451Y02701D02*
D03*
X03405Y01358D02*
D03*
X04137Y01635D02*
D03*
X03034Y029811D02*
D03*
X03692Y03295D02*
D03*
D116*
X046505Y032896D02*
X046775D01*
X046505Y03014D02*
X046775D01*
D117*
X045228Y025815D02*
D03*
Y026565D02*
D03*
X045934Y02619D02*
D03*
X045218Y027565D02*
D03*
Y028315D02*
D03*
X045924Y02794D02*
D03*
X034858Y029085D02*
D03*
Y029835D02*
D03*
X035564Y02946D02*
D03*
X02151Y028D02*
D03*
Y02875D02*
D03*
X022216Y028375D02*
D03*
D118*
X04385Y021665D02*
D03*
Y022415D02*
D03*
X04479Y02204D02*
D03*
X04562Y021695D02*
D03*
Y022445D02*
D03*
X04656Y02207D02*
D03*
D119*
X021212Y029596D02*
D03*
Y02997D02*
D03*
Y030344D02*
D03*
X022308D02*
D03*
Y029596D02*
D03*
D120*
X031337Y033354D02*
D03*
Y032961D02*
D03*
Y032567D02*
D03*
Y032173D02*
D03*
Y03178D02*
D03*
Y031386D02*
D03*
Y030992D02*
D03*
Y030598D02*
D03*
Y030205D02*
D03*
Y029811D02*
D03*
Y029417D02*
D03*
Y029024D02*
D03*
Y02863D02*
D03*
Y028236D02*
D03*
Y027843D02*
D03*
Y027449D02*
D03*
Y027055D02*
D03*
X02392D02*
D03*
Y027449D02*
D03*
Y027843D02*
D03*
Y028236D02*
D03*
Y02863D02*
D03*
Y029024D02*
D03*
Y029417D02*
D03*
Y029811D02*
D03*
Y030205D02*
D03*
Y030598D02*
D03*
Y030992D02*
D03*
Y031386D02*
D03*
Y03178D02*
D03*
Y032173D02*
D03*
Y032567D02*
D03*
Y032961D02*
D03*
Y033354D02*
D03*
D121*
X03395Y01294D02*
D03*
X03445D02*
D03*
X03495D02*
D03*
X03545D02*
D03*
X03595D02*
D03*
X03645D02*
D03*
X03695D02*
D03*
X03745D02*
D03*
X03795D02*
D03*
X03845D02*
D03*
Y0167D02*
D03*
X03795D02*
D03*
X03745D02*
D03*
X03695D02*
D03*
X03645D02*
D03*
X03595D02*
D03*
X03545D02*
D03*
X03495D02*
D03*
X03445D02*
D03*
X03395D02*
D03*
D122*
X02041Y020295D02*
D03*
X02091D02*
D03*
X02141D02*
D03*
X02191D02*
D03*
X02241D02*
D03*
X02291D02*
D03*
X02341D02*
D03*
Y018245D02*
D03*
X02291D02*
D03*
X02241D02*
D03*
X02191D02*
D03*
X02141D02*
D03*
X02091D02*
D03*
X02041D02*
D03*
D123*
X01753Y016661D02*
Y01742D01*
M02*
