G04*
G04 #@! TF.GenerationSoftware,Altium Limited,Altium Designer,18.1.6 (161)*
G04*
G04 Layer_Color=8388736*
%FSTAX24Y24*%
%MOIN*%
G70*
G01*
G75*
%ADD18O,0.0750X0.0480*%
%ADD22R,0.0500X0.0870*%
%ADD32R,0.0080X0.0380*%
%ADD33R,0.0380X0.0080*%
%ADD37R,0.0580X0.0090*%
%ADD38R,0.0090X0.0580*%
%ADD41R,0.0830X0.0670*%
%ADD42R,0.0610X0.0240*%
%ADD43R,0.0867X0.0671*%
%ADD44R,0.0671X0.0867*%
%ADD45R,0.1320X0.0710*%
%ADD46R,0.0580X0.0630*%
%ADD47R,0.1620X0.0470*%
%ADD48R,0.4590X0.4190*%
%ADD49R,0.0630X0.0580*%
%ADD50O,0.0880X0.0680*%
%ADD51R,0.0930X0.0730*%
%ADD52R,0.0395X0.0395*%
%ADD53R,0.0395X0.0395*%
%ADD54R,0.0710X0.1084*%
%ADD55R,0.1000X0.1000*%
%ADD56O,0.0480X0.0680*%
%ADD57O,0.0680X0.0480*%
%ADD58O,0.0680X0.0480*%
%ADD59R,0.1040X0.1320*%
%ADD60R,0.1040X0.0410*%
%ADD61C,0.0907*%
%ADD62R,0.0907X0.0907*%
%ADD63C,0.0650*%
%ADD64C,0.0320*%
%ADD65R,0.0907X0.0907*%
%ADD66O,0.0830X0.0730*%
%ADD67R,0.0830X0.0730*%
%ADD68O,0.0730X0.0830*%
%ADD69R,0.0730X0.0830*%
%ADD70C,0.1300*%
%ADD71C,0.0730*%
%ADD72R,0.0730X0.0730*%
%ADD73C,0.0680*%
%ADD74O,0.0940X0.0680*%
%ADD75C,0.0592*%
%ADD76C,0.0709*%
%ADD77O,0.0730X0.0980*%
%ADD78R,0.0730X0.0980*%
%ADD79O,0.0730X0.0930*%
%ADD80R,0.0730X0.0930*%
%ADD81O,0.0730X0.0930*%
%ADD82R,0.0730X0.0930*%
%ADD83C,0.0848*%
%ADD84R,0.0848X0.0848*%
%ADD85C,0.0316*%
G36*
X047015Y0306D02*
X046265D01*
Y03014D01*
X047015D01*
Y0306D01*
D02*
G37*
G36*
Y032436D02*
X046265D01*
Y032896D01*
X047015D01*
Y032436D01*
D02*
G37*
D18*
X04664Y03014D02*
D03*
Y032896D02*
D03*
D22*
X04073Y02973D02*
D03*
X03971D02*
D03*
D32*
X043231Y030955D02*
D03*
X043034D02*
D03*
X042837D02*
D03*
X04264D02*
D03*
X042443D02*
D03*
X042246D02*
D03*
X042049D02*
D03*
Y032785D02*
D03*
X042246D02*
D03*
X042443D02*
D03*
X04264D02*
D03*
X042837D02*
D03*
X043034D02*
D03*
X043231D02*
D03*
D33*
X041725Y031279D02*
D03*
Y031476D02*
D03*
Y031673D02*
D03*
Y03187D02*
D03*
Y032067D02*
D03*
Y032264D02*
D03*
Y032461D02*
D03*
X043555D02*
D03*
Y032264D02*
D03*
Y032067D02*
D03*
Y03187D02*
D03*
Y031673D02*
D03*
Y031476D02*
D03*
Y031279D02*
D03*
D37*
X02911Y021043D02*
D03*
Y020846D02*
D03*
Y020649D02*
D03*
Y020452D02*
D03*
Y020255D02*
D03*
Y020058D02*
D03*
Y019862D02*
D03*
Y019665D02*
D03*
Y019468D02*
D03*
Y019271D02*
D03*
Y019074D02*
D03*
Y018877D02*
D03*
X03243D02*
D03*
Y019074D02*
D03*
Y019271D02*
D03*
Y019468D02*
D03*
Y019665D02*
D03*
Y019862D02*
D03*
Y020058D02*
D03*
Y020255D02*
D03*
Y020452D02*
D03*
Y020649D02*
D03*
Y020846D02*
D03*
Y021043D02*
D03*
D38*
X029687Y0183D02*
D03*
X029884D02*
D03*
X030081D02*
D03*
X030278D02*
D03*
X030475D02*
D03*
X030672D02*
D03*
X030868D02*
D03*
X031065D02*
D03*
X031262D02*
D03*
X031459D02*
D03*
X031656D02*
D03*
X031853D02*
D03*
Y02162D02*
D03*
X031656D02*
D03*
X031459D02*
D03*
X031262D02*
D03*
X031065D02*
D03*
X030868D02*
D03*
X030672D02*
D03*
X030475D02*
D03*
X030278D02*
D03*
X030081D02*
D03*
X029884D02*
D03*
X029687D02*
D03*
D41*
X04664Y031911D02*
D03*
Y031124D02*
D03*
D42*
X045587Y032029D02*
D03*
Y031774D02*
D03*
Y031518D02*
D03*
Y031262D02*
D03*
Y031006D02*
D03*
D43*
X020453Y02483D02*
D03*
X018327D02*
D03*
D44*
X02152Y028563D02*
D03*
Y026437D02*
D03*
X01913Y028763D02*
D03*
Y026637D02*
D03*
X02152Y032613D02*
D03*
Y030487D02*
D03*
X01917Y030477D02*
D03*
Y032603D02*
D03*
D45*
X024119Y01926D02*
D03*
X02219D02*
D03*
X01401D02*
D03*
X012081D02*
D03*
D46*
X04276Y02971D02*
D03*
X04186D02*
D03*
X03506Y02518D02*
D03*
X03416D02*
D03*
X04473Y03342D02*
D03*
X04383D02*
D03*
X04473Y03461D02*
D03*
X04383D02*
D03*
X0422Y03462D02*
D03*
X0413D02*
D03*
X04025D02*
D03*
X03935D02*
D03*
D47*
X012735Y027961D02*
D03*
Y030039D02*
D03*
D48*
X01623Y029D02*
D03*
D49*
X02353Y03263D02*
D03*
Y03173D02*
D03*
X02655Y03261D02*
D03*
Y03171D02*
D03*
X02755D02*
D03*
Y03261D02*
D03*
X02993Y03172D02*
D03*
Y03262D02*
D03*
X02559Y03171D02*
D03*
Y03261D02*
D03*
X02872Y032613D02*
D03*
Y031713D02*
D03*
X03974Y03178D02*
D03*
Y03088D02*
D03*
X0246Y03169D02*
D03*
Y03259D02*
D03*
X01298Y02561D02*
D03*
Y02471D02*
D03*
X04456Y00835D02*
D03*
Y00925D02*
D03*
D50*
X03702Y013295D02*
D03*
Y014083D02*
D03*
Y01487D02*
D03*
Y015657D02*
D03*
Y016445D02*
D03*
D51*
Y017232D02*
D03*
D52*
X02351Y033345D02*
D03*
Y033975D02*
D03*
X02548Y033358D02*
D03*
Y033988D02*
D03*
X02474Y033365D02*
D03*
Y033995D02*
D03*
X03971Y03289D02*
D03*
Y03352D02*
D03*
X02753Y033351D02*
D03*
Y033981D02*
D03*
X03394Y033835D02*
D03*
Y034465D02*
D03*
X0266Y033395D02*
D03*
Y034025D02*
D03*
X02871Y03332D02*
D03*
Y03395D02*
D03*
X029915Y03329D02*
D03*
Y03392D02*
D03*
X03729Y032945D02*
D03*
Y032315D02*
D03*
D53*
X046665Y02935D02*
D03*
X046035D02*
D03*
D54*
X01107Y034259D02*
D03*
Y032881D02*
D03*
D55*
X04264Y03187D02*
D03*
D56*
X039973Y02828D02*
D03*
X04076D02*
D03*
X041548D02*
D03*
X042335D02*
D03*
X045485D02*
D03*
X043123D02*
D03*
X04391D02*
D03*
X044697D02*
D03*
X045485Y021981D02*
D03*
X044697D02*
D03*
X04391D02*
D03*
X043123D02*
D03*
X042335D02*
D03*
X041548D02*
D03*
X04076D02*
D03*
X039973D02*
D03*
D57*
X039393Y02711D02*
D03*
Y02631D02*
D03*
Y02473D02*
D03*
Y02393D02*
D03*
Y02313D02*
D03*
D58*
Y02551D02*
D03*
D59*
X01691Y02546D02*
D03*
D60*
X01474Y024558D02*
D03*
Y02546D02*
D03*
Y026362D02*
D03*
D61*
X01114Y02449D02*
D03*
X032722Y011575D02*
D03*
X034222D02*
D03*
X035722D02*
D03*
X0155Y01158D02*
D03*
X014D02*
D03*
X0125D02*
D03*
X022337Y011575D02*
D03*
X020837D02*
D03*
X019337D02*
D03*
X028992D02*
D03*
X027492D02*
D03*
X025992D02*
D03*
X011169Y02856D02*
D03*
D62*
X01114Y02599D02*
D03*
X011169Y03006D02*
D03*
D63*
X045577Y032502D02*
D03*
Y030533D02*
D03*
D64*
X046775Y032896D02*
D03*
X046505D02*
D03*
X046775Y03014D02*
D03*
X046505D02*
D03*
D65*
X031222Y011575D02*
D03*
X011Y01158D02*
D03*
X017837Y011575D02*
D03*
X024492D02*
D03*
D66*
X02903Y01286D02*
D03*
Y01384D02*
D03*
X0382Y01966D02*
D03*
Y02067D02*
D03*
Y02165D02*
D03*
Y02266D02*
D03*
X01692Y01398D02*
D03*
Y013D02*
D03*
X01547Y01397D02*
D03*
Y01299D02*
D03*
X0196Y01406D02*
D03*
Y01308D02*
D03*
X01827Y01399D02*
D03*
Y01301D02*
D03*
X01093Y01396D02*
D03*
Y01298D02*
D03*
X00932Y01397D02*
D03*
Y01299D02*
D03*
X01402Y01397D02*
D03*
Y01299D02*
D03*
X01252Y01396D02*
D03*
Y01298D02*
D03*
X03656Y0214D02*
D03*
Y02238D02*
D03*
D67*
X02903Y01485D02*
D03*
X01692Y01499D02*
D03*
X01547Y01498D02*
D03*
X0196Y01507D02*
D03*
X01827Y015D02*
D03*
X01093Y01497D02*
D03*
X00932Y01498D02*
D03*
X01402D02*
D03*
X01252Y01497D02*
D03*
X03656Y02039D02*
D03*
D68*
X01695Y0231D02*
D03*
X01752Y03441D02*
D03*
X03795Y03442D02*
D03*
X03694D02*
D03*
X03596D02*
D03*
X03495D02*
D03*
X03767Y02537D02*
D03*
X03741Y01175D02*
D03*
X03962Y01172D02*
D03*
X03435Y03275D02*
D03*
X03533D02*
D03*
X0353Y02368D02*
D03*
X03628D02*
D03*
X01459Y02308D02*
D03*
X02139Y02312D02*
D03*
X02041D02*
D03*
X025Y02322D02*
D03*
X02402D02*
D03*
X0299Y02462D02*
D03*
X03088D02*
D03*
D69*
X01594Y0231D02*
D03*
X01651Y03441D02*
D03*
X03666Y02537D02*
D03*
X03842Y01175D02*
D03*
X04063Y01172D02*
D03*
X03334Y03275D02*
D03*
X03429Y02368D02*
D03*
X01358Y02308D02*
D03*
X0224Y02312D02*
D03*
X02601Y02322D02*
D03*
X03189Y02462D02*
D03*
D70*
X00906Y03427D02*
D03*
X0461Y03436D02*
D03*
X04612Y00894D02*
D03*
X00891Y00897D02*
D03*
D71*
X02783Y02188D02*
D03*
X02683D02*
D03*
X02583D02*
D03*
X02483D02*
D03*
X02083D02*
D03*
X02183D02*
D03*
X02283D02*
D03*
X02183Y01688D02*
D03*
X02283D02*
D03*
X02783D02*
D03*
X02683D02*
D03*
X02583D02*
D03*
X02483D02*
D03*
X02383Y02188D02*
D03*
Y01688D02*
D03*
X01207Y01683D02*
D03*
X01307D02*
D03*
X01407D02*
D03*
X01507D02*
D03*
X01907D02*
D03*
X01807D02*
D03*
X01707D02*
D03*
X01807Y02183D02*
D03*
X01707D02*
D03*
X01207D02*
D03*
X01307D02*
D03*
X01407D02*
D03*
X01507D02*
D03*
X01607Y01683D02*
D03*
Y02183D02*
D03*
D72*
X02083Y01688D02*
D03*
X01907Y02183D02*
D03*
D73*
X02362Y02642D02*
D03*
X02462D02*
D03*
X02562D02*
D03*
X02662D02*
D03*
X02762D02*
D03*
X02862D02*
D03*
X02962D02*
D03*
X03062D02*
D03*
X03162D02*
D03*
X03262D02*
D03*
D74*
X03193Y0147D02*
D03*
Y0137D02*
D03*
X03293Y0167D02*
D03*
Y0157D02*
D03*
Y0147D02*
D03*
Y0137D02*
D03*
X03193Y0157D02*
D03*
Y0167D02*
D03*
D75*
X024995Y012673D02*
D03*
X025995D02*
D03*
X026995D02*
D03*
Y015673D02*
D03*
X025995D02*
D03*
X024995D02*
D03*
X021095Y012673D02*
D03*
X022095D02*
D03*
X023095D02*
D03*
Y015673D02*
D03*
X022095D02*
D03*
X021095D02*
D03*
D76*
X03619Y030262D02*
D03*
Y02727D02*
D03*
D77*
X02398Y02469D02*
D03*
X02698D02*
D03*
X02598D02*
D03*
X02498D02*
D03*
D78*
X02798D02*
D03*
D79*
X04577Y01169D02*
D03*
X04277D02*
D03*
X04377D02*
D03*
X04477D02*
D03*
X04677D02*
D03*
D80*
X04177D02*
D03*
D81*
X039857Y02022D02*
D03*
X040841D02*
D03*
X041826D02*
D03*
X04281D02*
D03*
X043794D02*
D03*
X03849Y00854D02*
D03*
X03949D02*
D03*
X04054D02*
D03*
X04156D02*
D03*
X04262D02*
D03*
D82*
X044778Y02022D02*
D03*
X03739Y00854D02*
D03*
D83*
X00927Y019728D02*
D03*
Y01776D02*
D03*
D84*
Y021697D02*
D03*
D85*
X014115Y022513D02*
D03*
X04128Y03503D02*
D03*
M02*
